<svg width="191" height="202" viewBox="0 0 191 202" fill="none" xmlns="http://www.w3.org/2000/svg">
<g clip-path="url(#clip0_406_8596)">
<path d="M117.932 70.9019C137.623 70.9019 153.585 55.03 153.585 35.451C153.585 15.8719 137.623 0 117.932 0C98.2411 0 82.2786 15.8719 82.2786 35.451C82.2786 55.03 98.2411 70.9019 117.932 70.9019Z" fill="#626368"/>
<path d="M149.273 36.219L145.077 36.2946C145.071 36.2946 145.06 36.2946 145.054 36.2946C144.305 36.2946 143.691 35.7011 143.679 34.9506C143.667 34.1942 144.27 33.5716 145.031 33.5542L149.226 33.4785C149.232 33.4785 149.244 33.4785 149.249 33.4785C149.261 33.4785 149.273 33.4844 149.285 33.4844C148.816 26.002 145.703 19.2411 140.864 14.0978C140.847 14.1152 140.847 14.1385 140.829 14.1559L137.892 17.1349C137.622 17.4084 137.266 17.548 136.909 17.548C136.563 17.548 136.212 17.42 135.943 17.1582C135.399 16.6287 135.393 15.7618 135.926 15.2207L138.863 12.2417C138.881 12.2243 138.904 12.2184 138.922 12.201C133.532 7.38343 126.452 4.40446 118.681 4.22409C118.681 4.24736 118.693 4.26482 118.693 4.28809L118.769 8.45982C118.781 9.2162 118.178 9.83876 117.417 9.85621C117.411 9.85621 117.4 9.85621 117.394 9.85621C116.645 9.85621 116.03 9.26274 116.019 8.51218L115.943 4.34046C115.943 4.31718 115.948 4.29973 115.948 4.27646C108.394 4.74774 101.571 7.87217 96.3984 12.7188C96.416 12.7363 96.4394 12.7363 96.4569 12.7537L99.4646 15.6687C100.009 16.1982 100.021 17.0651 99.488 17.6062C99.2189 17.8797 98.8619 18.0193 98.4991 18.0193C98.1539 18.0193 97.8086 17.8913 97.5395 17.6295L94.5318 14.7145C94.5142 14.697 94.5084 14.6738 94.4908 14.6563C89.6926 20.0033 86.72 27.0028 86.5386 34.6829C86.562 34.6829 86.5795 34.6771 86.6029 34.6771L90.7985 34.6015C90.8043 34.6015 90.8161 34.6015 90.8219 34.6015C91.5709 34.6015 92.1853 35.1949 92.197 35.9455C92.2087 36.7019 91.606 37.3244 90.8453 37.3419L86.6498 37.4175C86.6439 37.4175 86.6322 37.4175 86.6263 37.4175C86.6146 37.4175 86.6029 37.4117 86.5912 37.4117C87.0594 44.8941 90.1724 51.6549 95.0116 56.7983C95.0292 56.7809 95.0292 56.7576 95.0467 56.7401L97.9842 53.7612C98.5167 53.2201 99.3885 53.2142 99.9327 53.7437C100.477 54.2732 100.483 55.1401 99.9503 55.6812L97.0128 58.6602C96.9953 58.6776 96.9719 58.6834 96.9543 58.7009C102.344 63.5126 109.412 66.4916 117.183 66.672C117.183 66.6487 117.171 66.6313 117.171 66.6138L117.095 62.4421C117.084 61.6857 117.686 61.0631 118.447 61.0457C119.137 61.0224 119.834 61.6333 119.851 62.3897L119.927 66.5614C119.927 66.5847 119.922 66.6022 119.922 66.6254C127.447 66.16 134.246 63.0646 139.413 58.2471C139.396 58.2296 139.372 58.2238 139.355 58.2122L136.359 55.2914C135.814 54.7619 135.809 53.895 136.341 53.3539C136.873 52.8128 137.745 52.8011 138.29 53.3364L141.286 56.2572C141.303 56.2747 141.309 56.2979 141.327 56.3154C146.166 50.9567 149.162 43.934 149.343 36.2073C149.314 36.2131 149.296 36.219 149.273 36.219Z" fill="white"/>
<path d="M134.954 17.7807C134.662 17.4956 134.193 17.4956 133.901 17.7866L119.916 31.9076C119.295 31.4829 118.558 31.2036 117.751 31.1512C116.896 31.0988 116.089 31.3083 115.392 31.6981L105.035 22.1328C104.509 21.6441 103.684 21.679 103.198 22.2027C102.706 22.7263 102.741 23.5467 103.268 24.0296L113.625 33.5949C113.403 34.072 113.257 34.5957 113.222 35.1484C113.081 37.499 114.883 39.5121 117.242 39.6518C119.606 39.7914 121.63 37.9994 121.771 35.6546C121.829 34.648 121.519 33.7113 120.969 32.9433L134.954 18.8222C135.247 18.5313 135.247 18.0658 134.954 17.7807Z" fill="#F45955"/>
<path d="M184.54 179.972H125.82C122.25 179.972 119.36 177.098 119.36 173.548V61.098C119.36 57.5489 122.25 54.6746 125.82 54.6746H184.546C188.115 54.6746 191.006 57.5489 191.006 61.098V173.548C191 177.098 188.109 179.972 184.54 179.972Z" fill="#342F2F"/>
<path d="M182.954 62.2733H127.411C124.649 62.2733 122.414 64.4959 122.414 67.2422V172.943C122.414 174.898 124.012 176.487 125.978 176.487H184.394C186.36 176.487 187.957 174.898 187.957 172.943V67.2422C187.951 64.5018 185.71 62.2733 182.954 62.2733Z" fill="white"/>
<path d="M159.068 59.2536H151.286C150.882 59.2536 150.554 58.9278 150.554 58.5264C150.554 58.1249 150.882 57.7991 151.286 57.7991H159.068C159.472 57.7991 159.8 58.1249 159.8 58.5264C159.8 58.9278 159.472 59.2536 159.068 59.2536Z" fill="white"/>
<path d="M140.852 170.75H127.043C126.317 170.75 125.732 170.168 125.732 169.447C125.732 168.725 126.317 168.143 127.043 168.143H140.852C141.578 168.143 142.163 168.725 142.163 169.447C142.163 170.162 141.578 170.75 140.852 170.75Z" fill="#C8E5F5"/>
<path d="M127.698 67.2887H141.508C142.233 67.2887 142.818 67.8706 142.818 68.592C142.818 69.3135 142.233 69.8953 141.508 69.8953H127.698C126.972 69.8953 126.387 69.3135 126.387 68.592C126.381 67.8764 126.972 67.2887 127.698 67.2887Z" fill="#C8E5F5"/>
<path d="M161.929 170.75H148.12C147.394 170.75 146.809 170.168 146.809 169.447C146.809 168.725 147.394 168.143 148.12 168.143H161.929C162.655 168.143 163.24 168.725 163.24 169.447C163.24 170.162 162.655 170.75 161.929 170.75Z" fill="#C8E5F5"/>
<path d="M183.007 170.75H169.197C168.472 170.75 167.886 170.168 167.886 169.447C167.886 168.725 168.472 168.143 169.197 168.143H183.007C183.732 168.143 184.318 168.725 184.318 169.447C184.323 170.162 183.732 170.75 183.007 170.75Z" fill="#C8E5F5"/>
<path d="M179.788 67.4749C179.788 65.9156 181.064 64.6472 182.632 64.6472C184.2 64.6472 185.476 65.9156 185.476 67.4749C185.476 69.0342 184.2 70.3026 182.632 70.3026C181.064 70.3026 179.788 69.0342 179.788 67.4749Z" fill="#C8E5F5"/>
<path d="M154.358 101.023H131.051C130.068 101.023 129.266 100.226 129.266 99.2487C129.266 98.2712 130.068 97.4741 131.051 97.4741H154.358C155.341 97.4741 156.142 98.2712 156.142 99.2487C156.142 100.232 155.347 101.023 154.358 101.023Z" fill="#9DC9FC"/>
<path d="M168.132 110.542H131.057C130.074 110.542 129.272 109.745 129.272 108.767C129.272 107.79 130.074 106.993 131.057 106.993H168.132C169.115 106.993 169.917 107.79 169.917 108.767C169.917 109.751 169.115 110.542 168.132 110.542Z" fill="#9DC9FC"/>
<path d="M176.371 120.061H131.057C130.074 120.061 129.272 119.264 129.272 118.286C129.272 117.309 130.074 116.512 131.057 116.512H176.371C177.354 116.512 178.156 117.309 178.156 118.286C178.156 119.269 177.354 120.061 176.371 120.061Z" fill="#9DC9FC"/>
<path d="M160.268 129.58H131.051C130.068 129.58 129.266 128.782 129.266 127.805C129.266 126.827 130.068 126.03 131.051 126.03H160.268C161.251 126.03 162.053 126.827 162.053 127.805C162.053 128.782 161.257 129.58 160.268 129.58Z" fill="#9DC9FC"/>
<path d="M150.466 139.098H131.051C130.068 139.098 129.266 138.301 129.266 137.324C129.266 136.346 130.068 135.549 131.051 135.549H150.466C151.45 135.549 152.251 136.346 152.251 137.324C152.251 138.301 151.45 139.098 150.466 139.098Z" fill="#9DC9FC"/>
<path d="M165.903 148.617H131.051C130.068 148.617 129.266 147.82 129.266 146.842C129.266 145.865 130.068 145.068 131.051 145.068H165.903C166.886 145.068 167.688 145.865 167.688 146.842C167.688 147.82 166.892 148.617 165.903 148.617Z" fill="#9DC9FC"/>
<path d="M172.363 158.136H131.051C130.068 158.136 129.266 157.339 129.266 156.361C129.266 155.384 130.068 154.587 131.051 154.587H172.363C173.346 154.587 174.148 155.384 174.148 156.361C174.148 157.339 173.346 158.136 172.363 158.136Z" fill="#9DC9FC"/>
<path d="M165.464 95.9788V99.2487L168.513 101.023L173.258 95.1759V93.7853L168.513 98.341L165.464 95.9788Z" fill="#6AC65B"/>
<path d="M154.358 81.9916H131.051C130.068 81.9916 129.266 81.1945 129.266 80.217C129.266 79.2395 130.068 78.4424 131.051 78.4424H154.358C155.341 78.4424 156.142 79.2395 156.142 80.217C156.142 81.1945 155.347 81.9916 154.358 81.9916Z" fill="#9DC9FC"/>
<path d="M168.132 91.5104H131.057C130.074 91.5104 129.272 90.7132 129.272 89.7358C129.272 88.7583 130.074 87.9612 131.057 87.9612H168.132C169.115 87.9612 169.917 88.7583 169.917 89.7358C169.917 90.7132 169.115 91.5104 168.132 91.5104Z" fill="#9DC9FC"/>
<path d="M168.513 79.3094L165.464 76.9413V80.217L168.513 81.9916L173.258 76.1442V74.7478L168.513 79.3094Z" fill="#6AC65B"/>
<path d="M172.591 105.975V109.25L175.64 111.025L180.385 105.178V103.787L175.64 108.343L172.591 105.975Z" fill="#6AC65B"/>
<path d="M157.061 134.118V137.394L160.11 139.168L164.855 133.321V131.93L160.11 136.486L157.061 134.118Z" fill="#6AC65B"/>
<path d="M132.496 165.828H2.18251C1.22871 165.828 0.462158 165.06 0.462158 164.117V61.4239C0.462158 60.4755 1.23456 59.7133 2.18251 59.7133H132.496C133.45 59.7133 134.217 60.4813 134.217 61.4239V164.117C134.217 165.065 133.444 165.828 132.496 165.828Z" fill="white"/>
<path d="M132.496 166.287H2.18262C0.977207 166.287 0 165.316 0 164.117V61.4239C0 60.2253 0.977207 59.2536 2.18262 59.2536H132.496C133.702 59.2536 134.679 60.2253 134.679 61.4239V164.117C134.679 165.316 133.702 166.287 132.496 166.287ZM2.18262 60.1671C1.48629 60.1671 0.924543 60.7315 0.924543 61.4239V164.117C0.924543 164.809 1.49214 165.368 2.18262 165.368H132.496C133.193 165.368 133.76 164.804 133.76 164.117V61.4239C133.76 60.7315 133.193 60.1671 132.496 60.1671H2.18262Z" fill="black"/>
<path d="M132.496 60.1613H2.18845C1.47457 60.1613 0.895264 60.7373 0.895264 61.4471V86.8731H133.772V61.4297C133.772 60.7257 133.204 60.1613 132.496 60.1613Z" fill="#641E1F"/>
<path d="M19.8482 102.815C19.8482 103.671 19.1402 104.375 18.28 104.375H9.09311C8.23294 104.375 7.5249 103.671 7.5249 102.815V97.6894C7.5249 96.8341 8.22709 96.1301 9.09311 96.1301H18.28C19.1402 96.1301 19.8482 96.8341 19.8482 97.6894V102.815Z" fill="#B7D1FA"/>
<path d="M38.0055 102.786C38.0055 103.642 37.3033 104.346 36.4373 104.346H27.2503C26.3902 104.346 25.6821 103.642 25.6821 102.786V97.6603C25.6821 96.805 26.3902 96.101 27.2503 96.101H36.4373C37.2974 96.101 38.0055 96.7992 38.0055 97.6603V102.786Z" fill="#B7D1FA"/>
<path d="M56.1629 102.786C56.1629 103.642 55.4549 104.346 54.5947 104.346H45.4078C44.5476 104.346 43.8396 103.642 43.8396 102.786V97.6603C43.8396 96.805 44.5476 96.101 45.4078 96.101H54.5947C55.4549 96.101 56.1629 96.7992 56.1629 97.6603V102.786Z" fill="#B7D1FA"/>
<path d="M74.326 102.786C74.326 103.642 73.618 104.346 72.7578 104.346H63.5709C62.7107 104.346 62.0027 103.642 62.0027 102.786V97.6603C62.0027 96.805 62.7107 96.101 63.5709 96.101H72.7578C73.618 96.101 74.326 96.7992 74.326 97.6603V102.786Z" fill="#B7D1FA"/>
<path d="M92.4832 102.786C92.4832 103.642 91.7752 104.346 90.915 104.346H81.7281C80.8679 104.346 80.1599 103.642 80.1599 102.786V97.6603C80.1599 96.805 80.8679 96.101 81.7281 96.101H90.915C91.7752 96.101 92.4832 96.7992 92.4832 97.6603V102.786Z" fill="#B7D1FA"/>
<path d="M110.641 102.786C110.641 103.642 109.933 104.346 109.073 104.346H99.8856C99.0254 104.346 98.3174 103.642 98.3174 102.786V97.6603C98.3174 96.805 99.0254 96.101 99.8856 96.101H109.073C109.933 96.101 110.641 96.7992 110.641 97.6603V102.786Z" fill="#F45955"/>
<path d="M128.798 102.786C128.798 103.642 128.09 104.346 127.23 104.346H118.043C117.183 104.346 116.475 103.642 116.475 102.786V97.6603C116.475 96.805 117.183 96.101 118.043 96.101H127.23C128.09 96.101 128.798 96.7992 128.798 97.6603V102.786Z" fill="#F45955"/>
<path d="M19.8482 116.448C19.8482 117.303 19.1402 118.007 18.28 118.007H9.09311C8.23294 118.007 7.5249 117.303 7.5249 116.448V111.322C7.5249 110.466 8.22709 109.762 9.09311 109.762H18.28C19.1402 109.762 19.8482 110.466 19.8482 111.322V116.448Z" fill="#B7D1FA"/>
<path d="M38.0055 116.448C38.0055 117.303 37.3033 118.007 36.4373 118.007H27.2503C26.3902 118.007 25.6821 117.303 25.6821 116.448V111.322C25.6821 110.466 26.3902 109.762 27.2503 109.762H36.4373C37.2974 109.762 38.0055 110.466 38.0055 111.322V116.448Z" fill="#B7D1FA"/>
<path d="M56.1629 116.448C56.1629 117.303 55.4549 118.007 54.5947 118.007H45.4078C44.5476 118.007 43.8396 117.303 43.8396 116.448V111.322C43.8396 110.466 44.5476 109.762 45.4078 109.762H54.5947C55.4549 109.762 56.1629 110.466 56.1629 111.322V116.448Z" fill="#B7D1FA"/>
<path d="M74.326 116.448C74.326 117.303 73.618 118.007 72.7578 118.007H63.5709C62.7107 118.007 62.0027 117.303 62.0027 116.448V111.322C62.0027 110.466 62.7107 109.762 63.5709 109.762H72.7578C73.618 109.762 74.326 110.466 74.326 111.322V116.448Z" fill="#B7D1FA"/>
<path d="M92.4832 116.448C92.4832 117.303 91.7752 118.007 90.915 118.007H81.7281C80.8679 118.007 80.1599 117.303 80.1599 116.448V111.322C80.1599 110.466 80.8679 109.762 81.7281 109.762H90.915C91.7752 109.762 92.4832 110.466 92.4832 111.322V116.448Z" fill="#B7D1FA"/>
<path d="M110.641 116.448C110.641 117.303 109.933 118.007 109.073 118.007H99.8856C99.0254 118.007 98.3174 117.303 98.3174 116.448V111.322C98.3174 110.466 99.0254 109.762 99.8856 109.762H109.073C109.933 109.762 110.641 110.466 110.641 111.322V116.448Z" fill="#F45955"/>
<path d="M128.798 116.448C128.798 117.303 128.09 118.007 127.23 118.007H118.043C117.183 118.007 116.475 117.303 116.475 116.448V111.322C116.475 110.466 117.183 109.762 118.043 109.762H127.23C128.09 109.762 128.798 110.466 128.798 111.322V116.448Z" fill="#F45955"/>
<path d="M19.8482 130.109C19.8482 130.964 19.1402 131.668 18.28 131.668H9.09311C8.23294 131.668 7.5249 130.964 7.5249 130.109V124.983C7.5249 124.128 8.22709 123.424 9.09311 123.424H18.28C19.1402 123.424 19.8482 124.128 19.8482 124.983V130.109Z" fill="#B7D1FA"/>
<path d="M38.0055 130.109C38.0055 130.964 37.3033 131.668 36.4373 131.668H27.2503C26.3902 131.668 25.6821 130.964 25.6821 130.109V124.983C25.6821 124.128 26.3902 123.424 27.2503 123.424H36.4373C37.2974 123.424 38.0055 124.128 38.0055 124.983V130.109Z" fill="#B7D1FA"/>
<path d="M56.1629 130.109C56.1629 130.964 55.4549 131.668 54.5947 131.668H45.4078C44.5476 131.668 43.8396 130.964 43.8396 130.109V124.983C43.8396 124.128 44.5476 123.424 45.4078 123.424H54.5947C55.4549 123.424 56.1629 124.128 56.1629 124.983V130.109Z" fill="#B7D1FA"/>
<path d="M74.326 130.109C74.326 130.964 73.618 131.668 72.7578 131.668H63.5709C62.7107 131.668 62.0027 130.964 62.0027 130.109V124.983C62.0027 124.128 62.7107 123.424 63.5709 123.424H72.7578C73.618 123.424 74.326 124.128 74.326 124.983V130.109Z" fill="#B7D1FA"/>
<path d="M92.4832 130.109C92.4832 130.964 91.7752 131.668 90.915 131.668H81.7281C80.8679 131.668 80.1599 130.964 80.1599 130.109V124.983C80.1599 124.128 80.8679 123.424 81.7281 123.424H90.915C91.7752 123.424 92.4832 124.128 92.4832 124.983V130.109Z" fill="#B7D1FA"/>
<path d="M110.641 130.109C110.641 130.964 109.933 131.668 109.073 131.668H99.8856C99.0254 131.668 98.3174 130.964 98.3174 130.109V124.983C98.3174 124.128 99.0254 123.424 99.8856 123.424H109.073C109.933 123.424 110.641 124.128 110.641 124.983V130.109Z" fill="#F45955"/>
<path d="M128.798 130.109C128.798 130.964 128.09 131.668 127.23 131.668H118.043C117.183 131.668 116.475 130.964 116.475 130.109V124.983C116.475 124.128 117.183 123.424 118.043 123.424H127.23C128.09 123.424 128.798 124.128 128.798 124.983V130.109Z" fill="#F45955"/>
<path d="M19.8482 143.77C19.8482 144.626 19.1402 145.33 18.28 145.33H9.09311C8.23294 145.33 7.5249 144.626 7.5249 143.77V138.644C7.5249 137.789 8.22709 137.085 9.09311 137.085H18.28C19.1402 137.085 19.8482 137.789 19.8482 138.644V143.77Z" fill="#B7D1FA"/>
<path d="M38.0057 143.77C38.0057 144.626 37.3035 145.33 36.4375 145.33H27.2506C26.3904 145.33 25.6824 144.626 25.6824 143.77V138.644C25.6824 137.789 26.3904 137.085 27.2506 137.085H36.4375C37.2977 137.085 38.0057 137.789 38.0057 138.644V143.77Z" fill="#B7D1FA"/>
<path d="M56.1629 143.77C56.1629 144.626 55.4549 145.33 54.5947 145.33H45.4078C44.5476 145.33 43.8396 144.626 43.8396 143.77V138.644C43.8396 137.789 44.5476 137.085 45.4078 137.085H54.5947C55.4549 137.085 56.1629 137.789 56.1629 138.644V143.77Z" fill="#B7D1FA"/>
<path d="M21.5628 107.842H5.81047C4.9737 107.842 4.29492 107.167 4.29492 106.341V94.1809C4.29492 93.3489 4.9737 92.6798 5.81047 92.6798H21.557C22.3937 92.6798 23.0667 93.3547 23.0667 94.1809V106.341C23.0725 107.167 22.3937 107.842 21.5628 107.842ZM5.81047 93.826C5.61737 93.826 5.45938 93.9831 5.45938 94.1751V106.335C5.45938 106.527 5.61737 106.684 5.81047 106.684H21.557C21.7501 106.684 21.908 106.527 21.908 106.335V94.1751C21.908 93.9831 21.7501 93.826 21.557 93.826H5.81047Z" fill="#FDFDFD"/>
<path d="M74.326 143.77C74.326 144.626 73.618 145.33 72.7578 145.33H63.5709C62.7107 145.33 62.0027 144.626 62.0027 143.77V138.644C62.0027 137.789 62.7107 137.085 63.5709 137.085H72.7578C73.618 137.085 74.326 137.789 74.326 138.644V143.77Z" fill="#B7D1FA"/>
<path d="M92.4835 143.77C92.4835 144.626 91.7754 145.33 90.9153 145.33H81.7284C80.8682 145.33 80.1602 144.626 80.1602 143.77V138.644C80.1602 137.789 80.8682 137.085 81.7284 137.085H90.9153C91.7754 137.085 92.4835 137.789 92.4835 138.644V143.77Z" fill="#B7D1FA"/>
<path d="M110.641 143.77C110.641 144.626 109.933 145.33 109.073 145.33H99.8856C99.0254 145.33 98.3174 144.626 98.3174 143.77V138.644C98.3174 137.789 99.0254 137.085 99.8856 137.085H109.073C109.933 137.085 110.641 137.789 110.641 138.644V143.77Z" fill="#F45955"/>
<path d="M128.798 143.77C128.798 144.626 128.09 145.33 127.23 145.33H118.043C117.183 145.33 116.475 144.626 116.475 143.77V138.644C116.475 137.789 117.183 137.085 118.043 137.085H127.23C128.09 137.085 128.798 137.789 128.798 138.644V143.77Z" fill="#F45955"/>
<path d="M19.8482 157.432C19.8482 158.287 19.1402 158.991 18.28 158.991H9.09311C8.23294 158.991 7.5249 158.287 7.5249 157.432V152.306C7.5249 151.451 8.22709 150.747 9.09311 150.747H18.28C19.1402 150.747 19.8482 151.445 19.8482 152.306V157.432Z" fill="#B7D1FA"/>
<path d="M38.0055 157.432C38.0055 158.287 37.3033 158.991 36.4373 158.991H27.2503C26.3902 158.991 25.6821 158.287 25.6821 157.432V152.306C25.6821 151.451 26.3902 150.747 27.2503 150.747H36.4373C37.2974 150.747 38.0055 151.445 38.0055 152.306V157.432Z" fill="#B7D1FA"/>
<path d="M56.1629 157.432C56.1629 158.287 55.4549 158.991 54.5947 158.991H45.4078C44.5476 158.991 43.8396 158.287 43.8396 157.432V152.306C43.8396 151.451 44.5476 150.747 45.4078 150.747H54.5947C55.4549 150.747 56.1629 151.445 56.1629 152.306V157.432Z" fill="#B7D1FA"/>
<path d="M74.326 157.432C74.326 158.287 73.618 158.991 72.7578 158.991H63.5709C62.7107 158.991 62.0027 158.287 62.0027 157.432V152.306C62.0027 151.451 62.7107 150.747 63.5709 150.747H72.7578C73.618 150.747 74.326 151.445 74.326 152.306V157.432Z" fill="#B7D1FA"/>
<path d="M92.4832 157.432C92.4832 158.287 91.7752 158.991 90.915 158.991H81.7281C80.8679 158.991 80.1599 158.287 80.1599 157.432V152.306C80.1599 151.451 80.8679 150.747 81.7281 150.747H90.915C91.7752 150.747 92.4832 151.445 92.4832 152.306V157.432Z" fill="#B7D1FA"/>
<path d="M110.641 157.432C110.641 158.287 109.933 158.991 109.073 158.991H99.8856C99.0254 158.991 98.3174 158.287 98.3174 157.432V152.306C98.3174 151.451 99.0254 150.747 99.8856 150.747H109.073C109.933 150.747 110.641 151.445 110.641 152.306V157.432Z" fill="#F45955"/>
<path d="M128.798 157.432C128.798 158.287 128.09 158.991 127.23 158.991H118.043C117.183 158.991 116.475 158.287 116.475 157.432V152.306C116.475 151.451 117.183 150.747 118.043 150.747H127.23C128.09 150.747 128.798 151.445 128.798 152.306V157.432Z" fill="#F45955"/>
<path d="M55.0923 81.6367H8.59598C8.00497 81.6367 7.52515 81.1596 7.52515 80.5719V75.6729C7.52515 75.0853 8.00497 74.6082 8.59598 74.6082H55.0981C55.6891 74.6082 56.169 75.0853 56.169 75.6729V80.5719C56.1631 81.1596 55.6833 81.6367 55.0923 81.6367Z" fill="white"/>
<path d="M127.651 81.6367H99.4701C98.8382 81.6367 98.3232 81.1247 98.3232 80.4963V75.7544C98.3232 75.126 98.8382 74.614 99.4701 74.614H127.651C128.283 74.614 128.798 75.126 128.798 75.7544V80.4963C128.798 81.1247 128.289 81.6367 127.651 81.6367Z" fill="white"/>
<path d="M57.1703 96.0555L45.0588 93.3356L42.8364 103.12L54.9479 105.839L57.1703 96.0555Z" fill="#FCCD56"/>
<path d="M55.1455 97.4809L46.2759 95.489L46.0052 96.6808L54.8748 98.6727L55.1455 97.4809Z" fill="white"/>
<path d="M54.5801 99.991L47.6055 98.4247L47.3348 99.6165L54.3094 101.183L54.5801 99.991Z" fill="white"/>
<path d="M51.9081 102.028L45.1389 100.508L44.8682 101.699L51.6374 103.22L51.9081 102.028Z" fill="white"/>
<path d="M55.0805 97.0843C55.0805 97.8058 54.4895 98.3934 53.7639 98.3934C53.0383 98.3934 52.4473 97.8058 52.4473 97.0843C52.4473 96.3628 53.0383 95.7752 53.7639 95.7752C54.4953 95.781 55.0805 96.3628 55.0805 97.0843Z" fill="#F45955"/>
<path d="M38.0995 133.361C34.1204 133.885 30.1414 134.415 26.1623 134.938C25.7293 131.721 26.0102 128.416 25.5947 125.204C29.5738 124.681 33.5528 124.151 37.5319 123.627C37.959 126.839 37.6781 130.144 38.0995 133.361Z" fill="#FCCD56"/>
<path d="M35.9928 128.538C33.0788 128.922 30.1647 129.312 27.2448 129.696C27.2272 129.3 27.2097 128.905 27.1863 128.509C30.1003 128.125 33.0144 127.735 35.9285 127.351C35.9577 127.747 35.9811 128.142 35.9928 128.538Z" fill="white"/>
<path d="M36.0924 131.046C33.8922 131.342 31.692 131.633 29.4919 131.93C29.4743 131.534 29.4509 131.139 29.4333 130.743C31.6335 130.446 33.8337 130.156 36.0339 129.859C36.0514 130.254 36.0748 130.65 36.0924 131.046Z" fill="white"/>
<path d="M36.4962 126.147C36.2271 126.793 35.4781 127.101 34.8285 126.833C34.179 126.566 33.8689 125.821 34.1381 125.175C34.4072 124.529 35.1562 124.221 35.8058 124.489C36.4553 124.756 36.7654 125.501 36.4962 126.147Z" fill="#F45955"/>
<path d="M14.3947 99.8305H12.9786C12.6626 99.8305 12.4051 99.5862 12.3876 99.2778L11.8258 92.2202C11.8024 91.9293 12.0365 91.6791 12.3291 91.6791H15.0442C15.3368 91.6791 15.5708 91.9293 15.5474 92.2202L14.9857 99.2778C14.9681 99.5862 14.7048 99.8305 14.3947 99.8305Z" fill="#F45955"/>
<path d="M14.9799 101.844C14.9799 102.553 14.4006 103.13 13.6867 103.13C12.9729 103.13 12.3936 102.553 12.3936 101.844C12.3936 101.134 12.9729 100.558 13.6867 100.558C14.4006 100.552 14.9799 101.134 14.9799 101.844Z" fill="#F45955"/>
<path d="M14.8747 67.0153C14.8747 69.0342 13.2304 70.6692 11.1999 70.6692C9.16943 70.6692 7.52515 69.0342 7.52515 67.0153C7.52515 64.9963 9.16943 63.3614 11.1999 63.3614C13.2304 63.3614 14.8747 64.9963 14.8747 67.0153Z" fill="#411011"/>
<path d="M33.863 67.0153C33.863 69.0342 32.2187 70.6692 30.1882 70.6692C28.1577 70.6692 26.5134 69.0342 26.5134 67.0153C26.5134 64.9963 28.1577 63.3614 30.1882 63.3614C32.2187 63.3614 33.863 64.9963 33.863 67.0153Z" fill="#411011"/>
<path d="M52.8512 67.0153C52.8512 69.0342 51.207 70.6692 49.1765 70.6692C47.146 70.6692 45.5017 69.0342 45.5017 67.0153C45.5017 64.9963 47.146 63.3614 49.1765 63.3614C51.207 63.3614 52.8512 64.9963 52.8512 67.0153Z" fill="#411011"/>
<path d="M71.8393 67.0153C71.8393 69.0342 70.195 70.6692 68.1645 70.6692C66.134 70.6692 64.4897 69.0342 64.4897 67.0153C64.4897 64.9963 66.134 63.3614 68.1645 63.3614C70.195 63.3614 71.8393 64.9963 71.8393 67.0153Z" fill="#411011"/>
<path d="M90.8276 67.0153C90.8276 69.0342 89.1833 70.6692 87.1528 70.6692C85.1223 70.6692 83.478 69.0342 83.478 67.0153C83.478 64.9963 85.1223 63.3614 87.1528 63.3614C89.1833 63.3614 90.8276 64.9963 90.8276 67.0153Z" fill="#411011"/>
<path d="M109.816 67.0153C109.816 69.0342 108.172 70.6692 106.141 70.6692C104.111 70.6692 102.466 69.0342 102.466 67.0153C102.466 64.9963 104.111 63.3614 106.141 63.3614C108.166 63.3614 109.816 64.9963 109.816 67.0153Z" fill="#411011"/>
<path d="M128.798 67.0153C128.798 69.0342 127.154 70.6692 125.123 70.6692C123.093 70.6692 121.449 69.0342 121.449 67.0153C121.449 64.9963 123.093 63.3614 125.123 63.3614C127.154 63.3614 128.798 64.9963 128.798 67.0153Z" fill="#411011"/>
<path d="M11.1999 69.0691C9.98281 69.0691 8.9939 68.0858 8.9939 66.8756V47.1399C8.9939 45.9297 9.98281 44.9464 11.1999 44.9464C12.417 44.9464 13.406 45.9297 13.406 47.1399V66.8756C13.406 68.0858 12.417 69.0691 11.1999 69.0691Z" fill="#292B2E"/>
<path d="M30.1882 69.0691C28.9711 69.0691 27.9822 68.0858 27.9822 66.8756V47.1399C27.9822 45.9297 28.9711 44.9464 30.1882 44.9464C31.4053 44.9464 32.3942 45.9297 32.3942 47.1399V66.8756C32.3942 68.0858 31.4053 69.0691 30.1882 69.0691Z" fill="#292B2E"/>
<path d="M49.1765 69.0691C47.9594 69.0691 46.9705 68.0858 46.9705 66.8756V47.1399C46.9705 45.9297 47.9594 44.9464 49.1765 44.9464C50.3936 44.9464 51.3825 45.9297 51.3825 47.1399V66.8756C51.3825 68.0858 50.3936 69.0691 49.1765 69.0691Z" fill="#292B2E"/>
<path d="M68.1645 69.0691C66.9474 69.0691 65.9585 68.0858 65.9585 66.8756V47.1399C65.9585 45.9297 66.9474 44.9464 68.1645 44.9464C69.3816 44.9464 70.3706 45.9297 70.3706 47.1399V66.8756C70.3706 68.0858 69.3816 69.0691 68.1645 69.0691Z" fill="#292B2E"/>
<path d="M87.1528 69.0691C85.9357 69.0691 84.9468 68.0858 84.9468 66.8756V47.1399C84.9468 45.9297 85.9357 44.9464 87.1528 44.9464C88.3699 44.9464 89.3588 45.9297 89.3588 47.1399V66.8756C89.3588 68.0858 88.3699 69.0691 87.1528 69.0691Z" fill="#292B2E"/>
<path d="M106.141 69.0691C104.924 69.0691 103.935 68.0858 103.935 66.8756V47.1399C103.935 45.9297 104.924 44.9464 106.141 44.9464C107.358 44.9464 108.347 45.9297 108.347 47.1399V66.8756C108.347 68.0858 107.358 69.0691 106.141 69.0691Z" fill="#292B2E"/>
<path d="M125.124 69.0691C123.906 69.0691 122.917 68.0858 122.917 66.8756V47.1399C122.917 45.9297 123.906 44.9464 125.124 44.9464C126.341 44.9464 127.33 45.9297 127.33 47.1399V66.8756C127.33 68.0858 126.346 69.0691 125.124 69.0691Z" fill="#292B2E"/>
<g opacity="0.5">
<path d="M11.1999 57.0078C9.98281 57.0078 8.9939 56.6121 8.9939 56.1234V48.1465C8.9939 47.6578 9.98281 47.2621 11.1999 47.2621C12.417 47.2621 13.406 47.6578 13.406 48.1465V56.1234C13.406 56.6121 12.417 57.0078 11.1999 57.0078Z" fill="#464444"/>
<path d="M30.1882 57.0078C28.9711 57.0078 27.9822 56.6121 27.9822 56.1234V48.1465C27.9822 47.6578 28.9711 47.2621 30.1882 47.2621C31.4053 47.2621 32.3942 47.6578 32.3942 48.1465V56.1234C32.3942 56.6121 31.4053 57.0078 30.1882 57.0078Z" fill="#464444"/>
<path d="M49.1765 57.0078C47.9594 57.0078 46.9705 56.6121 46.9705 56.1234V48.1465C46.9705 47.6578 47.9594 47.2621 49.1765 47.2621C50.3936 47.2621 51.3825 47.6578 51.3825 48.1465V56.1234C51.3825 56.6121 50.3936 57.0078 49.1765 57.0078Z" fill="#464444"/>
<path d="M68.1645 57.0078C66.9474 57.0078 65.9585 56.6121 65.9585 56.1234V48.1465C65.9585 47.6578 66.9474 47.2621 68.1645 47.2621C69.3816 47.2621 70.3706 47.6578 70.3706 48.1465V56.1234C70.3706 56.6121 69.3816 57.0078 68.1645 57.0078Z" fill="#464444"/>
<path d="M87.1528 57.0078C85.9357 57.0078 84.9468 56.6121 84.9468 56.1234V48.1465C84.9468 47.6578 85.9357 47.2621 87.1528 47.2621C88.3699 47.2621 89.3588 47.6578 89.3588 48.1465V56.1234C89.3588 56.6121 88.3699 57.0078 87.1528 57.0078Z" fill="#464444"/>
<path d="M106.141 57.0078C104.924 57.0078 103.935 56.6121 103.935 56.1234V48.1465C103.935 47.6578 104.924 47.2621 106.141 47.2621C107.358 47.2621 108.347 47.6578 108.347 48.1465V56.1234C108.347 56.6121 107.358 57.0078 106.141 57.0078Z" fill="#464444"/>
<path d="M125.124 57.0078C123.906 57.0078 122.917 56.6121 122.917 56.1234V48.1465C122.917 47.6578 123.906 47.2621 125.124 47.2621C126.341 47.2621 127.33 47.6578 127.33 48.1465V56.1234C127.33 56.6121 126.346 57.0078 125.124 57.0078Z" fill="#464444"/>
</g>
<path d="M71.0143 127.851L68.0535 125.553V128.736L71.0143 130.458L75.6195 124.779V123.43L71.0143 127.851Z" fill="#67A846"/>
<path d="M89.2827 155.174L86.3218 152.876V156.059L89.2827 157.781L93.8878 152.102V150.747L89.2827 155.174Z" fill="#67A846"/>
<path d="M15.5945 155.122L11.2058 151.712V156.431L15.5945 158.991L22.4349 150.56V148.553L15.5945 155.122Z" fill="#F45955"/>
<path d="M50.3641 149.071C47.5261 149.071 44.1732 147.785 42.055 144.096C41.9145 143.846 41.9964 143.532 42.248 143.386C42.4938 143.247 42.8156 143.328 42.9619 143.578C45.1621 147.407 48.8369 148.344 51.5461 147.942C54.074 147.564 56.0518 146.069 56.4731 144.213C57.4328 139.988 54.7294 136.637 51.6983 135.625C48.8544 134.676 44.9983 135.479 42.6928 140.564C42.5699 140.826 42.2598 140.943 42.0023 140.826C41.739 140.71 41.6219 140.402 41.739 140.14C44.3312 134.415 48.9012 133.6 52.026 134.641C55.4901 135.793 58.5855 139.622 57.4854 144.439C56.9647 146.744 54.6884 148.524 51.6924 148.972C51.277 149.036 50.8264 149.071 50.3641 149.071Z" fill="#45752D"/>
<path d="M67.831 147.541C65.1451 147.541 62.4768 146.691 61.0081 145.155C59.6213 143.706 59.4048 141.792 60.3995 139.773C61.8624 136.818 65.0339 135.119 67.2751 135.014C68.3459 134.961 69.1651 135.293 69.563 135.939C69.7152 136.183 69.6332 136.503 69.3875 136.655C69.1417 136.806 68.8199 136.73 68.6677 136.48C68.4805 136.177 67.9831 136.015 67.3219 136.049C65.3499 136.137 62.5763 137.725 61.3416 140.227C60.5283 141.874 60.6745 143.287 61.7688 144.434C63.7583 146.505 68.5039 147.133 71.7339 145.754C73.2904 145.091 75.1103 143.706 74.9581 140.896C74.8879 139.628 74.3437 139.325 73.5187 138.871C72.9277 138.546 72.2606 138.179 71.7339 137.394C71.5759 137.155 71.6403 136.835 71.8802 136.672C72.1201 136.515 72.442 136.579 72.6058 136.818C72.992 137.388 73.4953 137.667 74.0277 137.964C74.9055 138.447 75.9061 138.999 76.0056 140.844C76.146 143.497 74.7767 145.58 72.1494 146.709C70.8387 147.273 69.3348 147.541 67.831 147.541Z" fill="#45752D"/>
<path d="M85.5611 106.859C83.3901 106.859 81.2543 106.399 79.7154 105.463C78.1589 104.508 77.4625 103.141 77.761 101.605C77.8136 101.32 78.0945 101.145 78.3754 101.192C78.6563 101.244 78.8435 101.518 78.7908 101.803C78.5743 102.914 79.0717 103.845 80.2713 104.578C83.0273 106.266 88.955 106.359 91.9392 104.06C93.3787 102.955 93.8293 101.477 93.2792 99.6793C92.9164 98.504 92.1967 97.6487 91.1317 97.1425C88.7794 96.0195 85.1515 96.7352 82.764 97.6894C82.4949 97.7941 82.1906 97.6661 82.0853 97.3985C81.9799 97.1308 82.1087 96.8283 82.3778 96.7236C85.0871 95.6414 88.9315 94.9432 91.5823 96.2057C92.9223 96.8457 93.8293 97.9105 94.2799 99.3767C94.9645 101.599 94.3735 103.502 92.5771 104.881C90.8801 106.184 88.2001 106.859 85.5611 106.859Z" fill="#F86159"/>
<path d="M51.1835 156.606C51.1835 156.606 50.3175 164.495 49.8201 165.612C49.3227 166.729 44.6064 168.143 44.6064 168.143L29.5269 167.079C29.5269 167.079 27.8534 164.495 27.6018 163.279C27.356 162.063 27.0459 157.1 27.0459 157.1L51.1835 156.606Z" fill="white"/>
<path d="M39.9955 177.767C42.2776 179.512 47.1168 184.266 47.9536 185.668C48.7904 187.076 50.8442 193.529 50.7272 196.269C50.6102 199.004 26.9641 197.904 26.8705 196.269C26.7769 194.634 28.6845 187.99 30.5921 185.366C32.4997 182.741 37.0639 178.11 37.9943 177.767C38.9247 177.424 39.9955 177.767 39.9955 177.767Z" fill="white"/>
<path d="M35.0684 192.179C36.5781 191.486 38.158 190.777 39.8901 190.701C42.2365 190.602 44.4191 191.696 46.1863 192.964C47.7136 194.058 49.0828 195.315 50.733 196.269H26.1624C29.1291 194.907 32.1017 193.546 35.0684 192.179Z" fill="#F9C33A"/>
<path d="M40.9609 176.807C40.7503 176.911 40.6157 177.069 40.5396 177.237C40.0773 177.365 38.7373 177.453 37.134 176.842C37.1165 176.83 37.0989 176.813 37.0755 176.801C33.2076 174.823 30.1707 170.296 28.9243 164.617C33.3715 164.792 35.2791 165.758 39.697 166.241C43.5941 166.665 45.2911 166.683 48.9073 165.502C47.5439 170.767 44.624 174.927 40.9609 176.807Z" fill="#F9C33A"/>
<path d="M40.6214 176.778C39.6384 179.25 39.5974 182.34 39.574 183.62C39.4628 190.171 40.4576 190.294 41.4699 190.806C43.436 191.801 34.7465 192.499 37.6781 191.114C39.5799 190.218 38.8835 178.081 37.5845 176.993C35.004 174.84 40.6214 176.778 40.6214 176.778Z" fill="#F9C33A"/>
<path d="M40.0302 178.273C39.4977 177.935 39.4977 177.138 40.0302 176.801C44.1614 174.183 49.6501 167.119 49.6501 158.805H52.178C52.178 167.113 46.0749 174.183 40.9665 176.801C40.3052 177.138 40.3052 177.935 40.9665 178.273C46.0807 180.891 52.178 187.955 52.178 196.269H49.6501C49.6501 187.96 44.1614 180.891 40.0302 178.273Z" fill="#7D7D7D"/>
<path d="M37.0753 178.273C37.7365 177.935 37.7365 177.138 37.0753 176.801C31.9611 174.183 25.8638 167.119 25.8638 158.805H28.3916C28.3916 167.113 33.8804 174.183 38.0116 176.801C38.544 177.138 38.544 177.935 38.0116 178.273C33.8804 180.891 28.3916 187.955 28.3916 196.269H25.8638C25.8638 187.96 31.9669 180.891 37.0753 178.273Z" fill="#7D7D7D"/>
<path d="M24.1376 202H53.6879C54.1267 202 54.4837 201.645 54.4837 201.209V196.7C54.4837 196.263 54.1267 195.908 53.6879 195.908H24.1376C23.6987 195.908 23.3418 196.263 23.3418 196.7V201.209C23.3418 201.645 23.6987 202 24.1376 202Z" fill="#38393D"/>
<path d="M24.1376 159.59H53.6879C54.1267 159.59 54.4837 159.235 54.4837 158.799V154.29C54.4837 153.854 54.1267 153.499 53.6879 153.499H24.1376C23.6987 153.499 23.3418 153.854 23.3418 154.29V158.799C23.3418 159.235 23.6987 159.59 24.1376 159.59Z" fill="#38393D"/>
</g>
<defs>
<clipPath id="clip0_406_8596">
<rect width="191" height="202" fill="white"/>
</clipPath>
</defs>
</svg>
