<svg width="550" height="545" viewBox="0 0 550 545" fill="none" xmlns="http://www.w3.org/2000/svg">
<g clip-path="url(#clip0_437_158)">
<path fill-rule="evenodd" clip-rule="evenodd" d="M494.724 180.616L494.089 185.812L499.028 187.232C499.087 188.217 499.216 189.191 499.44 190.153L495.089 192.874L497.147 197.695L502.133 196.463C502.674 197.284 503.273 198.07 503.944 198.798L501.557 203.314L505.755 206.457L509.459 202.903C510.353 203.349 511.258 203.724 512.199 204.018L512.387 209.132L517.596 209.765L519.019 204.85C519.995 204.792 520.971 204.627 521.936 204.416L524.676 208.768L529.509 206.715L528.274 201.742C529.097 201.202 529.885 200.592 530.614 199.924L535.141 202.317L538.293 198.129L534.73 194.434C535.177 193.543 535.541 192.628 535.835 191.701L540.974 191.513L541.609 186.317L536.658 184.897C536.6 183.912 536.47 182.95 536.247 181.988L540.598 179.255L538.54 174.434L533.554 175.666C533.013 174.845 532.413 174.059 531.743 173.332L534.13 168.816L529.932 165.672L526.228 169.226C525.334 168.78 524.429 168.405 523.488 168.112L523.3 163.009L518.09 162.376L516.667 167.291C515.691 167.349 514.715 167.502 513.751 167.725L511.011 163.373L506.178 165.426L507.413 170.387C506.59 170.927 505.802 171.537 505.073 172.206L500.545 169.813L497.394 173.989L500.957 177.683C500.51 178.575 500.134 179.49 499.851 180.417L494.724 180.616ZM525.428 191.771C522.265 195.959 516.303 196.804 512.105 193.648C507.907 190.493 507.06 184.546 510.223 180.358C513.387 176.17 519.349 175.326 523.547 178.481C527.745 181.637 528.591 187.584 525.428 191.771Z" fill="white"/>
<path d="M518.008 210.399L511.799 209.648L511.599 204.451C510.917 204.217 510.235 203.935 509.541 203.607L505.778 207.231L500.78 203.478L503.215 198.88C502.744 198.34 502.297 197.765 501.851 197.12L496.782 198.375L494.336 192.639L498.758 189.871C498.617 189.167 498.511 188.428 498.452 187.689L493.443 186.235L494.195 180.041L499.416 179.842C499.652 179.15 499.934 178.469 500.251 177.789L496.618 174.035L500.381 169.05L504.99 171.49C505.543 170.997 506.131 170.54 506.742 170.129L505.484 165.074L511.235 162.634L514.022 167.068C514.786 166.915 515.503 166.81 516.209 166.739L517.655 161.73L523.864 162.481L524.064 167.678C524.734 167.912 525.428 168.194 526.122 168.522L529.885 164.898L534.883 168.651L532.449 173.249C532.919 173.789 533.366 174.364 533.801 175.009L538.881 173.754L541.327 179.49L536.894 182.27C537.035 182.974 537.129 183.701 537.199 184.452L542.232 185.894L541.48 192.088L536.259 192.276C536.023 192.968 535.741 193.648 535.424 194.328L539.057 198.082L535.294 203.067L530.685 200.639C530.132 201.12 529.544 201.578 528.932 202L530.191 207.056L524.44 209.495L521.653 205.073C520.889 205.226 520.172 205.331 519.466 205.402L518.008 210.399ZM512.94 208.604L517.15 209.12L518.549 204.287L518.96 204.264C519.842 204.205 520.771 204.064 521.783 203.841L522.183 203.748L524.875 208.029L528.78 206.375L527.58 201.484L527.921 201.261C528.721 200.733 529.485 200.147 530.179 199.501L530.485 199.22L534.942 201.566L537.493 198.188L533.989 194.563L534.177 194.188C534.612 193.32 534.965 192.428 535.247 191.537L535.377 191.138L540.421 190.95L540.939 186.751L536.07 185.355L536.047 184.944C535.988 183.959 535.847 183.009 535.659 182.117L535.565 181.719L539.845 179.032L538.187 175.138L533.283 176.346L533.06 175.994C532.496 175.138 531.919 174.399 531.308 173.73L531.026 173.425L533.378 168.991L529.991 166.446L526.345 169.942L525.969 169.754C525.075 169.308 524.182 168.944 523.323 168.675L522.923 168.546L522.735 163.525L518.525 163.009L517.126 167.842L516.714 167.865C515.821 167.924 514.892 168.065 513.892 168.288L513.492 168.381L510.799 164.1L506.895 165.754L508.118 170.634L507.777 170.868C506.978 171.396 506.213 171.983 505.519 172.628L505.214 172.909L500.757 170.563L498.17 173.953L501.674 177.578L501.486 177.953C501.051 178.821 500.698 179.713 500.404 180.604L500.275 181.003L495.23 181.191L494.713 185.39L499.569 186.786L499.593 187.197C499.652 188.17 499.793 189.12 499.981 190.023L500.075 190.422L495.806 193.097L497.464 196.991L502.356 195.783L502.591 196.123C503.156 196.979 503.732 197.718 504.344 198.387L504.626 198.692L502.274 203.126L505.661 205.671L509.294 202.176L509.671 202.363C510.564 202.809 511.458 203.173 512.316 203.443L512.716 203.572L512.94 208.604ZM517.82 196.147C515.621 196.147 513.516 195.443 511.752 194.117C509.6 192.498 508.201 190.141 507.824 187.478C507.448 184.815 508.13 182.164 509.753 180.006C511.681 177.449 514.621 175.994 517.832 175.994C520.031 175.994 522.136 176.698 523.899 178.024C526.051 179.642 527.451 182 527.827 184.663C528.203 187.326 527.521 189.977 525.899 192.135C523.982 194.68 521.03 196.147 517.82 196.147ZM517.843 177.167C515.009 177.167 512.41 178.458 510.705 180.721C509.271 182.622 508.671 184.968 509 187.314C509.33 189.672 510.564 191.748 512.469 193.179C514.033 194.352 515.88 194.974 517.832 194.974C520.666 194.974 523.264 193.683 524.97 191.419C526.404 189.519 527.004 187.173 526.675 184.827C526.345 182.469 525.111 180.393 523.206 178.962C521.642 177.789 519.784 177.167 517.843 177.167Z" fill="#535A63"/>
<path fill-rule="evenodd" clip-rule="evenodd" d="M524.287 177.519C519.56 173.977 512.822 174.915 509.271 179.631C505.719 184.346 506.66 191.067 511.387 194.61C516.115 198.152 522.853 197.214 526.404 192.498C529.956 187.795 529.003 181.073 524.287 177.519ZM512.975 192.51C509.412 189.836 508.695 184.78 511.376 181.226C514.057 177.672 519.125 176.956 522.688 179.631C526.251 182.305 526.969 187.361 524.287 190.915C521.606 194.469 516.538 195.185 512.975 192.51Z" fill="#E7564D"/>
<path fill-rule="evenodd" clip-rule="evenodd" d="M455.859 196.616L455.707 200.733L459.681 201.519C459.799 202.281 459.963 203.044 460.199 203.783L456.965 206.211L458.893 209.859L462.715 208.557C463.197 209.167 463.715 209.742 464.291 210.269L462.715 213.964L466.219 216.158L468.889 213.12C469.618 213.413 470.359 213.648 471.111 213.812L471.605 217.812L475.733 217.964L476.521 214.011C477.285 213.894 478.038 213.706 478.779 213.472L481.224 216.709L484.882 214.786L483.576 210.973C484.188 210.492 484.764 209.965 485.293 209.39L489.009 210.962L491.208 207.466L488.163 204.803C488.457 204.076 488.68 203.337 488.845 202.586L492.855 202.094L493.007 197.976L489.033 197.19C488.915 196.428 488.751 195.666 488.515 194.938L491.749 192.51L489.821 188.862L485.987 190.164C485.505 189.554 484.988 188.979 484.411 188.452L485.987 184.757L482.483 182.563L479.813 185.601C479.084 185.308 478.343 185.073 477.591 184.909L477.097 180.909L472.969 180.757L472.181 184.71C471.417 184.827 470.665 185.015 469.924 185.237L467.478 182L463.821 183.935L465.126 187.748C464.514 188.229 463.938 188.757 463.409 189.331L459.693 187.759L457.494 191.255L460.54 193.918C460.246 194.645 460.022 195.384 459.846 196.135L455.859 196.616ZM480.695 203.325C478.496 206.821 473.875 207.877 470.371 205.683C466.866 203.489 465.808 198.88 468.007 195.384C470.206 191.888 474.827 190.833 478.332 193.026C481.836 195.22 482.894 199.83 480.695 203.325Z" fill="white"/>
<path d="M476.215 218.563L471.088 218.375L470.582 214.281C470.088 214.152 469.583 214 469.065 213.8L466.337 216.909L461.986 214.187L463.597 210.399C463.233 210.035 462.868 209.648 462.515 209.226L458.599 210.551L456.2 206.023L459.505 203.537C459.364 203.044 459.246 202.528 459.152 202L455.083 201.202L455.271 196.088L459.375 195.584C459.505 195.079 459.658 194.575 459.846 194.07L456.73 191.349L459.458 187.009L463.256 188.616C463.621 188.241 464.02 187.877 464.42 187.537L463.091 183.631L467.631 181.238L470.124 184.546C470.653 184.393 471.17 184.276 471.664 184.182L472.464 180.135L477.591 180.323L478.096 184.417C478.59 184.546 479.096 184.698 479.613 184.886L482.342 181.777L486.693 184.499L485.082 188.287C485.446 188.651 485.799 189.026 486.152 189.46L490.068 188.135L492.466 192.663L489.162 195.15C489.303 195.642 489.421 196.158 489.515 196.686L493.584 197.484L493.395 202.61L489.291 203.114C489.162 203.619 489.009 204.123 488.821 204.627L491.937 207.349L489.209 211.689L485.411 210.082C485.046 210.457 484.646 210.821 484.247 211.161L485.575 215.067L481.036 217.46L478.543 214.152C478.014 214.305 477.509 214.422 477.003 214.516L476.215 218.563ZM472.134 217.249L475.262 217.366L476.027 213.495L476.438 213.437C477.132 213.331 477.838 213.167 478.614 212.921L479.014 212.792L481.401 215.959L484.164 214.504L482.883 210.762L483.212 210.504C483.8 210.035 484.352 209.531 484.858 208.991L485.14 208.686L488.774 210.223L490.432 207.583L487.457 204.979L487.61 204.592C487.892 203.888 488.104 203.173 488.268 202.469L488.362 202.07L492.29 201.589L492.408 198.469L488.515 197.695L488.457 197.284C488.339 196.534 488.174 195.795 487.963 195.114L487.845 194.716L491.008 192.334L489.538 189.578L485.787 190.856L485.528 190.528C485.035 189.894 484.541 189.367 484.011 188.886L483.706 188.604L485.246 184.98L482.6 183.326L479.99 186.293L479.602 186.141C478.861 185.848 478.155 185.625 477.461 185.472L477.062 185.378L476.58 181.472L473.452 181.355L472.687 185.226L472.276 185.285C471.582 185.39 470.876 185.554 470.1 185.801L469.7 185.93L467.313 182.763L464.55 184.229L465.831 187.959L465.502 188.217C464.914 188.686 464.361 189.191 463.856 189.73L463.574 190.035L459.94 188.499L458.282 191.138L461.257 193.742L461.104 194.129C460.822 194.833 460.598 195.548 460.446 196.264L460.352 196.663L456.424 197.144L456.306 200.264L460.187 201.026L460.246 201.437C460.363 202.199 460.528 202.927 460.74 203.607L460.869 204.006L457.706 206.387L459.176 209.144L462.915 207.877L463.174 208.205C463.668 208.827 464.162 209.366 464.691 209.847L464.996 210.129L463.456 213.742L466.102 215.396L468.712 212.416L469.101 212.569C469.83 212.862 470.547 213.085 471.241 213.237L471.641 213.331L472.134 217.249ZM474.345 207.419C472.828 207.419 471.347 206.997 470.053 206.188C466.278 203.83 465.138 198.845 467.501 195.079C468.995 192.71 471.546 191.302 474.357 191.302C475.874 191.302 477.356 191.724 478.649 192.534C480.472 193.683 481.754 195.466 482.236 197.566C482.718 199.666 482.353 201.824 481.201 203.642C479.708 206.012 477.156 207.419 474.345 207.419ZM474.357 192.475C471.958 192.475 469.771 193.683 468.501 195.701C467.525 197.261 467.207 199.103 467.619 200.897C468.03 202.692 469.112 204.217 470.676 205.19C471.782 205.883 473.04 206.246 474.333 206.246C476.732 206.246 478.92 205.038 480.19 203.02C481.166 201.46 481.483 199.619 481.072 197.824C480.66 196.029 479.578 194.504 478.014 193.531C476.921 192.839 475.651 192.475 474.357 192.475Z" fill="#535A63"/>
<path fill-rule="evenodd" clip-rule="evenodd" d="M478.849 192.217C474.898 189.754 469.677 190.938 467.207 194.88C464.738 198.821 465.925 204.029 469.877 206.492C473.828 208.956 479.049 207.771 481.518 203.83C483.988 199.9 482.788 194.692 478.849 192.217ZM470.97 204.733C467.995 202.868 467.09 198.95 468.959 195.982C470.829 193.015 474.757 192.111 477.732 193.977C480.707 195.842 481.613 199.759 479.743 202.727C477.873 205.695 473.945 206.598 470.97 204.733Z" fill="#324051"/>
<path fill-rule="evenodd" clip-rule="evenodd" d="M453.178 147.42L452.955 153.484L458.799 154.634C458.964 155.76 459.211 156.874 459.552 157.953L454.801 161.519L457.647 166.88L463.268 164.968C463.973 165.859 464.738 166.704 465.596 167.49L463.28 172.933L468.43 176.158L472.346 171.689C473.416 172.112 474.51 172.464 475.615 172.71L476.333 178.587L482.412 178.809L483.565 172.991C484.682 172.827 485.787 172.546 486.893 172.205L490.479 176.956L495.853 174.117L493.936 168.51C494.842 167.807 495.677 167.021 496.453 166.188L501.921 168.499L505.155 163.361L500.675 159.455C501.098 158.387 501.439 157.297 501.686 156.194L507.589 155.467L507.813 149.402L501.956 148.253C501.792 147.127 501.545 146.024 501.204 144.933L505.966 141.355L503.121 135.995L497.488 137.907C496.782 137.015 496.018 136.171 495.171 135.385L497.488 129.942L492.337 126.716L488.421 131.185C487.351 130.763 486.258 130.411 485.152 130.165L484.423 124.288L478.343 124.065L477.191 129.883C476.074 130.048 474.968 130.329 473.863 130.669L470.276 125.919L464.902 128.757L466.819 134.364C465.914 135.068 465.079 135.854 464.303 136.687L458.835 134.376L455.601 139.514L460.081 143.42C459.658 144.499 459.317 145.578 459.07 146.681L453.178 147.42ZM489.715 157.285C486.481 162.423 479.684 163.983 474.522 160.757C469.371 157.531 467.807 150.751 471.041 145.602C474.275 140.464 481.072 138.904 486.234 142.13C491.396 145.367 492.949 152.147 489.715 157.285Z" fill="white"/>
<path d="M482.906 179.408L475.827 179.15L475.098 173.179C474.263 172.968 473.404 172.698 472.534 172.381L468.56 176.921L462.562 173.167L464.914 167.643C464.291 167.044 463.691 166.399 463.091 165.66L457.376 167.596L454.06 161.355L458.882 157.731C458.635 156.898 458.435 156.018 458.294 155.127L452.367 153.954L452.626 146.892L458.623 146.165C458.835 145.308 459.093 144.452 459.411 143.608L454.86 139.643L458.623 133.66L464.173 136.006C464.797 135.361 465.455 134.751 466.149 134.177L464.209 128.476L470.465 125.168L474.11 130.001C475.016 129.731 475.874 129.531 476.709 129.379L477.885 123.479L484.964 123.737L485.693 129.707C486.528 129.919 487.375 130.177 488.257 130.505L492.231 125.966L498.229 129.719L495.877 135.244C496.5 135.842 497.1 136.487 497.699 137.226L503.415 135.279L506.731 141.52L501.898 145.156C502.145 145.989 502.344 146.857 502.486 147.76L508.424 148.933L508.165 155.995L502.168 156.722C501.956 157.578 501.698 158.434 501.38 159.279L505.931 163.244L502.168 169.226L496.618 166.88C496.006 167.525 495.348 168.135 494.642 168.71L496.582 174.411L490.326 177.719L486.681 172.898C485.775 173.167 484.917 173.367 484.07 173.519L482.906 179.408ZM476.874 178.024L481.942 178.211L483.082 172.487L483.494 172.428C484.529 172.276 485.587 172.018 486.728 171.666L487.128 171.537L490.667 176.217L495.159 173.848L493.266 168.311L493.595 168.053C494.477 167.361 495.301 166.599 496.041 165.789L496.324 165.484L501.709 167.772L504.402 163.478L499.993 159.619L500.145 159.232C500.557 158.188 500.886 157.121 501.121 156.053L501.216 155.654L507.036 154.939L507.225 149.883L501.462 148.745L501.404 148.335C501.239 147.209 500.992 146.118 500.663 145.109L500.545 144.71L505.237 141.191L502.862 136.722L497.311 138.611L497.053 138.282C496.312 137.344 495.571 136.546 494.795 135.831L494.489 135.549L496.77 130.188L492.467 127.502L488.598 131.901L488.21 131.748C487.104 131.314 486.069 130.986 485.035 130.751L484.635 130.658L483.917 124.863L478.849 124.675L477.708 130.4L477.297 130.458C476.274 130.611 475.215 130.857 474.063 131.221L473.663 131.35L470.124 126.658L465.632 129.027L467.525 134.552L467.196 134.81C466.314 135.502 465.49 136.265 464.75 137.074L464.467 137.379L459.082 135.103L456.389 139.396L460.798 143.244L460.646 143.631C460.234 144.675 459.893 145.742 459.658 146.81L459.564 147.209L453.743 147.924L453.555 152.98L459.305 154.118L459.364 154.528C459.528 155.654 459.775 156.745 460.105 157.766L460.222 158.165L455.542 161.684L457.917 166.165L463.456 164.288L463.715 164.616C464.456 165.555 465.196 166.352 465.973 167.068L466.278 167.349L463.997 172.71L468.301 175.396L472.17 170.986L472.558 171.138C473.64 171.572 474.71 171.901 475.733 172.135L476.133 172.229L476.874 178.024ZM480.378 163.021C478.202 163.021 476.074 162.411 474.216 161.25C471.594 159.607 469.759 157.039 469.065 154.024C468.371 151.009 468.901 147.913 470.547 145.285C472.687 141.883 476.368 139.854 480.39 139.854C482.565 139.854 484.694 140.464 486.552 141.625C489.174 143.267 491.008 145.836 491.702 148.851C492.396 151.866 491.867 154.962 490.22 157.59C488.08 160.992 484.4 163.021 480.378 163.021ZM480.401 141.039C476.779 141.039 473.475 142.857 471.558 145.918C470.077 148.276 469.606 151.056 470.229 153.766C470.853 156.475 472.487 158.775 474.851 160.253C476.521 161.297 478.426 161.848 480.39 161.848C484.011 161.848 487.316 160.03 489.233 156.968C490.714 154.61 491.185 151.83 490.561 149.121C489.938 146.411 488.292 144.112 485.94 142.634C484.258 141.59 482.353 141.039 480.401 141.039Z" fill="#535A63"/>
<path fill-rule="evenodd" clip-rule="evenodd" d="M486.987 140.945C481.177 137.309 473.499 139.068 469.865 144.863C466.219 150.657 467.983 158.317 473.793 161.942C479.602 165.578 487.281 163.819 490.914 158.024C494.548 152.241 492.796 144.581 486.987 140.945ZM475.415 159.349C471.041 156.616 469.712 150.857 472.464 146.481C475.204 142.118 480.978 140.792 485.364 143.537C489.738 146.27 491.067 152.03 488.315 156.405C485.564 160.769 479.79 162.094 475.415 159.349Z" fill="#34AED6"/>
<path d="M319.409 458.142H225.51V499.209H319.409V458.142Z" fill="white"/>
<path d="M319.997 499.807H224.923V457.567H319.997V499.807ZM226.098 498.634H318.821V458.74H226.098V498.634Z" fill="#535A63"/>
<path d="M358.098 509.097H186.822C183.212 509.097 180.272 506.177 180.272 502.564C180.272 498.951 183.2 496.03 186.822 496.03H358.098C361.708 496.03 364.648 498.951 364.648 502.564C364.648 506.177 361.72 509.097 358.098 509.097Z" fill="#58595D"/>
<path d="M319.409 473.931H225.51V478.588H319.409V473.931Z" fill="#515962"/>
<path d="M472.552 458.517C472.552 463.925 468.154 468.312 462.733 468.312H82.1984C76.7773 468.312 72.3792 463.925 72.3792 458.517V205.687C72.3792 200.28 76.7773 195.893 82.1984 195.893H462.733C468.154 195.893 472.552 200.28 472.552 205.687V458.517Z" fill="#EFF0F2"/>
<path d="M82.1984 469.767C75.9776 469.767 70.9211 464.723 70.9211 458.517V205.687C70.9211 199.482 75.9776 194.438 82.1984 194.438H462.733C468.954 194.438 474.011 199.482 474.011 205.687V458.517C474.011 464.723 468.954 469.767 462.733 469.767H82.1984Z" fill="black"/>
<path d="M462.733 205.687H82.1984V456.899H462.733V205.687Z" fill="#B0D7EC"/>
<path d="M352.171 381.669C349.89 377.223 314.717 373.509 275.229 373.509C235.741 373.509 200.181 377.321 198.287 381.669L158.646 458.171H391.789L352.171 381.669Z" fill="#2B251F"/>
<path d="M291.822 360.712C291.822 356.079 293.045 351.797 295.103 348.325C291.61 339.07 284.037 332.642 275.241 332.642C266.445 332.642 258.872 339.07 255.379 348.325C257.437 351.797 258.66 356.079 258.66 360.712C258.66 365.029 257.602 369.04 255.803 372.383C259.472 381.052 266.798 386.987 275.241 386.987C283.696 386.987 291.022 381.064 294.679 372.383C292.88 369.04 291.822 365.029 291.822 360.712Z" fill="#F7EADB"/>
<path d="M295.103 348.325C291.61 339.07 284.037 332.642 275.241 332.642C275.206 332.642 275.182 332.642 275.147 332.642V386.976C275.182 386.976 275.206 386.976 275.241 386.976C283.696 386.976 291.022 381.052 294.679 372.372C292.868 369.029 291.822 365.017 291.822 360.7C291.822 356.067 293.045 351.797 295.103 348.325Z" fill="#F4DEC5"/>
<path d="M316.446 304.595C316.446 334.014 297.996 357.861 275.241 357.861C252.487 357.861 234.036 334.014 234.036 304.595C234.036 275.176 252.487 251.329 275.241 251.329C297.996 251.329 316.446 275.176 316.446 304.595Z" fill="#F4DEC5"/>
<path d="M242.35 309.287C242.35 316.349 239.245 322.073 235.424 322.073C231.602 322.073 228.497 316.349 228.497 309.287C228.497 302.226 231.602 296.501 235.424 296.501C239.245 296.501 242.35 302.226 242.35 309.287Z" fill="#F4DEC5"/>
<path d="M321.573 309.287C321.573 316.349 318.469 322.073 314.647 322.073C310.825 322.073 307.721 316.349 307.721 309.287C307.721 302.226 310.825 296.501 314.647 296.501C318.469 296.501 321.573 302.226 321.573 309.287Z" fill="#F0CFAE"/>
<path d="M275.241 251.329V357.861C297.996 357.861 316.446 334.014 316.446 304.595C316.446 275.188 297.996 251.341 275.241 251.329Z" fill="#F0CFAE"/>
<path d="M275.241 381.11C264.328 381.11 253.98 374.307 244.69 375.738L245.396 377.404C251.099 390.893 262.529 399.269 275.241 399.269C287.941 399.269 299.383 390.893 305.086 377.404L305.792 375.738C296.502 374.307 286.154 381.11 275.241 381.11Z" fill="#2B251F"/>
<path d="M274.761 380.469L267.352 387.859L274.761 395.249L282.169 387.859L274.761 380.469Z" fill="#E02E21"/>
<path d="M267.292 445.45L274.759 382.131L282.238 445.45L274.759 452.899L267.292 445.45Z" fill="#E02E21"/>
<path d="M253.957 367.046L274.665 380.407L262.976 399.714L248.618 375.234L253.957 367.046Z" fill="#393E43"/>
<path d="M296.396 367.046L274.853 380.407L286.554 399.714L300.912 375.234L296.396 367.046Z" fill="#393E43"/>
<path d="M238.951 311.856C238.951 311.856 230.826 283.012 231.955 270.777C233.095 258.543 231.273 256.056 242.397 252.889C253.521 249.722 249.864 247.751 256.673 243C263.482 238.25 264.128 236.162 274.794 239.786C285.46 243.411 281.897 249.276 295.526 249.276C309.155 249.276 309.379 245.874 315.505 253.804C321.632 261.733 318.516 263.669 323.972 266.167C329.417 268.654 326.594 277.522 321.15 282.73C315.705 287.938 317.093 290.718 315.282 296.607C313.471 302.495 309.379 310.425 309.379 310.425C309.379 310.425 310.072 299.059 304.71 292.091C302.147 288.76 306.321 287.035 304.146 284.15C298.019 275.997 296.878 271.915 284.849 272.595C272.819 273.276 270.02 276.021 262.082 276.478C254.133 276.936 243.867 275.082 243.42 282.554C242.961 290.026 247.912 292.126 242.926 295.974C237.928 299.821 238.951 311.856 238.951 311.856Z" fill="#2B251F"/>
<path d="M157.976 37.2549H66.476C62.9129 37.2549 60.0201 40.1405 60.0201 43.6947V98.8495C60.0201 102.404 62.9129 105.289 66.476 105.289H80.1522V126.521L101.437 105.289H157.964C161.527 105.289 164.42 102.404 164.42 98.8495V43.7064C164.432 40.1405 161.539 37.2549 157.976 37.2549Z" fill="white"/>
<path d="M79.5643 127.952V105.888H66.476C62.5954 105.888 59.4321 102.732 59.4321 98.8614V43.7065C59.4321 39.8356 62.5954 36.6802 66.476 36.6802H157.964C161.845 36.6802 165.008 39.8356 165.008 43.7065V98.8614C165.008 102.732 161.845 105.888 157.964 105.888H101.672L79.5643 127.952ZM66.476 37.8415C63.2422 37.8415 60.6081 40.469 60.6081 43.6948V98.8496C60.6081 102.075 63.2422 104.703 66.476 104.703H80.7402V125.113L101.202 104.703H157.976C161.21 104.703 163.844 102.075 163.844 98.8496V43.7065C163.844 40.4807 161.21 37.8532 157.976 37.8532H66.476V37.8415Z" fill="#535A63"/>
<path d="M81.8691 58.7914H143.289C144.182 58.7914 144.9 58.0759 144.9 57.1844C144.9 56.2929 144.182 55.5774 143.289 55.5774H81.8691C80.9754 55.5774 80.2581 56.2929 80.2581 57.1844C80.2581 58.0642 80.9754 58.7914 81.8691 58.7914Z" fill="#34638A"/>
<path d="M81.8691 68.2106H143.289C144.182 68.2106 144.9 67.4951 144.9 66.6036C144.9 65.7121 144.182 64.9966 143.289 64.9966H81.8691C80.9754 64.9966 80.2581 65.7121 80.2581 66.6036C80.2581 67.4951 80.9754 68.2106 81.8691 68.2106Z" fill="#34638A"/>
<path d="M81.8691 77.6415H143.289C144.182 77.6415 144.9 76.926 144.9 76.0345C144.9 75.143 144.182 74.4275 143.289 74.4275H81.8691C80.9754 74.4275 80.2581 75.143 80.2581 76.0345C80.2581 76.9143 80.9754 77.6415 81.8691 77.6415Z" fill="#34638A"/>
<path d="M81.8691 87.061H122.227C123.121 87.061 123.838 86.3454 123.838 85.4539C123.838 84.5625 123.121 83.8469 122.227 83.8469H81.8691C80.9754 83.8469 80.2581 84.5625 80.2581 85.4539C80.2581 86.3454 80.9754 87.061 81.8691 87.061Z" fill="#34638A"/>
<path d="M164.722 56.6769C175.181 55.8132 182.958 46.6551 182.092 36.2217C181.227 25.7883 172.045 18.0305 161.586 18.8942C151.126 19.7578 143.349 28.916 144.215 39.3494C145.081 49.7828 154.262 57.5406 164.722 56.6769Z" fill="#34638A"/>
<path d="M163.15 42.9088L170.323 48.1287L167.56 39.7065L174.769 34.5101L165.878 34.5335L163.15 26.0996L160.422 34.5335L151.532 34.5101L158.74 39.7065L155.977 48.1287L163.15 42.9088Z" fill="white"/>
<path d="M542.505 348.966C542.505 352.239 539.848 354.89 536.567 354.89H337.891C334.61 354.89 331.953 352.239 331.953 348.966V317.87C331.953 314.597 334.61 311.946 337.891 311.946H536.567C539.848 311.946 542.505 314.597 542.505 317.87V348.966Z" fill="#AA453E"/>
<path d="M360.481 338.632L353.178 343.946L355.989 335.383L348.675 330.104L357.706 330.128L360.481 321.553L363.256 330.128L372.287 330.104L364.961 335.383L367.772 343.946L360.481 338.632Z" fill="#FFD500"/>
<path d="M399.487 338.632L392.196 343.946L395.007 335.383L387.692 330.104L396.724 330.128L399.487 321.553L402.262 330.128L411.293 330.104L403.979 335.383L406.79 343.946L399.487 338.632Z" fill="#FFD500"/>
<path d="M438.505 338.632L431.202 343.946L434.013 335.383L426.698 330.104L435.73 330.128L438.505 321.553L441.268 330.128L450.299 330.104L442.985 335.383L445.796 343.946L438.505 338.632Z" fill="#FFD500"/>
<path d="M477.511 338.632L470.22 343.946L473.03 335.383L465.704 330.104L474.736 330.128L477.511 321.553L480.286 330.128L489.317 330.104L482.003 335.383L484.813 343.946L477.511 338.632Z" fill="#FFD500"/>
<path d="M516.529 338.632L509.226 343.946L512.036 335.383L504.722 330.104L513.753 330.128L516.529 321.553L519.292 330.128L528.323 330.104L521.009 335.383L523.819 343.946L516.529 338.632Z" fill="#FFD500"/>
<path d="M0 221.699C0 225.71 3.25737 228.971 7.29086 228.971H110.492C114.513 228.971 117.782 225.722 117.782 221.699V159.482C117.782 155.471 114.525 152.21 110.492 152.21H7.29086C3.26913 152.21 0 155.459 0 159.482V221.699Z" fill="#AA453E"/>
<path d="M22.7074 252.912L47.0494 228.619L22.7074 204.338V252.912Z" fill="#AA453E"/>
<path d="M93.5227 172.421H24.2479C23.2131 172.421 22.3782 171.588 22.3782 170.556C22.3782 169.523 23.2131 168.69 24.2479 168.69H93.5227C94.5575 168.69 95.3924 169.523 95.3924 170.556C95.3807 171.588 94.5458 172.421 93.5227 172.421Z" fill="white"/>
<path d="M93.5227 183.048H24.2479C23.2131 183.048 22.3782 182.215 22.3782 181.183C22.3782 180.151 23.2131 179.318 24.2479 179.318H93.5227C94.5575 179.318 95.3924 180.151 95.3924 181.183C95.3924 182.215 94.5458 183.048 93.5227 183.048Z" fill="white"/>
<path d="M93.5227 193.687H24.2479C23.2131 193.687 22.3782 192.854 22.3782 191.822C22.3782 190.79 23.2131 189.957 24.2479 189.957H93.5227C94.5575 189.957 95.3924 190.79 95.3924 191.822C95.3807 192.854 94.5458 193.687 93.5227 193.687Z" fill="white"/>
<path d="M69.7686 204.315H24.2479C23.2131 204.315 22.3782 203.482 22.3782 202.45C22.3782 201.417 23.2131 200.584 24.2479 200.584H69.7686C70.8035 200.584 71.6266 201.417 71.6266 202.45C71.6266 203.482 70.7917 204.315 69.7686 204.315Z" fill="white"/>
<path d="M185.787 211.517H104.929C101.778 211.517 99.226 214.063 99.226 217.206V265.945C99.226 269.088 101.778 271.634 104.929 271.634H154.883L173.698 290.402V271.634H185.787C188.939 271.634 191.49 269.088 191.49 265.945V217.206C191.49 214.063 188.939 211.517 185.787 211.517Z" fill="white"/>
<path d="M172.499 227.317H118.217C117.43 227.317 116.795 226.684 116.795 225.898C116.795 225.112 117.43 224.479 118.217 224.479H172.499C173.287 224.479 173.922 225.112 173.922 225.898C173.922 226.672 173.287 227.317 172.499 227.317Z" fill="#6C6B71"/>
<path d="M172.499 235.646H118.217C117.43 235.646 116.795 235.012 116.795 234.226C116.795 233.441 117.43 232.807 118.217 232.807H172.499C173.287 232.807 173.922 233.441 173.922 234.226C173.922 235.001 173.287 235.646 172.499 235.646Z" fill="#6C6B71"/>
<path d="M172.499 243.974H118.217C117.43 243.974 116.795 243.341 116.795 242.555C116.795 241.769 117.43 241.135 118.217 241.135H172.499C173.287 241.135 173.922 241.769 173.922 242.555C173.922 243.341 173.287 243.974 172.499 243.974Z" fill="#6C6B71"/>
<path d="M153.884 252.303H118.217C117.43 252.303 116.795 251.669 116.795 250.883C116.795 250.097 117.43 249.464 118.217 249.464H153.884C154.672 249.464 155.307 250.097 155.307 250.883C155.318 251.669 154.672 252.303 153.884 252.303Z" fill="#6C6B71"/>
<path d="M506.121 404.684C502.747 404.625 499.748 406.995 499.113 410.373C499.607 407.007 497.596 403.84 494.456 402.749L483.249 401.212C479.228 400.966 475.582 403.746 474.83 407.746C475.441 403.581 472.713 399.664 468.609 398.737L458.355 397.247C454.545 397.271 451.193 399.957 450.464 403.793C450.535 403.3 450.558 359.992 450.546 359.523C450.429 356.192 448.218 351.793 445.008 350.737L436.835 350.644C434.424 350.644 434.495 351.113 432.331 352.954C429.168 355.641 427.416 360.121 427.416 365.553C427.416 365.553 427.416 413.599 427.416 432.414C427.416 437.822 426.498 439.135 425.111 436.426C423.182 432.637 417.22 447.816 417.22 454.642C417.22 479.111 418.079 476.015 430.708 486.267C439.316 493.258 443.867 502.454 443.867 512.871V521.445H512.378V489.68C512.378 486.971 512.742 484.672 515.27 482.009C518.316 478.806 518.716 475.17 518.716 469.833V422.842C518.716 411.886 515.917 406.373 506.121 404.684Z" fill="#FDECDB"/>
<path d="M523.314 510.771H437.188V580.94H523.314V510.771Z" fill="#E5E4E6"/>
<path d="M525.207 521.387H435.294V593.656H525.207V521.387Z" fill="#393E43"/>
<path d="M525.207 521.387H515.741V593.656H525.207V521.387Z" fill="#6C6B71"/>
<path d="M509.085 526.137C510.637 526.137 511.907 527.393 511.907 528.953C511.907 530.501 510.649 531.768 509.085 531.768C507.521 531.768 506.263 530.513 506.263 528.953C506.263 527.393 507.533 526.137 509.085 526.137Z" fill="white"/>
<path d="M509.085 532.894C510.637 532.894 511.907 534.149 511.907 535.709C511.907 537.257 510.649 538.524 509.085 538.524C507.533 538.524 506.263 537.269 506.263 535.709C506.263 534.149 507.533 532.894 509.085 532.894Z" fill="white"/>
<path d="M509.085 539.65C510.637 539.65 511.907 540.906 511.907 542.466C511.907 544.014 510.649 545.281 509.085 545.281C507.533 545.281 506.263 544.026 506.263 542.466C506.263 540.906 507.533 539.65 509.085 539.65Z" fill="white"/>
<path d="M450.476 381.623C450.476 386.35 446.642 390.174 441.903 390.174H436.012C431.273 390.174 427.439 386.35 427.439 381.623V349.811C427.439 345.084 431.273 341.26 436.012 341.26H441.903C446.642 341.26 450.476 345.084 450.476 349.811V381.623Z" fill="#FDECDB"/>
<path d="M445.901 357.447C446.689 355.57 445.901 349.318 445.901 349.318C445.901 346.62 443.702 344.415 440.986 344.415H436.659C433.954 344.415 431.743 346.609 431.743 349.318C431.743 349.318 431.379 355.23 431.743 357.154C431.825 357.564 432.19 358.268 432.919 358.339C435.694 358.585 442.609 359.078 445.114 358.233C445.384 358.139 445.796 357.705 445.901 357.447Z" fill="white"/>
<path d="M392.537 419.03C390.503 414.69 392.373 409.517 396.724 407.488L400.98 405.494C405.331 403.464 410.517 405.329 412.552 409.669L439.434 466.771C441.468 471.112 439.598 476.285 435.247 478.314L430.991 480.308C426.64 482.337 421.454 480.472 419.419 476.132L392.537 419.03Z" fill="#FDECDB"/>
<path d="M403.65 418.021C404.497 419.828 403.709 421.986 401.898 422.831L398.97 424.191C397.159 425.036 394.995 424.25 394.148 422.444L390.397 414.408C389.55 412.602 390.338 410.444 392.149 409.599L398.582 406.608C400.393 405.763 399.052 408.18 399.899 409.986L403.65 418.021Z" fill="#FDECDB"/>
<path d="M401.721 427.616C401.663 425.083 396.794 416.79 396.794 416.79C395.418 413.716 391.796 412.332 388.715 413.705L383.8 415.898C380.719 417.271 379.331 420.883 380.707 423.957C380.707 423.957 384.082 432.449 385.482 434.455C385.776 434.877 386.552 435.499 387.41 435.206C390.691 434.08 398.805 431.147 401.227 428.907C401.474 428.66 401.733 427.957 401.721 427.616Z" fill="white"/>
</g>
<defs>
<clipPath id="clip0_437_158">
<rect width="550" height="545" fill="white"/>
</clipPath>
</defs>
</svg>
