<svg width="546" height="355" viewBox="0 0 546 355" fill="none" xmlns="http://www.w3.org/2000/svg">
<path d="M289.22 257.23H211.696V328.741H289.22V257.23Z" fill="#DEDEDD"/>
<path d="M289.22 300.231L211.696 279.665V257.23H289.22V300.231Z" fill="#C7C6C5"/>
<path d="M61.9058 31.0764V259.413C61.9058 268.118 69.0539 275.176 77.8721 275.176H426.609C435.427 275.176 442.576 268.119 442.576 259.413V31.0764H61.9058Z" fill="#E8E7E7"/>
<path d="M442.576 244.1V15.7635C442.576 7.05694 435.427 0 426.609 0H77.8721C69.0539 0 61.9058 7.05694 61.9058 15.7635V244.1H442.576Z" fill="black"/>
<path d="M429.749 14.6794H74.7324V229.524H429.749V14.6794Z" fill="#212120"/>
<path d="M256.844 11.5361H247.637C245.375 11.5361 243.524 9.68345 243.524 7.41966V6.99193C243.524 4.72814 245.375 2.87549 247.637 2.87549H256.844C259.106 2.87549 260.957 4.72814 260.957 6.99193V7.41966C260.957 9.68473 259.106 11.5361 256.844 11.5361Z" fill="#353535"/>
<path d="M254.175 9.29369C255.244 8.22364 255.244 6.48877 254.175 5.41873C253.106 4.34869 251.373 4.34868 250.303 5.41872C249.234 6.48876 249.234 8.22364 250.303 9.29368C251.373 10.3637 253.106 10.3637 254.175 9.29369Z" fill="#818282"/>
<path opacity="0.05" d="M356.333 229.524H429.749V14.6794H137.128L356.333 229.524Z" fill="white"/>
<path d="M326.151 332.681V327.525C326.151 325.01 324.094 322.953 321.582 322.953H178.232C175.719 322.953 173.664 325.011 173.664 327.525V332.681H326.151Z" fill="#E8E7E7"/>
<path d="M326.151 328.742H173.662V332.682H326.151V328.742Z" fill="#D1D1D1"/>
<path d="M171.643 27.3672H92.4364V31.3904H171.643V27.3672Z" fill="#ECAA20"/>
<path d="M148.823 35.8606H106.886V39.8838H148.823V35.8606Z" fill="#33BAA3"/>
<path d="M212.331 35.8606H156.438V39.8838H212.331V35.8606Z" fill="#33BAA3"/>
<path d="M148.823 35.8606H106.886V39.8838H148.823V35.8606Z" fill="#981C50"/>
<path d="M212.331 35.8606H156.438V39.8838H212.331V35.8606Z" fill="#33BAA3"/>
<path d="M158.542 43.616H116.605V47.6392H158.542V43.616Z" fill="#33BAA3"/>
<path d="M293.971 43.616H161.641V47.6392H293.971V43.616Z" fill="#6C60A9"/>
<path d="M125.888 51.3713H106.886V55.3946H125.888V51.3713Z" fill="#6C60A9"/>
<path d="M184.385 51.3713H128.492V55.3946H184.385V51.3713Z" fill="#00B1E7"/>
<path d="M203.791 51.3713H188.354V55.3946H203.791V51.3713Z" fill="#33BAA3"/>
<path d="M133.276 59.1279H112.308V63.1512H133.276V59.1279Z" fill="#981C50"/>
<path d="M216.3 59.1279H195.332V63.1512H216.3V59.1279Z" fill="#981C50"/>
<path d="M256.464 66.8833H235.495V70.9065H256.464V66.8833Z" fill="#6C60A9"/>
<path d="M192.339 59.1279H136.446V63.1512H192.339V59.1279Z" fill="#6C60A9"/>
<path d="M175.34 66.8833H106.886V70.9065H175.34V66.8833Z" fill="#33BAA3"/>
<path d="M233.087 66.8833H177.194V70.9065H233.087V66.8833Z" fill="#981C50"/>
<path d="M125.89 74.6399H112.308V78.6631H125.89V74.6399Z" fill="#6C60A9"/>
<path d="M161.641 74.6399H129.711V78.6631H161.641V74.6399Z" fill="#6C60A9"/>
<path d="M198.314 74.6399H166.384V78.6631H198.314V74.6399Z" fill="#00B1E7"/>
<path d="M234.365 74.6399H202.435V78.6631H234.365V74.6399Z" fill="#33BAA3"/>
<path d="M134.64 82.3953H106.886V86.4185H134.64V82.3953Z" fill="#33BAA3"/>
<path d="M194.33 82.3953H138.437V86.4185H194.33V82.3953Z" fill="#33BAA3"/>
<path d="M148.824 90.1506H129.711V94.1739H148.824V90.1506Z" fill="#00B1E7"/>
<path d="M186.697 90.1506H152.398V94.1739H186.697V90.1506Z" fill="#33BAA3"/>
<path d="M224.303 90.1506H190.004V94.1739H224.303V90.1506Z" fill="#981C50"/>
<path d="M148.823 97.9072H106.886V101.93H148.823V97.9072Z" fill="#33BAA3"/>
<path d="M208.291 97.9072H152.398V101.93H208.291V97.9072Z" fill="#981C50"/>
<path d="M130.285 109.03H92.4364V113.053H130.285V109.03Z" fill="#ECAA20"/>
<path d="M153.648 117.521H125.89V121.545H153.648V117.521Z" fill="#981C50"/>
<path d="M212.331 117.521H156.438V121.545H212.331V117.521Z" fill="#33BAA3"/>
<path d="M122.782 117.521H106.886V121.545H122.782V117.521Z" fill="#00B1E7"/>
<path d="M212.331 117.521H156.438V121.545H212.331V117.521Z" fill="#6C60A9"/>
<path d="M139.769 125.278H106.886V129.302H139.769V125.278Z" fill="#33BAA3"/>
<path d="M198.314 125.278H142.421V129.302H198.314V125.278Z" fill="#00B1E7"/>
<path d="M257.489 125.278H201.596V129.302H257.489V125.278Z" fill="#33BAA3"/>
<path d="M285.412 74.6399H257.653V78.6631H285.412V74.6399Z" fill="#981C50"/>
<path d="M362.012 82.3953H334.253V86.4185H362.012V82.3953Z" fill="#981C50"/>
<path d="M344.095 74.6399H288.202V78.6631H344.095V74.6399Z" fill="#33BAA3"/>
<path d="M254.545 74.6399H238.649V78.6631H254.545V74.6399Z" fill="#00B1E7"/>
<path d="M344.095 74.6399H288.202V78.6631H344.095V74.6399Z" fill="#6C60A9"/>
<path d="M231.766 82.3953H198.883V86.4185H231.766V82.3953Z" fill="#33BAA3"/>
<path d="M290.31 82.3953H234.417V86.4185H290.31V82.3953Z" fill="#00B1E7"/>
<path d="M331.12 82.3953H293.592V86.4185H331.12V82.3953Z" fill="#33BAA3"/>
<path d="M318.193 208.007H290.434V212.03H318.193V208.007Z" fill="#981C50"/>
<path d="M339.925 215.763H312.167V219.787H339.925V215.763Z" fill="#981C50"/>
<path d="M376.877 208.007H320.984V212.03H376.877V208.007Z" fill="#33BAA3"/>
<path d="M376.877 208.007H320.984V212.03H376.877V208.007Z" fill="#6C60A9"/>
<path d="M268.224 215.763H212.331V219.787H268.224V215.763Z" fill="#00B1E7"/>
<path d="M309.034 215.763H271.506V219.787H309.034V215.763Z" fill="#33BAA3"/>
<path d="M167.827 133.034H125.89V137.057H167.827V133.034Z" fill="#981C50"/>
<path d="M211.117 133.034H170.367V137.057H211.117V133.034Z" fill="#6C60A9"/>
<path d="M226.295 133.034H213.991V137.057H226.295V133.034Z" fill="#6C60A9"/>
<path d="M148.824 140.79H125.89V144.814H148.824V140.79Z" fill="#981C50"/>
<path d="M184.385 140.79H152.398V144.814H184.385V140.79Z" fill="#00B1E7"/>
<path d="M143.114 191.759H92.4364V195.783H143.114V191.759Z" fill="#ECAA20"/>
<path d="M153.648 200.251H125.89V204.275H153.648V200.251Z" fill="#981C50"/>
<path d="M212.331 200.251H156.438V204.275H212.331V200.251Z" fill="#33BAA3"/>
<path d="M122.782 200.251H106.886V204.275H122.782V200.251Z" fill="#00B1E7"/>
<path d="M212.331 200.251H156.438V204.275H212.331V200.251Z" fill="#6C60A9"/>
<path d="M167.629 208.007H134.746V212.03H167.629V208.007Z" fill="#33BAA3"/>
<path d="M226.173 208.007H170.28V212.03H226.173V208.007Z" fill="#00B1E7"/>
<path d="M285.348 208.007H229.455V212.03H285.348V208.007Z" fill="#33BAA3"/>
<path d="M148.174 215.763H106.236V219.787H148.174V215.763Z" fill="#981C50"/>
<path d="M191.463 215.763H150.714V219.787H191.463V215.763Z" fill="#6C60A9"/>
<path d="M206.641 215.763H194.338V219.787H206.641V215.763Z" fill="#6C60A9"/>
<path d="M160.263 152.801H92.4364V156.371H160.263V152.801Z" fill="#ECAA20"/>
<path d="M178.612 160.338H136.675V163.908H178.612V160.338Z" fill="#981C50"/>
<path d="M132.986 160.338H106.886V163.908H132.986V160.338Z" fill="#33BAA3"/>
<path d="M191.923 160.338H182.223V163.908H191.923V160.338Z" fill="#981C50"/>
<path d="M144.197 167.223H106.886V170.793H144.197V167.223Z" fill="#981C50"/>
<path d="M202.751 167.223H146.858V170.793H202.751V167.223Z" fill="#00B1E7"/>
<path d="M226.838 167.223H205.475V170.793H226.838V167.223Z" fill="#6C60A9"/>
<path d="M156.438 174.106H114.501V177.676H156.438V174.106Z" fill="#981C50"/>
<path d="M217.776 174.106H161.883V177.676H217.776V174.106Z" fill="#33BAA3"/>
<path d="M156.438 180.991H114.501V184.561H156.438V180.991Z" fill="#6C60A9"/>
<path d="M193.845 180.991H160.263V184.561H193.845V180.991Z" fill="#00B1E7"/>
<path d="M477.351 334.064H422.585C414.046 334.064 407.061 327.072 407.061 318.528V180.446C407.061 171.9 414.047 164.909 422.585 164.909H477.351C485.89 164.909 492.875 171.901 492.875 180.446V318.528C492.875 327.073 485.89 334.064 477.351 334.064Z" fill="#EFEFEF"/>
<path d="M485.444 318.636H414.494C412.752 318.636 411.329 317.211 411.329 315.469V183.505C411.329 181.763 412.752 180.337 414.494 180.337H485.444C487.185 180.337 488.609 181.762 488.609 183.505V315.469C488.609 317.211 487.184 318.636 485.444 318.636Z" fill="#353535"/>
<path d="M458.706 329.153H441.23C439.489 329.153 438.065 327.729 438.065 325.986V325.807C438.065 324.064 439.489 322.639 441.23 322.639H458.706C460.447 322.639 461.871 324.064 461.871 325.807V325.986C461.871 327.729 460.447 329.153 458.706 329.153Z" fill="#D1D1D0"/>
<path d="M458.706 329.53H441.23C439.277 329.53 437.689 327.94 437.689 325.986V325.807C437.689 323.852 439.277 322.262 441.23 322.262H458.706C460.659 322.262 462.247 323.852 462.247 325.807V325.986C462.247 327.94 460.659 329.53 458.706 329.53ZM441.23 323.016C439.693 323.016 438.441 324.267 438.441 325.807V325.986C438.441 327.524 439.692 328.777 441.23 328.777H458.706C460.243 328.777 461.495 327.525 461.495 325.986V325.807C461.495 324.268 460.244 323.016 458.706 323.016H441.23Z" fill="#B7B7B7"/>
<path d="M468.105 175.07C469.413 175.07 470.474 174.009 470.474 172.699C470.474 171.39 469.413 170.328 468.105 170.328C466.796 170.328 465.735 171.39 465.735 172.699C465.735 174.009 466.796 175.07 468.105 175.07Z" fill="#353535"/>
<path d="M430.784 174.022C431.514 174.022 432.106 173.43 432.106 172.699C432.106 171.969 431.514 171.376 430.784 171.376C430.054 171.376 429.463 171.969 429.463 172.699C429.463 173.43 430.054 174.022 430.784 174.022Z" fill="#353535"/>
<path d="M462.545 174.022C463.275 174.022 463.866 173.43 463.866 172.699C463.866 171.969 463.275 171.376 462.545 171.376C461.815 171.376 461.223 171.969 461.223 172.699C461.223 173.43 461.815 174.022 462.545 174.022Z" fill="#353535"/>
<path d="M458.189 173.824H435.841C435.223 173.824 434.717 173.317 434.717 172.699C434.717 172.08 435.224 171.574 435.841 171.574H458.189C458.808 171.574 459.313 172.081 459.313 172.699C459.314 173.318 458.808 173.824 458.189 173.824Z" fill="#BFBEBE"/>
<path d="M488.609 299.106V183.505C488.609 181.762 487.185 180.337 485.444 180.337H414.494C412.752 180.337 411.329 181.762 411.329 183.505V193.776L488.609 299.106Z" fill="#3A3A3A"/>
<path d="M454.649 191.488H416.451V193.427H454.649V191.488Z" fill="#ECAA20"/>
<path d="M443.644 195.582H423.419V197.522H443.644V195.582Z" fill="#33BAA3"/>
<path d="M474.27 195.582H447.316V197.522H474.27V195.582Z" fill="#33BAA3"/>
<path d="M443.644 195.582H423.419V197.522H443.644V195.582Z" fill="#981C50"/>
<path d="M474.27 195.582H447.316V197.522H474.27V195.582Z" fill="#33BAA3"/>
<path d="M448.331 199.323H428.106V201.263H448.331V199.323Z" fill="#33BAA3"/>
<path d="M432.583 203.063H423.419V205.003H432.583V203.063Z" fill="#6C60A9"/>
<path d="M460.793 203.063H433.838V205.003H460.793V203.063Z" fill="#00B1E7"/>
<path d="M470.152 203.063H462.708V205.003H470.152V203.063Z" fill="#33BAA3"/>
<path d="M436.146 206.803H426.035V208.742H436.146V206.803Z" fill="#981C50"/>
<path d="M476.184 206.803H466.072V208.742H476.184V206.803Z" fill="#981C50"/>
<path d="M464.629 206.803H437.675V208.742H464.629V206.803Z" fill="#6C60A9"/>
<path d="M456.431 210.544H423.419V212.483H456.431V210.544Z" fill="#33BAA3"/>
<path d="M484.28 210.544H457.326V212.483H484.28V210.544Z" fill="#981C50"/>
<path d="M432.584 214.284H426.035V216.223H432.584V214.284Z" fill="#6C60A9"/>
<path d="M449.825 214.284H434.427V216.223H449.825V214.284Z" fill="#6C60A9"/>
<path d="M467.511 214.284H452.113V216.223H467.511V214.284Z" fill="#00B1E7"/>
<path d="M484.898 214.284H469.499V216.223H484.898V214.284Z" fill="#33BAA3"/>
<path d="M436.803 218.023H423.419V219.963H436.803V218.023Z" fill="#33BAA3"/>
<path d="M465.59 218.023H438.635V219.963H465.59V218.023Z" fill="#33BAA3"/>
<path d="M443.644 221.765H434.427V223.704H443.644V221.765Z" fill="#00B1E7"/>
<path d="M461.908 221.765H445.368V223.704H461.908V221.765Z" fill="#33BAA3"/>
<path d="M480.043 221.765H463.503V223.704H480.043V221.765Z" fill="#981C50"/>
<path d="M443.644 225.504H423.419V227.444H443.644V225.504Z" fill="#33BAA3"/>
<path d="M472.322 225.504H445.368V227.444H472.322V225.504Z" fill="#981C50"/>
<path d="M434.703 230.868H416.451V232.808H434.703V230.868Z" fill="#ECAA20"/>
<path d="M445.971 234.964H432.584V236.904H445.971V234.964Z" fill="#981C50"/>
<path d="M474.27 234.964H447.316V236.904H474.27V234.964Z" fill="#33BAA3"/>
<path d="M431.085 234.964H423.419V236.904H431.085V234.964Z" fill="#00B1E7"/>
<path d="M474.27 234.964H447.316V236.904H474.27V234.964Z" fill="#6C60A9"/>
<path d="M439.277 238.704H423.419V240.644H439.277V238.704Z" fill="#33BAA3"/>
<path d="M467.511 238.704H440.557V240.644H467.511V238.704Z" fill="#00B1E7"/>
<path d="M483.643 218.023H467.786V219.963H483.643V218.023Z" fill="#33BAA3"/>
<path d="M452.809 242.445H432.584V244.385H452.809V242.445Z" fill="#981C50"/>
<path d="M473.686 242.445H454.034V244.385H473.686V242.445Z" fill="#6C60A9"/>
<path d="M481.004 242.445H475.07V244.385H481.004V242.445Z" fill="#6C60A9"/>
<path d="M443.644 246.185H432.584V248.124H443.644V246.185Z" fill="#981C50"/>
<path d="M460.793 246.185H445.368V248.124H460.793V246.185Z" fill="#00B1E7"/>
<path d="M440.891 270.765H416.451V272.704H440.891V270.765Z" fill="#ECAA20"/>
<path d="M445.971 274.861H432.584V276.8H445.971V274.861Z" fill="#981C50"/>
<path d="M474.27 274.861H447.316V276.8H474.27V274.861Z" fill="#33BAA3"/>
<path d="M431.085 274.861H423.419V276.8H431.085V274.861Z" fill="#00B1E7"/>
<path d="M474.27 274.861H447.316V276.8H474.27V274.861Z" fill="#6C60A9"/>
<path d="M452.712 278.601H436.854V280.54H452.712V278.601Z" fill="#33BAA3"/>
<path d="M480.946 278.601H453.992V280.54H480.946V278.601Z" fill="#00B1E7"/>
<path d="M443.332 282.34H423.107V284.28H443.332V282.34Z" fill="#981C50"/>
<path d="M464.207 282.34H444.555V284.28H464.207V282.34Z" fill="#6C60A9"/>
<path d="M471.526 282.34H465.593V284.28H471.526V282.34Z" fill="#6C60A9"/>
<path d="M449.161 251.978H416.451V253.7H449.161V251.978Z" fill="#ECAA20"/>
<path d="M458.011 255.613H437.786V257.335H458.011V255.613Z" fill="#981C50"/>
<path d="M436.006 255.613H423.419V257.335H436.006V255.613Z" fill="#33BAA3"/>
<path d="M464.429 255.613H459.751V257.335H464.429V255.613Z" fill="#981C50"/>
<path d="M441.413 258.933H423.419V260.655H441.413V258.933Z" fill="#981C50"/>
<path d="M469.651 258.933H442.696V260.655H469.651V258.933Z" fill="#00B1E7"/>
<path d="M481.265 258.933H470.964V260.655H481.265V258.933Z" fill="#6C60A9"/>
<path d="M447.317 262.252H427.092V263.975H447.317V262.252Z" fill="#981C50"/>
<path d="M476.897 262.252H449.943V263.975H476.897V262.252Z" fill="#33BAA3"/>
<path d="M447.317 265.572H427.092V267.294H447.317V265.572Z" fill="#6C60A9"/>
<path d="M465.355 265.572H449.161V267.294H465.355V265.572Z" fill="#00B1E7"/>
<path d="M520.382 273.13C520.382 273.13 516.856 304.282 513.617 312.674C513.617 312.674 513.451 322.295 513.045 325.836C512.265 332.646 509.096 341.608 509.038 343.194C509.038 343.194 505.803 344.244 504.278 342.718C504.278 342.718 505.613 315.059 505.421 312.102C505.231 309.145 504.573 299.384 507.718 272.356L520.382 273.13Z" fill="#2998BA"/>
<path d="M529.366 271.483C529.366 271.483 518.678 272.752 514.922 272.357C514.922 272.357 514.388 298.203 518.115 313.349C518.115 313.349 518.341 319.565 518.793 321.261C519.244 322.957 522.146 344.205 522.146 344.205C522.146 344.205 525.757 345.109 527.075 344.205C527.075 344.205 529.522 327.364 528.619 323.069C527.716 318.774 526.231 313.914 526.231 313.914C526.231 313.914 527.87 306.302 528.732 301.708C529.592 297.111 531.132 280.254 529.366 271.483Z" fill="#2FA6CB"/>
<path d="M513.636 224.165C511.906 223.484 509.485 222.215 509.37 219.849C509.255 217.483 509.832 211.121 511.1 209.397C512.368 207.673 518.133 205.902 522.458 207.855C526.782 209.808 527.532 214.489 527.647 215.582C527.761 216.675 527.878 219.964 529.491 221.118C531.105 222.272 533.297 224.119 534.219 226.368C535.142 228.618 534.277 230.661 534.508 232.496C534.739 234.331 537.794 239.293 539.927 240.735C542.06 242.178 542.925 252.16 535.315 257.064C527.705 261.968 521.018 260.296 518.538 259.199C516.059 258.102 513.58 247.139 514.848 242.524C516.116 237.908 518.048 226.137 518.048 226.137L513.636 224.165Z" fill="#A14A24"/>
<path d="M513.636 224.811C513.636 224.811 516.577 228.815 516.634 232.496C516.634 232.496 519.113 234.604 521.823 232.39L521.884 230.595L518.964 221.497L513.636 224.811Z" fill="#FDE3CA"/>
<path d="M517.383 208.828C514.791 208.709 511.79 209.059 511.329 211.828C510.868 214.597 510.004 221.267 511.329 224.165C512.655 227.062 518.651 224.714 520.093 223.118C521.534 221.522 524.936 209.174 517.383 208.828Z" fill="#FDE3CA"/>
<path d="M521.505 227.049C521.471 226.842 518.684 221.265 516.999 220.37C515.314 219.475 513.353 218.304 513.215 216.548C513.077 214.793 514.213 211.59 511.22 210.695C511.22 210.695 513.077 206.783 519.648 208.808C526.218 210.833 523.087 220.473 522.709 221.748C522.33 223.02 521.505 227.049 521.505 227.049Z" fill="#A14A24"/>
<path d="M509.037 272.182C509.037 272.182 521.998 274.725 529.366 271.483C529.394 271.47 529.423 271.459 529.449 271.446L529.318 271.038L529.315 271.03C528.933 270.017 526.543 263.449 526.954 258.066C527.398 252.216 529.305 245.349 529.305 245.349C529.305 245.349 531.02 235.939 531.02 235.749C531.02 235.557 527.907 232.951 527.907 232.951L521.885 230.594C521.885 230.594 521.036 232.948 518.707 233.12C516.378 233.291 516.556 231.513 516.556 231.513C516.556 231.513 512.792 233.197 510.406 233.979L512.151 254.507L509.037 272.182Z" fill="#AD587B"/>
<path d="M516.519 231.283C516.519 231.283 515.247 236.16 515.041 242.132C514.834 248.103 515.277 261.345 514.863 264.39C514.45 267.436 512.411 287.328 510.433 291.053C508.454 294.777 505.884 297.261 504.526 297.792C504.526 297.792 504.644 282.775 506.003 277.868C507.362 272.962 509.961 261.818 510.257 256.851C510.553 251.885 508.167 249.051 508.066 246.774C507.916 243.346 509.037 241.124 509.037 241.124C509.037 241.124 497.792 243.755 495.075 243.844C492.357 243.932 489.729 243.165 488.133 241.627C486.539 240.09 478.741 227.046 478.741 227.046L481.636 224.689C481.636 224.689 489.876 235.42 491.147 236.513C492.417 237.607 493.096 238.198 495.695 237.783C498.294 237.373 516.519 231.283 516.519 231.283Z" fill="#F17AA9"/>
<path d="M521.884 230.594C521.884 230.594 519.496 240.734 519.496 246.922C519.496 253.111 519.668 270.171 519.496 274.364C519.324 278.555 520.441 298.412 529.201 299.873C529.201 299.873 532.199 281.156 529.97 271.218C527.741 261.279 526.023 253.198 530.404 246.235C534.783 239.273 532.645 234.413 530.794 233.534C528.943 232.654 526.342 232.054 524.968 231.615C523.592 231.174 521.884 230.594 521.884 230.594Z" fill="#F17AA9"/>
<path d="M529.124 236.182C530.114 235.016 531.498 234.088 532.321 235.281C533.144 236.473 544.213 252.391 544.97 254.548C545.728 256.705 546.602 259.562 544.038 262.011C541.475 264.46 531.104 271.048 531.104 271.048L528.541 268.015C528.541 268.015 538.095 260.844 538.386 258.978C538.677 257.113 538.71 255.596 538.024 254.751C537.337 253.905 526.676 242.069 527.084 240.263C527.492 238.456 529.124 236.182 529.124 236.182Z" fill="#F17AA9"/>
<path d="M478.741 227.049C478.741 227.049 475.769 225.259 475.494 223.807C475.22 222.355 475.987 220.356 475.659 218.739C475.331 217.123 473.716 214.193 474.044 213.919C474.372 213.646 475.138 213.946 475.932 215.015C476.725 216.084 480.229 219.726 480.803 221.451C481.377 223.176 481.635 224.692 481.635 224.692L478.741 227.049Z" fill="#FDE3CA"/>
<path d="M528.541 268.017C528.541 268.017 525.386 269.84 525.176 271.246C524.965 272.651 526.335 276.624 527.459 276.694C528.583 276.764 527.903 273.924 528.541 273.13C529.18 272.336 531.104 271.049 531.104 271.049L528.541 268.017Z" fill="#FDE3CA"/>
<path d="M512.749 354.103C513.052 354.569 517.585 354.896 520.382 354.947C523.18 354.998 527.708 354.745 528.161 354.103C528.315 353.885 528.239 352.681 528.073 351.182C527.746 348.254 527.073 344.204 527.073 344.204C525.33 344.551 522.143 344.204 522.143 344.204C522.143 344.204 522.268 348.495 521.966 349.814C521.804 350.522 519.933 351.178 518.064 351.696C516.444 352.146 514.824 352.491 514.311 352.678C513.202 353.083 512.448 353.637 512.749 354.103Z" fill="#FFE4CB"/>
<path d="M512.749 354.103C513.052 354.569 517.585 354.896 520.382 354.947C523.18 354.998 527.708 354.745 528.161 354.103C528.315 353.885 528.239 352.681 528.073 351.182C527.754 351.569 527.278 351.774 526.918 351.899C525.501 352.396 520.936 353.301 518.063 351.696C516.443 352.146 514.823 352.491 514.31 352.678C513.202 353.083 512.448 353.637 512.749 354.103Z" fill="#1E7189"/>
<path d="M494.336 352.699C494.627 353.147 498.991 353.462 501.685 353.511C504.378 353.559 508.737 353.317 509.173 352.699C509.321 352.489 509.249 351.329 509.089 349.887C508.775 347.068 509.038 343.194 509.038 343.194C507.361 343.529 504.278 342.718 504.278 342.718C504.278 342.718 503.501 347.302 503.209 348.572C503.053 349.254 501.253 349.884 499.453 350.384C497.894 350.817 496.334 351.149 495.84 351.329C494.772 351.717 494.045 352.25 494.336 352.699Z" fill="#FFE4CB"/>
<path d="M494.336 352.699C494.627 353.147 498.991 353.462 501.685 353.511C504.378 353.559 508.737 353.317 509.173 352.699C509.321 352.489 509.249 351.329 509.089 349.887C508.63 350.323 508.335 350.498 507.978 350.578C505.905 351.05 502.219 351.928 499.455 350.383C497.896 350.815 496.335 351.147 495.842 351.327C494.772 351.717 494.045 352.251 494.336 352.699Z" fill="#1E7189"/>
<path d="M138.834 303.811C135.005 304.794 130.99 304.794 127.163 303.811C127.039 304.294 126.915 304.776 126.792 305.258C130.864 306.303 135.134 306.303 139.205 305.258C139.081 304.775 138.958 304.294 138.834 303.811Z" fill="#ABB9B8"/>
<path d="M126.465 304.275L124.352 304.079L121.698 332.777C121.698 332.777 121.588 335.039 122.129 335.389L123.607 335.154L126.465 304.275Z" fill="#EDB68D"/>
<path d="M126.377 305.004L125.732 307.339C124.933 307.07 124.176 307.026 123.609 307.05L124.332 304.437L126.377 305.004Z" fill="#D09E7D"/>
<path d="M125.732 307.339L117.416 337.407H115.911C115.448 336.943 116.004 334.552 116.004 334.552L123.609 307.052C124.176 307.026 124.933 307.07 125.732 307.339Z" fill="#EDB68D"/>
<path d="M126.376 305.004L123.207 316.466L125.721 312.319L126.376 305.004Z" fill="#D09E7D"/>
<path d="M139.955 304.275L142.068 304.079L144.723 332.777C144.723 332.777 144.832 335.039 144.292 335.389L142.813 335.154L139.955 304.275Z" fill="#EDB68D"/>
<path d="M140.043 305.004L140.689 307.339C141.487 307.07 142.244 307.026 142.812 307.05L142.088 304.437L140.043 305.004Z" fill="#D09E7D"/>
<path d="M140.689 307.339L149.004 337.407H150.51C150.973 336.943 150.417 334.552 150.417 334.552L142.812 307.052C142.244 307.026 141.487 307.07 140.689 307.339Z" fill="#EDB68D"/>
<path d="M140.044 305.004L143.213 316.466L140.7 312.319L140.044 305.004Z" fill="#D09E7D"/>
<path d="M145.04 303.027V304.521C143.08 304.521 141.119 304.766 139.205 305.258C139.081 304.775 138.957 304.292 138.834 303.811C140.87 303.289 142.956 303.027 145.04 303.027Z" fill="#ABB9B8"/>
<path d="M120.955 303.027V304.521C122.916 304.521 124.877 304.767 126.79 305.258C126.914 304.775 127.038 304.292 127.162 303.811C125.127 303.289 123.041 303.027 120.955 303.027Z" fill="#ABB9B8"/>
<path d="M132.998 304.567C134 304.567 136.239 304.608 139.009 303.786C140.824 303.247 143.447 303.073 145.04 303.056C146.13 303.045 147.036 303.36 147.036 303.36C148.141 299.52 146.529 296.054 145.607 292.797C144.605 289.259 146.548 285.61 148.146 282.426C149.743 279.241 150.026 275.434 147.036 273.488C144.045 271.542 138.834 274.162 132.998 274.162C127.163 274.162 121.951 271.542 118.96 273.488C115.969 275.434 116.251 279.241 117.85 282.426C119.447 285.61 121.39 289.259 120.389 292.797C119.466 296.054 117.855 299.52 118.96 303.36C118.96 303.36 119.866 303.046 120.955 303.056C122.548 303.073 125.173 303.247 126.987 303.786C129.758 304.608 131.997 304.567 132.998 304.567Z" fill="#D7E9E7"/>
<path d="M132.998 303.027C132.998 303.027 142.539 303.367 144.605 301.817C147.865 299.372 143.368 295.421 143.899 289.967C144.339 285.436 145.968 280.656 144.605 277.407C142.308 271.923 137.092 276.58 132.998 276.58C128.903 276.58 123.689 271.921 121.391 277.407C120.029 280.657 121.658 285.436 122.098 289.967C122.629 295.421 118.132 299.372 121.391 301.817C123.458 303.367 132.998 303.027 132.998 303.027Z" fill="#DFEDEC"/>
<path d="M133.308 304.743C133.247 304.743 133.188 304.743 133.134 304.743H132.998H132.863C131.753 304.742 129.433 304.75 126.585 303.903C125.007 303.434 122.557 303.249 120.941 303.233C120.928 303.233 120.914 303.233 120.901 303.233C120.118 303.233 119.446 303.468 119.439 303.47C118.706 303.729 117.897 303.349 117.633 302.617C117.369 301.884 117.743 301.077 118.474 300.811C118.591 300.767 119.659 300.392 120.969 300.403C121.885 300.412 125.053 300.497 127.389 301.191C129.84 301.919 131.878 301.914 132.857 301.914H132.997H133.137C134.116 301.914 136.155 301.919 138.605 301.191C140.943 300.497 144.11 300.412 145.025 300.403C146.329 300.392 147.403 300.767 147.521 300.811C148.254 301.08 148.63 301.892 148.363 302.626C148.095 303.358 147.287 303.736 146.555 303.47C146.529 303.461 145.84 303.217 145.054 303.233C143.437 303.249 140.989 303.434 139.41 303.903C136.706 304.706 134.478 304.743 133.308 304.743Z" fill="#CFDCDB"/>
<path d="M119.79 288.896C119.79 288.896 108.104 290.544 107.077 295.796C106.281 299.869 122.392 304.331 132.609 301.662C132.609 301.662 148.988 306.774 160.045 294.532C160.045 294.532 156.138 288.093 145.759 289.267C135.379 290.44 119.79 288.896 119.79 288.896Z" fill="#764534"/>
<path d="M132.918 248.613C135.646 248.613 144.071 248.819 147.24 250.754C150.409 252.69 159.258 268.794 159.258 268.794C159.258 268.794 153.578 269.329 152.014 270.854L147.734 265.21L145.759 289.264C145.759 289.264 138.886 291.529 133.618 291.529C128.351 291.529 119.79 288.893 119.79 288.893L118.967 264.015L112.259 272.17C112.259 272.17 107.526 269.411 105.962 269.617C105.962 269.617 111.847 255.694 117.732 252.029C123.618 248.367 132.918 248.613 132.918 248.613Z" fill="#FBB03B"/>
<path d="M105.962 269.621C105.962 269.621 102.784 277.022 105.73 278.251C108.677 279.479 110.961 279.524 114.202 278.764C117.444 278.004 126.799 275.902 126.799 275.902C126.799 275.902 124.906 273.137 125.595 271.441L111.991 272.768L112.258 272.173C112.258 272.174 109.066 269.494 105.962 269.621Z" fill="#FDE3CA"/>
<path d="M159.258 268.796C159.258 268.796 162.337 277.021 159.39 278.249C156.443 279.478 154.16 279.522 150.918 278.763C147.676 278.003 138.321 275.901 138.321 275.901C138.321 275.901 140.214 273.136 139.525 271.44L153.129 272.767L152.015 270.854C152.015 270.855 156.152 268.671 159.258 268.796Z" fill="#FDE3CA"/>
<path d="M145.553 279.215H120.556C120.049 279.215 119.636 278.8 119.636 278.294L117.84 261.685C117.84 261.178 118.254 260.765 118.759 260.765H147.351C147.857 260.765 148.271 261.18 148.271 261.685L146.474 278.294C146.473 278.801 146.058 279.215 145.553 279.215Z" fill="#EAEAEA"/>
<path d="M110.472 292.691C114.759 291.587 121.96 296.5 121.343 306.167C120.727 315.834 122.288 329.918 122.288 329.918C122.288 329.918 117.047 328.494 114.376 330.569C114.376 330.569 108.622 312.642 107.748 305.957C106.876 299.273 105.283 294.028 110.472 292.691Z" fill="#9C5C46"/>
<path d="M122.288 329.918C122.346 330.048 125.009 336.31 122.903 337.364C120.797 338.418 111.907 338.109 111.35 337.551C110.792 336.993 110.08 336.094 110.916 334.947C111.752 333.801 114.377 330.57 114.377 330.57C114.377 330.57 115.532 329.337 118.102 329.151C120.673 328.964 122.288 329.918 122.288 329.918Z" fill="#331D16"/>
<path d="M157.209 292.691C152.922 291.587 145.72 296.5 146.338 306.167C146.955 315.834 145.393 329.918 145.393 329.918C145.393 329.918 150.633 328.494 153.305 330.569C153.305 330.569 159.059 312.642 159.933 305.957C160.805 299.273 162.397 294.028 157.209 292.691Z" fill="#9C5C46"/>
<path d="M145.393 329.918C145.335 330.048 142.671 336.31 144.778 337.364C146.884 338.418 155.774 338.109 156.331 337.551C156.889 336.993 157.6 336.094 156.765 334.947C155.929 333.801 153.304 330.57 153.304 330.57C153.304 330.57 152.149 329.337 149.578 329.151C147.008 328.964 145.393 329.918 145.393 329.918Z" fill="#331D16"/>
<path d="M132.711 253.506C130.095 253.506 127.974 251.383 127.974 248.765V245.494H137.45V248.765C137.448 251.384 135.328 253.506 132.711 253.506Z" fill="#F0D6BE"/>
<path d="M132.403 244.224C130.757 244.129 126.058 243.451 125.173 241.808C124.286 240.166 121.969 234.336 125.027 231.824C125.027 231.824 124.674 228.765 131.946 228.765C139.218 228.765 142.05 233.371 140.055 241.196C140.053 241.196 136.915 244.481 132.403 244.224Z" fill="#572C3D"/>
<path d="M132.452 249.568V249.548C128.708 249.548 125.595 245.567 125.595 241.819V234.861C125.595 233.422 126.771 232.243 128.21 232.243H136.596C138.034 232.243 139.211 233.42 139.211 234.861V241.819C139.21 245.565 136.197 249.568 132.452 249.568Z" fill="#FDE3CA"/>
<path d="M126.242 241.411C126.242 241.411 125.126 239.511 124.157 240.666C123.189 241.822 124.939 244.764 126.465 244.689L126.242 241.411Z" fill="#FDE3CA"/>
<path d="M138.433 241.411C138.433 241.411 139.549 239.511 140.518 240.666C141.486 241.822 139.736 244.764 138.21 244.689L138.433 241.411Z" fill="#FDE3CA"/>
<path d="M125.595 239.36C125.595 239.263 125.799 236.236 126.829 234.852C126.829 234.852 131.978 238.941 139.732 234.852C139.732 234.852 139.379 230.891 135.709 230.987C132.042 231.084 126.378 231.856 126.281 231.888C126.184 231.92 125.173 233.853 125.173 233.853L125.595 239.36Z" fill="#572C3D"/>
<path d="M46.0529 294.683C46.0529 294.683 45.8412 301.185 47.5341 304.121C49.2271 307.058 49.8471 317.446 49.8471 317.446C49.8471 317.446 53.3453 318.462 55.037 317.672L54.3634 295.472C54.3621 295.471 48.5917 295.191 46.0529 294.683Z" fill="#2A2B2A"/>
<path d="M49.8471 318.286C49.8471 318.286 48.3889 320.12 49.1416 321.228C49.8943 322.335 53.2139 324.773 56.7988 325.259C60.3838 325.747 63.7033 326.455 64.6334 325.657C65.5634 324.859 62.5526 324.195 60.4731 322.911C58.3923 321.627 55.0383 318.512 55.0383 318.512L49.8471 318.286Z" fill="#541B53"/>
<path d="M24.3482 291.757C24.3482 291.757 47.4219 297.34 48.7193 300.389C50.0168 303.438 55.4886 328.06 55.4886 328.06C55.4886 328.06 52.724 330.657 49.6213 329.359C49.6213 329.359 46.8006 318.801 45.9547 317.446C45.1089 316.091 41.6668 310.163 42.1185 305.59C42.1185 305.59 15.886 305.42 14.8143 299.097C13.7427 292.773 24.3482 291.757 24.3482 291.757Z" fill="#1E1E1E"/>
<path d="M49.6213 330.199C49.6213 330.199 48.727 334.029 50.5717 335.048C52.4165 336.067 60.2064 338.06 64.146 337.264C68.0856 336.467 68.0409 335.181 66.6248 334.252C65.2087 333.321 55.4886 328.9 55.4886 328.9C55.4886 328.9 53.5099 331.153 49.6213 330.199Z" fill="#541B53"/>
<path d="M35.1731 242.11C36.1695 241.671 37.5231 240.917 37.7949 238.994C38.0666 237.071 38.1215 235.948 38.1521 235.361C38.1993 234.474 37.0154 228.966 29.6439 228.769C22.2738 228.572 22.312 237.127 22.1168 238.736C21.9204 240.345 20.0782 249.095 17.1375 250.154C17.1375 250.154 17.177 251.881 22.0377 251.489C26.8997 251.097 32.4277 244.19 32.4277 244.19L35.1731 242.11Z" fill="#A14A24"/>
<path d="M33.8234 265.449C33.8234 265.449 33.6779 270.8 36.7398 271.529C39.8017 272.258 42.6696 272.989 42.6696 272.989C42.6696 272.989 41.2114 275.08 41.552 277.172C41.552 277.172 34.6513 278.387 32.1968 276.296C29.7422 274.204 28.9155 267.054 28.9155 267.054L33.8234 265.449Z" fill="#0097B0"/>
<path d="M23.2242 245.509C23.2242 245.509 19.2004 248.929 16.358 249.917C13.5156 250.905 14.1866 258.885 14.5821 263.35C14.9763 267.815 11.5419 290.256 10.7918 290.613C10.7918 290.613 28.1232 290.929 34.4396 285.397C34.4396 285.397 30.7679 277.336 33.2556 264.654C35.7434 251.971 27.8872 249.245 27.8872 249.245L23.2242 245.509Z" fill="#323233"/>
<path d="M28.0109 248.577C28.0109 248.577 32.4825 250.733 33.3118 253.337C34.141 255.942 35.1935 261.953 34.4383 267.248C33.683 272.543 33.026 282.876 36.4004 285.138C36.4004 285.138 33.8833 287.456 31.9964 287.399C31.9964 287.399 28.0492 283.277 28.6782 275.749C29.3071 268.221 29.9654 262.954 29.5929 259.49C29.2216 256.029 28.0109 248.577 28.0109 248.577Z" fill="#00A8C5"/>
<path d="M42.6683 272.989L52.0236 274.275C52.0236 274.275 50.4493 276.593 50.7695 277.523L41.5495 277.172C41.5507 277.173 40.9792 275.034 42.6683 272.989Z" fill="#FDE3CA"/>
<path d="M10.5264 291.192C10.5264 291.192 43.4096 281.764 46.7406 281.933C50.0717 282.103 53.0595 282.652 53.6821 284.192C54.9796 287.401 54.3621 295.471 54.3621 295.471C54.3621 295.471 48.2103 296.612 46.1231 295.766C46.1231 295.766 45.7225 293.959 46.7406 292.887C46.7406 292.887 23.8519 304.573 17.6121 302.372C11.3735 300.17 10.8658 296.782 10.5264 291.192Z" fill="#2A2B2A"/>
<path d="M27.322 238.189C26.8704 240.167 25.8038 247.304 30.0203 248.485C34.2367 249.666 37.6099 239.033 37.5257 234.728C37.4415 230.425 28.6718 232.281 27.322 238.189Z" fill="#FDE3CA"/>
<path d="M26.8627 239.64C26.9852 239.673 28.9741 240.238 31.0435 238.974C33.1128 237.71 33.4623 235.532 34.6705 235.129C35.8786 234.725 37.5269 235.129 37.5269 235.129C37.5269 235.129 38.2171 232.278 35.4487 231.606C32.6815 230.933 25.6546 233.515 25.5398 236.366C25.4275 239.216 26.8627 239.64 26.8627 239.64Z" fill="#A14A24"/>
<path d="M28.5123 240.099C28.4613 239.842 28.9244 236.436 26.605 237.313C24.2857 238.191 26.3027 242.628 27.5619 242.061C28.821 241.492 28.5123 240.099 28.5123 240.099Z" fill="#FDE3CA"/>
<path d="M30.2372 247.5L26.8627 250.005C26.8627 250.005 24.5612 249.807 23.2242 245.509L27.2544 240.83C27.2544 240.83 26.3409 245.536 30.2372 247.5Z" fill="#FDE3CA"/>
<path d="M23.2242 245.509C23.2242 245.509 25.1621 251.459 25.2757 257.585C25.3905 263.71 22.9397 276.076 22.964 280.255C22.9882 284.434 23.5023 288.385 23.5023 288.385C23.5023 288.385 18.0114 292.965 9.94594 293.136C9.94594 293.136 10.2891 289.072 11.3761 284.778C12.463 280.484 14.0067 266.402 13.8358 264.054C13.6636 261.707 12.9772 252.195 15.3233 250.082C17.6682 247.967 23.2242 245.509 23.2242 245.509Z" fill="#00A8C5"/>
<path d="M17.8302 249.614C19.6725 250.104 20.1649 254.019 18.6582 258.251C17.1515 262.482 14.7212 268.682 15.1588 269.571C15.5964 270.459 18.0752 271.919 18.0752 271.919C18.0752 271.919 15.7903 274.059 15.6933 277.172C15.6933 277.172 9.47263 277.075 8.20834 273.815C6.94532 270.556 11.2217 255.867 11.2217 255.867C11.2217 255.867 13.9914 248.593 17.8302 249.614Z" fill="#0097B0"/>
<path d="M18.0752 271.919C18.0752 271.919 28.2546 275.615 30.2359 275.372C32.2184 275.13 34.4574 273.136 36.3992 273.281C38.3409 273.427 39.7506 274.157 39.7506 277.173C39.7506 277.173 38.3154 278.194 37.5257 277.805C36.7372 277.415 37.2718 275.373 36.9312 275.421C36.5905 275.47 33.8438 279.069 32.2031 278.826C30.5638 278.584 28.9116 277.805 28.9116 277.805L15.692 277.173C15.6946 277.173 15.5479 273.719 18.0752 271.919Z" fill="#FDE3CA"/>
<path d="M50.7299 279.612H33.2391C32.8015 279.612 32.4442 279.254 32.4442 278.816C32.4442 278.378 32.8015 278.021 33.2391 278.021H50.7299C51.1675 278.021 51.5248 278.378 51.5248 278.816C51.5248 279.254 51.1675 279.612 50.7299 279.612Z" fill="#D1D1D1"/>
<path d="M66.2829 279.612H49.1467C49.1314 279.612 49.1148 279.61 49.0995 279.609C48.8482 279.58 48.7066 279.3 48.8048 279.066L56.1699 261.551C56.1699 261.33 56.351 261.149 56.5717 261.149H73.708C73.9287 261.149 74.1098 261.33 74.1098 261.551L66.6848 279.209C66.6848 279.43 66.5036 279.612 66.2829 279.612Z" fill="#EAEAEA"/>
<path d="M0.00127313 288.645H6.01401C7.33699 288.645 7.50794 287.629 7.39057 286.311L6.42353 265.633H2.46352C1.10227 265.633 0 266.738 0 268.099V288.645H0.00127313Z" fill="#C89B60"/>
<path d="M0.00178146 309.137H40.8942V302.627H0.00178146V309.137Z" fill="#DBB87A"/>
<path opacity="0.6" d="M0.00178146 309.137H40.8942V308.384H0.00178146V309.137Z" fill="#996930"/>
<path d="M34.983 336.607H40.8936V309.138H34.983V336.607Z" fill="#E8C380"/>
<path d="M0.00144958 336.606H5.91212V265.632H2.20599C0.9889 265.632 0.00144958 266.62 0.00144958 267.838V336.606Z" fill="#E8C380"/>
<path d="M37.8752 305.882C38.2346 305.882 38.5259 305.591 38.5259 305.231C38.5259 304.871 38.2346 304.58 37.8752 304.58C37.5159 304.58 37.2246 304.871 37.2246 305.231C37.2246 305.591 37.5159 305.882 37.8752 305.882Z" fill="#E8E7E7"/>
<path d="M3.01721 305.882C3.37655 305.882 3.66785 305.591 3.66785 305.231C3.66785 304.871 3.37655 304.58 3.01721 304.58C2.65787 304.58 2.36656 304.871 2.36656 305.231C2.36656 305.591 2.65787 305.882 3.01721 305.882Z" fill="#E8E7E7"/>
<path d="M3.01721 285.098C3.37655 285.098 3.66785 284.806 3.66785 284.447C3.66785 284.087 3.37655 283.796 3.01721 283.796C2.65787 283.796 2.36656 284.087 2.36656 284.447C2.36656 284.806 2.65787 285.098 3.01721 285.098Z" fill="#E8E7E7"/>
<path d="M3.01721 272.479C3.37655 272.479 3.66785 272.188 3.66785 271.828C3.66785 271.469 3.37655 271.177 3.01721 271.177C2.65787 271.177 2.36656 271.469 2.36656 271.828C2.36656 272.188 2.65787 272.479 3.01721 272.479Z" fill="#E8E7E7"/>
<path d="M41.9088 283.513V287.896H224.278V283.513H41.9088Z" fill="#B27A37"/>
<path d="M231.897 283.514H33.4457C32.7275 283.514 32.1406 282.926 32.1406 282.207V280.522C32.1406 279.803 32.7275 279.216 33.4457 279.216H231.897C232.615 279.216 233.202 279.803 233.202 280.522V282.207C233.202 282.925 232.615 283.514 231.897 283.514Z" fill="#E4C080"/>
<path d="M41.908 283.514H37.5295V336.607H41.908V283.514Z" fill="#C59651"/>
<path d="M228.656 283.514H224.278V336.607H228.656V283.514Z" fill="#C59651"/>
<path d="M198.992 266.667C198.992 266.667 201.385 259.776 207.224 263.756C207.224 263.756 202.438 252.958 196.981 267.11L198.992 266.667Z" fill="#67A846"/>
<path d="M196.981 267.11C196.981 267.11 198.322 254.464 205.789 257.338C205.789 257.338 199.757 257.986 198.992 266.667L196.981 267.11Z" fill="#67A846"/>
<path d="M193.918 266.727C193.918 266.727 188.748 260.691 186.068 267.398C186.068 267.398 186.929 259.254 194.109 263.277C194.109 263.277 195.642 264.811 196.311 267.015L193.918 266.727Z" fill="#67A846"/>
<path d="M197.556 267.11C197.556 267.11 195.93 249.194 187.409 259.35C187.409 259.35 193.152 254.464 196.313 267.015L197.556 267.11Z" fill="#67A846"/>
<path d="M197.556 267.11C197.556 267.11 198.515 252.547 207.992 255.23C207.992 255.23 201.004 250.631 196.791 258.487C196.791 258.487 195.642 260.403 196.6 264.235C197.556 268.068 197.556 267.11 197.556 267.11Z" fill="#67A846"/>
<path d="M196.073 266.583C196.073 266.583 194.206 260.978 189.467 261.265C189.467 261.265 192.721 259.54 196.598 264.235L196.311 267.013L196.073 266.583Z" fill="#67A846"/>
<path d="M203.953 267.96L203.821 268.698H189.306L189.173 267.96C189.006 267.03 189.64 266.268 190.584 266.268H202.545C203.489 266.268 204.122 267.03 203.953 267.96Z" fill="#F0962A"/>
<path d="M203.13 268.581L202.971 269.456H190.156L189.996 268.581H203.13Z" fill="#D18733"/>
<path d="M202.971 269.456L201.473 277.737C201.323 278.577 200.498 279.266 199.644 279.266H193.483C192.629 279.266 191.807 278.579 191.653 277.737L190.156 269.456H202.971Z" fill="#F0962A"/>
<path d="M91.6071 269.617C90.612 270.441 89.4549 270.685 89.0224 270.163C88.5899 269.641 89.0466 268.548 90.0417 267.724C91.0368 266.901 92.194 266.656 92.6264 267.179C93.0589 267.7 92.6022 268.792 91.6071 269.617Z" fill="#6BB94D"/>
<path d="M92.1812 267.547C92.3381 267.739 92.6341 267.493 92.4772 267.302C92.319 267.112 92.023 267.357 92.1812 267.547Z" fill="#67A846"/>
<path d="M92.2322 268.152C92.3904 268.342 92.6851 268.099 92.5282 267.907C92.37 267.717 92.0753 267.962 92.2322 268.152Z" fill="#67A846"/>
<path d="M91.1338 268.148C91.292 268.34 91.5867 268.095 91.4298 267.903C91.2716 267.713 90.9769 267.957 91.1338 268.148Z" fill="#67A846"/>
<path d="M91.3353 268.812C91.4923 269.002 91.7882 268.759 91.6313 268.567C91.4731 268.377 91.1771 268.622 91.3353 268.812Z" fill="#67A846"/>
<path d="M90.4155 269.407C90.5737 269.598 90.8684 269.354 90.7115 269.162C90.5546 268.972 90.2586 269.217 90.4155 269.407Z" fill="#67A846"/>
<path d="M89.5761 269.073C89.7343 269.264 90.029 269.019 89.872 268.828C89.7138 268.637 89.4191 268.882 89.5761 269.073Z" fill="#67A846"/>
<path d="M90.2726 268.612C90.4308 268.802 90.7255 268.558 90.5686 268.367C90.4117 268.176 90.1157 268.421 90.2726 268.612Z" fill="#67A846"/>
<path d="M90.7038 268.953C90.862 269.143 91.1568 268.899 90.9998 268.708C90.8416 268.517 90.5469 268.761 90.7038 268.953Z" fill="#67A846"/>
<path d="M90.5214 268.008C90.6796 268.198 90.9743 267.954 90.8174 267.763C90.6592 267.573 90.3632 267.818 90.5214 268.008Z" fill="#67A846"/>
<path d="M91.2601 267.396C91.4183 267.588 91.713 267.343 91.5561 267.151C91.3979 266.961 91.1019 267.206 91.2601 267.396Z" fill="#67A846"/>
<path d="M91.6415 267.778C91.7997 267.97 92.0944 267.724 91.9375 267.533C91.7793 267.343 91.4833 267.588 91.6415 267.778Z" fill="#67A846"/>
<path d="M91.6785 268.345C91.8367 268.536 92.1314 268.291 91.9745 268.1C91.8163 267.909 91.5203 268.155 91.6785 268.345Z" fill="#67A846"/>
<path d="M91.1657 269.451C91.3239 269.641 91.6186 269.397 91.4617 269.205C91.3035 269.015 91.0075 269.26 91.1657 269.451Z" fill="#67A846"/>
<path d="M90.2025 270.232C90.3607 270.422 90.6554 270.178 90.4984 269.987C90.3402 269.797 90.0443 270.042 90.2025 270.232Z" fill="#67A846"/>
<path d="M89.2482 270.042C89.4063 270.232 89.7011 269.988 89.5441 269.797C89.3859 269.607 89.0912 269.852 89.2482 270.042Z" fill="#67A846"/>
<path d="M89.7776 269.719C89.9358 269.909 90.2305 269.665 90.0736 269.474C89.9154 269.284 89.6207 269.529 89.7776 269.719Z" fill="#67A846"/>
<path d="M90.1131 269.161C90.2713 269.351 90.5661 269.107 90.4091 268.916C90.2509 268.724 89.9549 268.969 90.1131 269.161Z" fill="#67A846"/>
<path d="M89.7381 268.325C89.8963 268.515 90.191 268.271 90.0341 268.079C89.8759 267.889 89.5799 268.134 89.7381 268.325Z" fill="#67A846"/>
<path d="M90.857 268.494C91.0151 268.685 91.3098 268.441 91.1529 268.249C90.9947 268.059 90.6988 268.304 90.857 268.494Z" fill="#67A846"/>
<path d="M90.9182 267.647C91.0764 267.838 91.3711 267.593 91.2141 267.401C91.0559 267.21 90.7612 267.455 90.9182 267.647Z" fill="#67A846"/>
<path d="M91.6696 269.117C91.8278 269.308 92.1225 269.064 91.9656 268.872C91.8074 268.681 91.5114 268.926 91.6696 269.117Z" fill="#67A846"/>
<path d="M92.0804 268.611C92.2386 268.801 92.5333 268.557 92.3764 268.365C92.2182 268.175 91.9222 268.42 92.0804 268.611Z" fill="#67A846"/>
<path d="M91.8725 267.354C92.0307 267.544 92.3253 267.301 92.1684 267.109C92.0102 266.919 91.7143 267.164 91.8725 267.354Z" fill="#67A846"/>
<path d="M90.6273 269.863C90.7855 270.053 91.0802 269.81 90.9233 269.618C90.7651 269.428 90.4691 269.673 90.6273 269.863Z" fill="#67A846"/>
<path d="M90.8353 269.292C90.9934 269.483 91.2881 269.239 91.1312 269.047C90.973 268.857 90.6783 269.101 90.8353 269.292Z" fill="#67A846"/>
<path d="M89.0887 269.527C89.2469 269.717 89.5416 269.474 89.3847 269.282C89.2265 269.092 88.9305 269.336 89.0887 269.527Z" fill="#67A846"/>
<path d="M89.3987 268.838C89.5557 269.029 89.8516 268.784 89.6947 268.593C89.5365 268.402 89.2405 268.648 89.3987 268.838Z" fill="#67A846"/>
<path d="M89.8248 268.751C89.983 268.941 90.2777 268.697 90.1208 268.506C89.9626 268.315 89.6666 268.561 89.8248 268.751Z" fill="#67A846"/>
<path d="M90.0851 268.003C90.2433 268.194 90.538 267.949 90.3811 267.758C90.2229 267.569 89.9282 267.813 90.0851 268.003Z" fill="#67A846"/>
<path d="M90.4129 267.616C90.5711 267.806 90.8659 267.561 90.7089 267.371C90.5507 267.18 90.2548 267.426 90.4129 267.616Z" fill="#67A846"/>
<path d="M89.6603 270.099C89.8185 270.29 90.1132 270.046 89.9562 269.854C89.798 269.664 89.5033 269.909 89.6603 270.099Z" fill="#67A846"/>
<path d="M90.2981 269.787C90.4563 269.977 90.751 269.733 90.5941 269.541C90.4359 269.351 90.1412 269.596 90.2981 269.787Z" fill="#67A846"/>
<path d="M89.4612 269.417C89.6194 269.608 89.9141 269.364 89.7572 269.172C89.599 268.981 89.3043 269.226 89.4612 269.417Z" fill="#67A846"/>
<path d="M85.912 264.859C87.2861 266.158 87.8474 267.795 87.1661 268.516C86.4849 269.237 84.82 268.769 83.446 267.47C82.0719 266.172 81.5106 264.535 82.1919 263.814C82.8731 263.093 84.538 263.561 85.912 264.859Z" fill="#6BB94D"/>
<path d="M82.8081 264.397C83.0568 264.134 82.6486 263.749 82.3998 264.012C82.1523 264.275 82.5593 264.66 82.8081 264.397Z" fill="#67A846"/>
<path d="M83.6756 264.213C83.9244 263.95 83.5161 263.565 83.2673 263.828C83.0198 264.091 83.4281 264.476 83.6756 264.213Z" fill="#67A846"/>
<path d="M83.867 265.809C84.1158 265.546 83.7075 265.161 83.4587 265.424C83.2112 265.687 83.6182 266.072 83.867 265.809Z" fill="#67A846"/>
<path d="M84.7945 265.399C85.0432 265.136 84.635 264.751 84.3862 265.014C84.1387 265.277 84.5457 265.662 84.7945 265.399Z" fill="#67A846"/>
<path d="M85.8215 266.628C86.0702 266.365 85.662 265.979 85.4132 266.242C85.1657 266.505 85.5727 266.891 85.8215 266.628Z" fill="#67A846"/>
<path d="M85.4872 267.908C85.736 267.645 85.3277 267.26 85.0802 267.523C84.8314 267.786 85.2397 268.171 85.4872 267.908Z" fill="#67A846"/>
<path d="M84.6937 266.977C84.9424 266.714 84.5342 266.329 84.2854 266.592C84.0379 266.855 84.4462 267.241 84.6937 266.977Z" fill="#67A846"/>
<path d="M85.1108 266.291C85.3596 266.028 84.9514 265.642 84.7026 265.905C84.4551 266.168 84.8621 266.554 85.1108 266.291Z" fill="#67A846"/>
<path d="M83.7738 266.726C84.0226 266.463 83.6144 266.077 83.3656 266.34C83.1181 266.603 83.5251 266.989 83.7738 266.726Z" fill="#67A846"/>
<path d="M82.7545 265.762C83.0033 265.499 82.595 265.113 82.3462 265.376C82.0987 265.639 82.5057 266.025 82.7545 265.762Z" fill="#67A846"/>
<path d="M83.2393 265.139C83.4881 264.876 83.0798 264.49 82.831 264.753C82.5835 265.016 82.9918 265.402 83.2393 265.139Z" fill="#67A846"/>
<path d="M84.0558 264.983C84.3045 264.72 83.8963 264.334 83.6475 264.598C83.3987 264.862 83.807 265.247 84.0558 264.983Z" fill="#67A846"/>
<path d="M85.75 265.531C85.9988 265.268 85.5905 264.882 85.3418 265.145C85.0943 265.408 85.5025 265.794 85.75 265.531Z" fill="#67A846"/>
<path d="M87.0564 266.791C87.3052 266.528 86.8969 266.143 86.6481 266.406C86.4006 266.669 86.8076 267.054 87.0564 266.791Z" fill="#67A846"/>
<path d="M86.9518 268.211C87.2006 267.948 86.7923 267.562 86.5436 267.825C86.2948 268.088 86.703 268.474 86.9518 268.211Z" fill="#67A846"/>
<path d="M86.3892 267.498C86.638 267.235 86.2297 266.85 85.9809 267.113C85.7322 267.376 86.1404 267.762 86.3892 267.498Z" fill="#67A846"/>
<path d="M85.5178 267.113C85.7666 266.85 85.3583 266.464 85.1096 266.727C84.8621 266.99 85.269 267.376 85.5178 267.113Z" fill="#67A846"/>
<path d="M84.3734 267.808C84.6222 267.545 84.214 267.159 83.9652 267.422C83.7177 267.685 84.1247 268.071 84.3734 267.808Z" fill="#67A846"/>
<path d="M84.4194 266.151C84.6669 265.888 84.2599 265.503 84.0111 265.766C83.7623 266.029 84.1706 266.414 84.4194 266.151Z" fill="#67A846"/>
<path d="M83.1781 266.213C83.4268 265.95 83.0186 265.564 82.7698 265.827C82.521 266.091 82.9293 266.476 83.1781 266.213Z" fill="#67A846"/>
<path d="M85.1759 264.859C85.4247 264.596 85.0164 264.211 84.7676 264.474C84.5201 264.737 84.9271 265.122 85.1759 264.859Z" fill="#67A846"/>
<path d="M84.3683 264.352C84.6171 264.089 84.2089 263.704 83.9601 263.967C83.7113 264.23 84.1196 264.616 84.3683 264.352Z" fill="#67A846"/>
<path d="M82.5835 264.88C82.8323 264.617 82.4241 264.231 82.1753 264.494C81.9278 264.757 82.336 265.143 82.5835 264.88Z" fill="#67A846"/>
<path d="M86.4453 266.239C86.6941 265.976 86.2858 265.591 86.0371 265.854C85.7896 266.117 86.1965 266.502 86.4453 266.239Z" fill="#67A846"/>
<path d="M85.5803 266.039C85.8291 265.776 85.4209 265.39 85.1721 265.653C84.9233 265.916 85.3316 266.302 85.5803 266.039Z" fill="#67A846"/>
<path d="M86.2335 268.535C86.4823 268.272 86.074 267.886 85.8253 268.15C85.5765 268.413 85.9847 268.798 86.2335 268.535Z" fill="#67A846"/>
<path d="M85.1785 268.208C85.4272 267.945 85.019 267.56 84.7702 267.823C84.5227 268.086 84.9297 268.471 85.1785 268.208Z" fill="#67A846"/>
<path d="M84.9756 267.604C85.2244 267.341 84.8161 266.956 84.5674 267.219C84.3199 267.482 84.7281 267.867 84.9756 267.604Z" fill="#67A846"/>
<path d="M83.8453 267.359C84.094 267.096 83.6858 266.711 83.437 266.974C83.1895 267.237 83.5965 267.622 83.8453 267.359Z" fill="#67A846"/>
<path d="M83.2252 266.953C83.474 266.69 83.0658 266.305 82.817 266.568C82.5682 266.831 82.9765 267.216 83.2252 266.953Z" fill="#67A846"/>
<path d="M86.9607 267.601C87.2095 267.338 86.8012 266.952 86.5525 267.215C86.3037 267.479 86.7119 267.865 86.9607 267.601Z" fill="#67A846"/>
<path d="M86.393 266.73C86.6405 266.467 86.2335 266.081 85.9848 266.344C85.7373 266.609 86.1442 266.994 86.393 266.73Z" fill="#67A846"/>
<path d="M86.0064 268.013C86.2552 267.75 85.847 267.365 85.5982 267.628C85.3507 267.891 85.7577 268.276 86.0064 268.013Z" fill="#67A846"/>
<path d="M90.8289 265.91C90.8289 269.485 89.3094 272.384 87.4353 272.384C85.5612 272.384 84.0417 269.485 84.0417 265.91C84.0417 262.335 85.5612 259.437 87.4353 259.437C89.3094 259.435 90.8289 262.334 90.8289 265.91Z" fill="#6BB94D"/>
<path d="M87.4353 261.039C88.1191 261.039 88.1191 259.978 87.4353 259.978C86.7515 259.978 86.7515 261.039 87.4353 261.039Z" fill="#67A846"/>
<path d="M88.8144 261.994C89.4983 261.994 89.4983 260.933 88.8144 260.933C88.1294 260.933 88.1294 261.994 88.8144 261.994Z" fill="#67A846"/>
<path d="M86.8689 264.33C87.5527 264.33 87.5527 263.269 86.8689 263.269C86.1851 263.269 86.1851 264.33 86.8689 264.33Z" fill="#67A846"/>
<path d="M88.6371 265.073C89.3209 265.073 89.3209 264.011 88.6371 264.011C87.9533 264.011 87.9533 265.073 88.6371 265.073Z" fill="#67A846"/>
<path d="M88.2837 268.081C88.9675 268.081 88.9675 267.02 88.2837 267.02C87.5999 267.018 87.5999 268.081 88.2837 268.081Z" fill="#67A846"/>
<path d="M86.0919 269.283C86.7757 269.283 86.7757 268.222 86.0919 268.222C85.4081 268.221 85.4081 269.283 86.0919 269.283Z" fill="#67A846"/>
<path d="M86.3394 266.984C87.0232 266.984 87.0232 265.923 86.3394 265.923C85.6556 265.922 85.6556 266.984 86.3394 266.984Z" fill="#67A846"/>
<path d="M87.8244 266.665C88.5082 266.665 88.5082 265.604 87.8244 265.604C87.1393 265.604 87.1393 266.665 87.8244 266.665Z" fill="#67A846"/>
<path d="M85.491 265.392C86.1748 265.392 86.1748 264.331 85.491 264.331C84.8059 264.33 84.8059 265.392 85.491 265.392Z" fill="#67A846"/>
<path d="M85.491 262.737C86.1748 262.737 86.1748 261.676 85.491 261.676C84.8059 261.676 84.8059 262.737 85.491 262.737Z" fill="#67A846"/>
<path d="M86.976 262.597C87.6599 262.597 87.6599 261.536 86.976 261.536C86.2909 261.535 86.2909 262.597 86.976 262.597Z" fill="#67A846"/>
<path d="M88.248 263.516C88.9318 263.516 88.9318 262.455 88.248 262.455C87.5642 262.455 87.5642 263.516 88.248 263.516Z" fill="#67A846"/>
<path d="M89.6972 266.559C90.3811 266.559 90.3811 265.498 89.6972 265.498C89.0134 265.498 89.0134 266.559 89.6972 266.559Z" fill="#67A846"/>
<path d="M89.6628 269.991C90.3466 269.991 90.3466 268.93 89.6628 268.93C88.9777 268.93 88.9777 269.991 89.6628 269.991Z" fill="#67A846"/>
<path d="M87.5769 271.689C88.2607 271.689 88.2607 270.628 87.5769 270.628C86.8931 270.628 86.8931 271.689 87.5769 271.689Z" fill="#67A846"/>
<path d="M87.8244 269.991C88.5082 269.991 88.5082 268.93 87.8244 268.93C87.1393 268.93 87.1393 269.991 87.8244 269.991Z" fill="#67A846"/>
<path d="M87.2222 268.293C87.9061 268.293 87.9061 267.232 87.2222 267.232C86.5384 267.232 86.5384 268.293 87.2222 268.293Z" fill="#67A846"/>
<path d="M84.783 267.621C85.4668 267.621 85.4668 266.56 84.783 266.56C84.0992 266.559 84.0992 267.621 84.783 267.621Z" fill="#67A846"/>
<path d="M87.1163 265.533C87.8002 265.533 87.8002 264.472 87.1163 264.472C86.4325 264.472 86.4325 265.533 87.1163 265.533Z" fill="#67A846"/>
<path d="M85.4196 263.905C86.1034 263.905 86.1034 262.844 85.4196 262.844C84.7358 262.843 84.7358 263.905 85.4196 263.905Z" fill="#67A846"/>
<path d="M89.8746 264.896C90.5584 264.896 90.5584 263.835 89.8746 263.835C89.1908 263.834 89.1908 264.896 89.8746 264.896Z" fill="#67A846"/>
<path d="M89.5212 263.127C90.205 263.127 90.205 262.066 89.5212 262.066C88.8374 262.066 88.8374 263.127 89.5212 263.127Z" fill="#67A846"/>
<path d="M86.481 261.358C87.1649 261.358 87.1649 260.297 86.481 260.297C85.796 260.296 85.796 261.358 86.481 261.358Z" fill="#67A846"/>
<path d="M89.6271 268.435C90.3109 268.435 90.3109 267.374 89.6271 267.374C88.9433 267.372 88.9433 268.435 89.6271 268.435Z" fill="#67A846"/>
<path d="M88.7787 266.984C89.4625 266.984 89.4625 265.923 88.7787 265.923C88.0949 265.922 88.0949 266.984 88.7787 266.984Z" fill="#67A846"/>
<path d="M86.1978 271.124C86.8816 271.124 86.8816 270.062 86.1978 270.062C85.514 270.062 85.514 271.124 86.1978 271.124Z" fill="#67A846"/>
<path d="M85.278 269.248C85.9618 269.248 85.9618 268.187 85.278 268.187C84.5942 268.187 84.5942 269.248 85.278 269.248Z" fill="#67A846"/>
<path d="M85.8444 268.187C86.5282 268.187 86.5282 267.126 85.8444 267.126C85.1606 267.126 85.1606 268.187 85.8444 268.187Z" fill="#67A846"/>
<path d="M84.7128 266.311C85.3966 266.311 85.3966 265.25 84.7128 265.25C84.029 265.25 84.029 266.311 84.7128 266.311Z" fill="#67A846"/>
<path d="M84.4653 264.931C85.1491 264.931 85.1491 263.87 84.4653 263.87C83.7815 263.87 83.7815 264.931 84.4653 264.931Z" fill="#67A846"/>
<path d="M88.4253 270.911C89.1091 270.911 89.1091 269.85 88.4253 269.85C87.7415 269.849 87.7415 270.911 88.4253 270.911Z" fill="#67A846"/>
<path d="M88.8846 269C89.5684 269 89.5684 267.939 88.8846 267.939C88.2008 267.939 88.2008 269 88.8846 269Z" fill="#67A846"/>
<path d="M86.6214 270.133C87.3052 270.133 87.3052 269.072 86.6214 269.072C85.9375 269.072 85.9375 270.133 86.6214 270.133Z" fill="#67A846"/>
<path d="M82.9918 272.478V276.743C82.9918 278.22 84.1999 279.429 85.676 279.429H89.1653C90.6413 279.429 91.8495 278.22 91.8495 276.743V272.478H82.9918Z" fill="#C6C5C4"/>
<path d="M92.879 271.124H81.9622V272.478H92.879V271.124Z" fill="#C6C5C4"/>
<path d="M91.8495 272.478H82.9918V273.154H91.8495V272.478Z" fill="#AAAAAA"/>
</svg>
