<svg width="23" height="23" viewBox="0 0 23 23" fill="none" xmlns="http://www.w3.org/2000/svg">
<g clip-path="url(#clip0_163_62)">
<path d="M19.5564 15.6656C18.5298 14.5533 17.284 13.6656 15.8975 13.0585C14.5109 12.4513 13.0137 12.1379 11.5 12.1379C9.98637 12.1379 8.48912 12.4513 7.10258 13.0585C5.71603 13.6656 4.47023 14.5533 3.44362 15.6656C3.28513 15.8408 3.19647 16.0682 3.19446 16.3044V20.1378C3.19782 20.3897 3.30027 20.6302 3.47963 20.8072C3.65898 20.9841 3.90082 21.0834 4.15279 21.0833H18.8472C19.1014 21.0833 19.3452 20.9824 19.5249 20.8026C19.7046 20.6229 19.8056 20.3792 19.8056 20.125V16.2917C19.8005 16.0598 19.712 15.8375 19.5564 15.6656Z" fill="white"/>
<path d="M11.5 10.8611C13.9699 10.8611 15.9722 8.85883 15.9722 6.38889C15.9722 3.91895 13.9699 1.91666 11.5 1.91666C9.03005 1.91666 7.02777 3.91895 7.02777 6.38889C7.02777 8.85883 9.03005 10.8611 11.5 10.8611Z" fill="white"/>
</g>
<defs>
<clipPath id="clip0_163_62">
<rect width="23" height="23" fill="white"/>
</clipPath>
</defs>
</svg>
