<svg width="23" height="23" viewBox="0 0 23 23" fill="none" xmlns="http://www.w3.org/2000/svg">
<g clip-path="url(#clip0_212_214)">
<path d="M19.5563 15.6656C18.5297 14.5533 17.2839 13.6656 15.8973 13.0585C14.5108 12.4514 13.0135 12.1379 11.4999 12.1379C9.98625 12.1379 8.489 12.4514 7.10246 13.0585C5.71591 13.6656 4.4701 14.5533 3.4435 15.6656C3.285 15.8409 3.19634 16.0682 3.19434 16.3045V20.1378C3.1977 20.3898 3.30014 20.6302 3.4795 20.8072C3.65886 20.9842 3.9007 21.0834 4.15267 21.0834H18.8471C19.1013 21.0834 19.345 20.9824 19.5248 20.8027C19.7045 20.623 19.8054 20.3792 19.8054 20.125V16.2917C19.8004 16.0598 19.7119 15.8376 19.5563 15.6656Z" fill="white"/>
<path d="M11.5001 10.8611C13.97 10.8611 15.9723 8.85879 15.9723 6.38885C15.9723 3.91891 13.97 1.91663 11.5001 1.91663C9.03011 1.91663 7.02783 3.91891 7.02783 6.38885C7.02783 8.85879 9.03011 10.8611 11.5001 10.8611Z" fill="white"/>
</g>
<defs>
<clipPath id="clip0_212_214">
<rect width="23" height="23" fill="white"/>
</clipPath>
</defs>
</svg>
