<svg width="15" height="15" viewBox="0 0 15 15" fill="none" xmlns="http://www.w3.org/2000/svg">
<g clip-path="url(#clip0_212_235)">
<path d="M14.8537 7.67278C14.8537 7.16295 14.8123 6.65037 14.7241 6.1488H7.6499V9.03692H11.701C11.5329 9.96839 10.9927 10.7924 10.2018 11.316V13.19H12.6187C14.0379 11.8837 14.8537 9.95461 14.8537 7.67278Z" fill="#4285F4"/>
<path d="M7.64994 15.0006C9.67272 15.0006 11.3786 14.3364 12.6215 13.19L10.2046 11.316C9.53218 11.7735 8.66409 12.0325 7.6527 12.0325C5.69606 12.0325 4.03704 10.7125 3.44178 8.93774H0.947754V10.8696C2.22095 13.4022 4.81419 15.0006 7.64994 15.0006Z" fill="#34A853"/>
<path d="M3.43899 8.93769C3.12482 8.00622 3.12482 6.99759 3.43899 6.06612V4.13428H0.947716C-0.116036 6.25351 -0.116036 8.7503 0.947716 10.8695L3.43899 8.93769Z" fill="#FBBC04"/>
<path d="M7.64994 2.96854C8.7192 2.952 9.75264 3.35435 10.527 4.09292L12.6683 1.95164C11.3124 0.67844 9.51288 -0.0215412 7.64994 0.000505416C4.81419 0.000505416 2.22095 1.59889 0.947754 4.13425L3.43903 6.06609C4.03153 4.28858 5.6933 2.96854 7.64994 2.96854Z" fill="#EA4335"/>
</g>
<defs>
<clipPath id="clip0_212_235">
<rect width="15" height="15" fill="white"/>
</clipPath>
</defs>
</svg>
