<svg width="348" height="71" viewBox="0 0 348 71" fill="none" xmlns="http://www.w3.org/2000/svg">
<path d="M239.25 28.875V4.125H264.75V28.875H239.25Z" fill="#FFD600"/>
<path d="M255.923 22.6511C256.413 23.4238 256.946 24.1642 258.074 24.1642C259.022 24.1642 259.519 23.7071 259.519 23.0746C259.519 22.3176 259.005 22.0488 257.962 21.6081L257.39 21.3716C255.741 20.6924 254.643 19.8413 254.643 18.0434C254.643 16.3866 255.95 15.1257 257.992 15.1257C259.447 15.1257 260.491 15.6145 261.245 16.8946L259.464 17.9994C259.073 17.3202 258.649 17.0528 257.992 17.0528C257.322 17.0528 256.898 17.4632 256.898 17.9994C256.898 18.6622 257.323 18.9303 258.304 19.3407L258.876 19.5772C260.82 20.3809 261.917 21.2018 261.917 23.0471C261.917 25.0353 260.299 26.125 258.127 26.125C256.003 26.125 254.796 25.0903 254.125 23.8095L255.923 22.6511ZM247.716 22.7074C248.074 23.3303 248.619 23.8095 249.403 23.8095C250.152 23.8095 250.583 23.5221 250.583 22.4049V15.125H252.944V22.7569C252.944 25.0718 251.561 26.125 249.541 26.125C247.715 26.125 246.398 24.9246 245.861 23.8095L247.716 22.7074Z" fill="#000001"/>
<path d="M55.5 4.125L51.3681 8.49063L47.2294 12.8494L43.125 17.1875V4.125H55.5Z" fill="#0D91D6"/>
<path d="M55.5 4.125H55.4725L51.3544 8.47687L47.2225 12.8425L43.125 17.1669V17.1875V17.2494V28.875L49.0994 22.9006L53.3481 18.6519L57.6037 14.3963L61.8594 10.1406L67.875 4.125H55.5Z" fill="#F88909"/>
<path d="M49.0994 22.9006L43.125 28.875V17.2494L49.0994 22.9006Z" fill="#C757BC"/>
<path d="M53.3481 18.6519L49.0994 22.9006L43.125 17.2494V17.1875L47.2294 12.8494L53.3481 18.6519Z" fill="#D3638F"/>
<path d="M57.6039 14.3962L53.3482 18.6518L47.2295 12.8494L51.3682 8.4906L57.6039 14.3962Z" fill="#E07063"/>
<path d="M61.8594 10.1406L57.6038 14.3962L51.3682 8.49062L55.5 4.125L61.8594 10.1406Z" fill="#EC7D36"/>
<path d="M67.875 4.125L61.8594 10.1406L55.5 4.125H67.875Z" fill="#F88909"/>
<path d="M46.9131 13.1656L44.4931 15.73L43.125 14.4375V9.58374L46.9131 13.1656Z" fill="#0095D5"/>
<path d="M49.3331 10.6013L46.9131 13.1656L43.125 9.58377V4.72314L49.3331 10.6013Z" fill="#2B88DA"/>
<path d="M51.76 8.04375L49.3331 10.6013L43.125 4.72312V4.125H47.6144L51.76 8.04375Z" fill="#557BDE"/>
<path d="M54.1799 5.47937L51.7599 8.04375L47.6143 4.125H55.4999L54.1799 5.47937Z" fill="#806EE3"/>
<path d="M54.8125 17.1875L43.125 28.875H45.4281H51.045H66.5L54.8125 17.1875Z" fill="#0095D5"/>
<path d="M56.655 28.875H51.045L47.085 24.9219L49.89 22.1169L56.655 28.875Z" fill="#2B88DA"/>
<path d="M62.2789 28.875H56.6551L49.8901 22.1169L52.6951 19.3119L62.2789 28.875Z" fill="#557BDE"/>
<path d="M67.8748 28.875H62.2786L52.6948 19.3119L55.4998 16.5L67.8748 28.875Z" fill="#806EE3"/>
<g clip-path="url(#clip0_212_11)">
<path d="M107.75 9.625L106.333 27.5L87.9165 28.875L107.75 9.625Z" fill="#9B1010"/>
<path d="M97.8335 19.25L106.333 27.5L107.75 9.625L97.8335 19.25Z" fill="#B71C1C"/>
<path d="M89.1576 10.8298C87.6697 12.274 86.3475 13.8507 85.2665 15.4698C84.1855 17.089 83.3668 18.719 82.8572 20.2667C82.3477 21.8144 82.1571 23.2495 82.2966 24.4901C82.436 25.7307 82.9026 26.7525 83.6699 27.4971C84.4371 28.2417 85.4898 28.6946 86.768 28.8299C88.0462 28.9652 89.5248 28.7802 91.1194 28.2856C92.714 27.7909 94.3933 26.9963 96.0615 25.947C97.7297 24.8977 99.3541 23.6144 100.842 22.1702C102.33 20.7261 103.652 19.1494 104.733 17.5302C105.814 15.911 106.633 14.281 107.142 12.7333C107.652 11.1856 107.842 9.75053 107.703 8.50994C107.564 7.26935 107.097 6.24757 106.33 5.50295C105.562 4.75833 104.51 4.30545 103.232 4.17016C101.953 4.03488 100.475 4.21984 98.8802 4.71449C97.2856 5.20913 95.6063 6.00378 93.938 7.05305C92.2698 8.10233 90.6454 9.38568 89.1576 10.8298V10.8298Z" fill="#C62828"/>
<path d="M85.0833 11.6875L90.0417 6.875L95.7083 4.125L99.9583 6.875L97.8333 13.0625L91.4583 18.5625L85.0833 20.625L82.25 16.5L85.0833 11.6875Z" fill="#E53935"/>
<path d="M99.9583 6.875L95.7083 4.125H103.5L99.9583 6.875ZM107.75 10.3125L99.9583 6.875L97.8333 13.0625L107.75 10.3125ZM91.4583 18.5625L100.833 22.1616L97.8333 13.0625L91.4583 18.5625ZM85.0833 20.625L87.9167 28.875L91.4583 18.5625L85.0833 20.625ZM82.25 16.5V24.0625L85.0833 20.625L82.25 16.5Z" fill="#FF5252"/>
</g>
<path d="M134.033 3.43749C132.932 3.44093 132.168 3.53511 131.245 3.6898C128.52 4.15043 128.023 5.11774 128.023 6.90043V9.62499H134.398V11H127.781H124.7C122.833 11 121.198 11.8539 120.681 13.9006C120.096 16.2497 120.069 17.721 120.681 20.174C121.145 22.0034 122.167 23.375 124.035 23.375H126.607V19.866C126.607 17.8269 128.51 15.8125 130.69 15.8125H135.816C137.603 15.8125 139.357 14.5324 139.357 12.8033V6.90043C139.357 5.22361 138.111 3.96961 136.37 3.68843C136.413 3.6843 135.126 3.43336 134.033 3.43749ZM130.503 6.18749C131.085 6.18749 131.566 6.65293 131.566 7.22011C131.566 7.7928 131.085 8.24999 130.503 8.24999C129.91 8.24999 129.441 7.79349 129.441 7.22011C129.441 6.65499 129.91 6.18749 130.503 6.18749Z" fill="#0277BD"/>
<path d="M133.347 29.5625C134.448 29.5591 135.212 29.4649 136.135 29.3102C138.86 28.8496 139.357 27.8823 139.357 26.0996V23.375H132.982V22H139.6H142.681C144.548 22 146.182 21.1461 146.7 19.0994C147.285 16.7503 147.312 15.279 146.7 12.826C146.236 10.9966 145.213 9.625 143.346 9.625H140.773V13.134C140.773 15.1731 138.87 17.1875 136.69 17.1875H131.565C129.777 17.1875 128.023 18.4676 128.023 20.1967V26.0996C128.023 27.7764 129.269 29.0304 131.011 29.3116C130.967 29.3157 132.255 29.5666 133.347 29.5625ZM136.878 26.8125C136.296 26.8125 135.815 26.3471 135.815 25.7799C135.815 25.2072 136.296 24.75 136.878 24.75C137.471 24.75 137.94 25.2065 137.94 25.7799C137.94 26.345 137.47 26.8125 136.878 26.8125Z" fill="#FFC107"/>
<path fill-rule="evenodd" clip-rule="evenodd" d="M173.223 2.25914C173.704 1.9972 174.296 1.9972 174.776 2.25914C177.153 3.5537 184.304 7.45045 186.681 8.74501C187.162 9.00626 187.458 9.49026 187.458 10.0141C187.458 12.6033 187.458 20.3961 187.458 22.9852C187.458 23.5091 187.162 23.9931 186.681 24.255C184.305 25.5496 177.153 29.4463 174.776 30.7409C174.295 31.0028 173.703 31.0028 173.223 30.7409C170.846 29.4463 163.695 25.5496 161.318 24.255C160.838 23.9931 160.542 23.5098 160.542 22.9859C160.542 20.3968 160.542 12.6039 160.542 10.0148C160.542 9.49095 160.838 9.00695 161.319 8.74501C163.694 7.45045 170.847 3.5537 173.223 2.25914Z" fill="#00549D"/>
<path fill-rule="evenodd" clip-rule="evenodd" d="M160.757 23.6528C160.568 23.408 160.542 23.1756 160.542 22.8628C160.542 20.2888 160.542 12.5407 160.542 9.96601C160.542 9.44489 160.837 8.96364 161.316 8.70376C163.684 7.41676 170.812 3.5427 173.18 2.25501C173.659 1.99445 174.309 1.99995 174.788 2.26051C177.156 3.54751 184.259 7.38857 186.627 8.67557C186.819 8.78007 186.964 8.90589 187.095 9.07157L160.757 23.6528Z" fill="#0086D4"/>
<path fill-rule="evenodd" clip-rule="evenodd" d="M174 6.875C179.473 6.875 183.917 11.1877 183.917 16.5C183.917 21.8123 179.473 26.125 174 26.125C168.527 26.125 164.083 21.8123 164.083 16.5C164.083 11.1877 168.527 6.875 174 6.875ZM174 11.6875C176.736 11.6875 178.958 13.8435 178.958 16.5C178.958 19.1558 176.736 21.3125 174 21.3125C171.264 21.3125 169.042 19.1558 169.042 16.5C169.042 13.8435 171.263 11.6875 174 11.6875Z" fill="white"/>
<path fill-rule="evenodd" clip-rule="evenodd" d="M187.094 9.07843C187.459 9.41049 187.452 9.91099 187.452 10.3049C187.452 12.914 187.429 20.3349 187.459 22.9439C187.461 23.2162 187.369 23.5029 187.23 23.7187L173.712 16.5L187.094 9.07843Z" fill="#0075C0"/>
<path fill-rule="evenodd" clip-rule="evenodd" d="M178.958 14.4375H180.375V18.5625H178.958V14.4375ZM183.917 14.4375H185.333V18.5625H183.917V14.4375Z" fill="white"/>
<path fill-rule="evenodd" clip-rule="evenodd" d="M177.542 15.8125H181.792V17.1875H177.542V15.8125ZM182.5 15.8125H186.75V17.1875H182.5V15.8125Z" fill="white"/>
<path d="M213.259 17.1174C212.573 16.0112 212.076 15.0941 211.386 13.3671C210.22 10.45 218.478 7.81414 215.129 2.74933C216.581 6.24802 209.92 8.41089 209.301 11.3245C208.736 14.0044 213.256 17.1174 213.259 17.1174Z" fill="#F44336"/>
<path d="M213.416 11.8731C213.284 13.6029 214.949 14.5248 214.997 15.7884C215.035 16.8169 214.002 17.6743 214.002 17.6743C214.002 17.6743 215.877 17.3058 216.462 15.7369C217.112 13.9948 215.202 12.8019 215.398 11.407C215.582 10.0746 219.545 7.59619 219.545 7.59619C219.545 7.59619 213.714 7.98257 213.416 11.8731Z" fill="#F44336"/>
<path d="M219.058 17.2253C220.264 16.9545 221.281 17.7224 221.281 18.6072C221.281 20.6016 218.516 22.4868 218.516 22.4868C218.516 22.4868 222.796 21.9766 222.796 18.7021C222.796 16.5365 220.694 15.9954 219.058 17.2253ZM217.026 18.8341C217.026 18.8341 218.361 17.8833 218.716 17.5265C215.442 18.2215 207.965 18.315 207.965 17.7114C207.965 17.1552 210.376 16.5853 210.376 16.5853C210.376 16.5853 205.032 16.5083 205.032 18.0847C205.032 19.7278 212.028 19.8454 217.026 18.8341Z" fill="#1565C0"/>
<path d="M216.205 20.3301C213.106 21.3606 207.396 21.0313 209.087 19.6474C208.263 19.6474 207.042 20.3095 207.042 20.9461C207.042 22.2228 213.218 23.2087 217.788 21.3393L216.205 20.3301Z" fill="#1565C0"/>
<path d="M209.846 22.5081C208.722 22.5081 207.994 23.2327 207.994 23.7607C207.994 25.4045 214.704 25.5702 217.362 23.9016L215.672 22.7796C213.686 23.6527 208.697 23.7731 209.846 22.5081Z" fill="#1565C0"/>
<path d="M221.943 25.1845C221.943 24.541 221.218 24.2378 220.958 24.0927C222.49 27.7867 205.615 27.5 205.615 25.3192C205.615 24.8236 206.857 24.3382 208.005 24.5678L207.029 23.991C204.741 23.6321 203.188 24.6379 203.188 25.4492C203.188 29.2325 221.943 29.0503 221.943 25.1845Z" fill="#1565C0"/>
<path d="M223.813 26.5403C220.962 29.3556 213.735 30.3813 206.466 28.642C213.735 31.7378 223.778 29.9943 223.813 26.5403Z" fill="#1565C0"/>
<path d="M0.001375 62.0907H1.32138V57.2197L3.15494 61.3839C3.38113 61.903 3.6905 62.0865 4.29756 62.0865C4.90462 62.0865 5.20162 61.903 5.42781 61.3839L7.26138 57.3263V62.0907H8.58138V57.1008C8.58138 56.6216 8.39094 56.3892 7.99769 56.2696C7.05788 55.974 6.42675 56.229 6.14144 56.8691L4.26112 61.1041L2.43994 56.8691C2.16631 56.2297 1.52419 55.974 0.583687 56.2696C0.190437 56.3892 0 56.6209 0 57.1001V62.09H0.001375V62.0907Z" fill="#00796B"/>
<path d="M9.24072 58.1307H10.5607V60.9185C10.5504 61.056 10.6047 61.4211 11.2413 61.4307C11.5658 61.4362 13.1808 61.4307 13.2007 61.4307V58.1307H14.5207C14.5262 58.1307 14.5207 62.2337 14.5207 62.2509C14.5276 63.2629 13.264 63.3935 12.683 63.4107H9.24141V62.7507C9.24829 62.7507 12.5325 62.7514 12.5421 62.7507C13.2901 62.6716 13.2014 62.2598 13.2014 62.1347V62.0907H11.1307C9.98254 62.0804 9.25035 61.5744 9.2421 60.9976C9.24072 60.9439 9.26685 58.1554 9.24072 58.1307Z" fill="#00796B"/>
<path d="M15.1808 62.0907H18.4856C18.9187 62.0907 19.3395 61.9999 19.6736 61.8432C20.2305 61.5874 20.4601 61.2416 20.4601 60.7872V59.8467C20.4601 58.8319 19.202 58.7907 18.4801 58.7907H17.1601C16.641 58.7907 16.562 58.4772 16.5001 58.1307V57.4707C16.562 57.2067 16.6775 56.8519 17.1346 56.8107C17.6661 56.8107 20.4594 56.8107 20.4594 56.8107V56.1507H17.3203C16.8012 56.1507 15.1794 56.2126 15.1794 57.4707V58.2868C15.1794 58.8643 15.6868 59.3345 16.7881 59.45C16.9119 59.4583 17.0356 59.4665 17.1587 59.4665C17.1587 59.4665 18.4416 59.4418 18.4787 59.45C19.2212 59.45 19.1387 60.0275 19.1387 60.11V60.77C19.1387 60.8608 19.1181 61.43 18.4711 61.43C18.4216 61.43 15.1787 61.43 15.1787 61.43V62.0907H15.1808Z" fill="#F57F17"/>
<path d="M27.7202 60.7425C27.7202 61.5393 28.1705 61.9862 29.3647 62.0756C29.4761 62.0832 29.5882 62.09 29.7002 62.09H33.0002V61.43H29.9512C29.2698 61.43 29.0402 61.144 29.0402 60.735V56.15H27.7202V60.7425V60.7425Z" fill="#F57F17"/>
<path d="M21.1089 60.7707V57.4707C21.1089 56.7694 21.4526 56.2854 22.4261 56.1507H22.8881H25.2579H25.6189C26.5924 56.2854 27.0489 56.7688 27.0489 57.4707V60.7583C27.0489 61.3269 26.9011 61.6321 26.4191 61.8301L27.4421 62.75H25.9571L25.2215 62.09H24.3573L22.8888 62.0983C22.6764 62.0983 22.4523 62.0687 22.2061 62.0013C21.4678 61.7999 21.1089 61.4121 21.1089 60.7707ZM22.4289 60.7707C22.4963 61.0918 22.7541 61.4307 23.2126 61.4307H24.4941L23.7599 60.7707H25.2552L25.612 61.1021C25.612 61.1021 25.7399 60.9976 25.7399 60.7707C25.7399 60.5438 25.7289 57.4707 25.7289 57.4707C25.6615 57.1723 25.359 56.8107 24.9121 56.8107H23.2133C22.6984 56.8107 22.4296 57.1874 22.4296 57.5381L22.4289 60.7707Z" fill="#F57F17"/>
<path d="M31.7618 55.4549C31.053 55.4357 30.512 55.5017 30.0493 55.6962C29.918 55.7519 29.7083 55.7533 29.6863 55.9183C29.7585 55.9939 29.7695 56.1074 29.8272 56.2002C29.9372 56.3789 30.1242 56.6189 30.2906 56.744C30.4728 56.8815 30.6605 57.0286 30.855 57.1475C31.2015 57.3586 31.5886 57.4796 31.9227 57.6914C32.1193 57.8158 32.3146 57.9739 32.5071 58.1142C32.602 58.1843 32.6652 58.2922 32.789 58.3362C32.789 58.3294 32.789 58.3232 32.789 58.3163C32.7243 58.2338 32.7071 58.1204 32.648 58.0337C32.5607 57.9464 32.4734 57.8591 32.3861 57.7718C32.1303 57.4322 31.8045 57.1331 31.4593 56.8856C31.1836 56.6876 30.567 56.4202 30.4515 56.0998C30.4446 56.0929 30.4384 56.0867 30.4308 56.0792C30.6261 56.0572 30.855 55.9864 31.0351 55.9382C31.3383 55.8571 31.6085 55.8784 31.9213 55.7973C32.0623 55.7567 32.2032 55.7169 32.3442 55.6763C32.3442 55.6495 32.3442 55.6227 32.3442 55.5959C32.186 55.4336 32.0726 55.2191 31.9007 55.072C31.449 54.6877 30.9568 54.304 30.4501 53.9837C30.1689 53.8063 29.821 53.6908 29.5233 53.5402C29.423 53.4894 29.247 53.4632 29.181 53.3794C29.0242 53.18 28.9396 52.9263 28.8186 52.6946C28.5656 52.2079 28.3168 51.6757 28.0933 51.1635C27.94 50.8143 27.8403 50.4692 27.6499 50.1557C26.7348 48.6514 25.7496 47.7432 24.2248 46.8509C23.9003 46.6611 23.5091 46.5862 23.0959 46.4879C22.8738 46.4748 22.6525 46.461 22.4304 46.4473C22.295 46.3902 22.1547 46.2252 22.0268 46.1448C21.5215 45.8251 20.2249 45.1307 19.8509 46.0437C19.6144 46.6199 20.2043 47.1822 20.4153 47.4744C20.5631 47.6793 20.7529 47.9089 20.8588 48.1399C20.9282 48.2912 20.9406 48.4431 20.9997 48.6033C21.1461 48.9979 21.3778 49.4475 21.5676 49.8126C21.6631 49.9975 21.769 50.1914 21.89 50.3564C21.9643 50.4575 22.0915 50.5022 22.1121 50.6589C21.9876 50.8329 21.9808 51.103 21.9106 51.3244C21.5958 52.3179 21.7147 53.5519 22.1726 54.2862C22.3128 54.5117 22.6442 54.9957 23.0993 54.81C23.4974 54.6478 23.4087 54.1452 23.5221 53.7018C23.5476 53.6014 23.5318 53.5279 23.5826 53.4605C23.5826 53.4674 23.5826 53.4735 23.5826 53.4811C23.7036 53.7224 23.824 53.9651 23.9457 54.2064C24.2145 54.6389 24.6909 55.0905 25.0938 55.3958C25.3028 55.5539 25.4678 55.8275 25.7386 55.9197C25.7386 55.9128 25.7386 55.9066 25.7386 55.899C25.7318 55.899 25.7256 55.899 25.718 55.899C25.6658 55.8172 25.5833 55.7835 25.5166 55.7175C25.3592 55.5629 25.1832 55.371 25.0532 55.1937C24.6861 54.6952 24.3616 54.1494 24.066 53.5815C23.925 53.3099 23.802 53.0115 23.683 52.7352C23.637 52.6286 23.6376 52.4677 23.5421 52.4127C23.4115 52.6149 23.2203 52.7785 23.1193 53.017C22.9584 53.3986 22.9371 53.8647 22.878 54.3467C22.8422 54.359 22.858 54.3508 22.8374 54.3666C22.5569 54.2985 22.4579 54.0105 22.3534 53.7623C22.0894 53.1353 22.0406 52.126 22.273 51.4049C22.3328 51.2179 22.6043 50.63 22.495 50.4575C22.4428 50.2849 22.2695 50.1852 22.1733 50.0539C22.053 49.8917 21.934 49.6772 21.8508 49.4895C21.635 49.0007 21.4301 48.4321 21.2025 47.9378C21.0939 47.7013 20.9103 47.4627 20.7591 47.253C20.592 47.0207 20.4043 46.8495 20.2751 46.5683C20.229 46.4686 20.1665 46.3084 20.2345 46.2053C20.2565 46.1359 20.2868 46.107 20.3555 46.0843C20.4724 45.9935 20.7976 46.1139 20.92 46.1647C21.2431 46.2988 21.5126 46.4267 21.7862 46.6082C21.9175 46.6955 22.0502 46.8639 22.209 46.9107C22.2695 46.9107 22.33 46.9107 22.3905 46.9107C22.6745 46.976 22.9921 46.9313 23.2568 47.0117C23.7256 47.154 24.145 47.3754 24.5259 47.616C25.6878 48.3496 26.6372 49.3932 27.2869 50.639C27.3914 50.8397 27.4368 51.0309 27.5282 51.2433C27.7138 51.6723 27.9483 52.1137 28.1325 52.533C28.3168 52.9517 28.4969 53.3739 28.7575 53.7224C28.895 53.9053 29.4243 54.0036 29.6643 54.1054C29.8327 54.1769 30.1091 54.2504 30.2686 54.3467C30.5738 54.5309 30.8695 54.7502 31.1548 54.951C31.3005 55.052 31.7398 55.2727 31.7618 55.4549Z" fill="#00796B"/>
<path d="M22.7551 47.7783C22.6073 47.7755 22.5028 47.7941 22.3921 47.8188C22.3921 47.8257 22.3921 47.8319 22.3921 47.8395C22.399 47.8395 22.4052 47.8395 22.4127 47.8395C22.4835 47.9838 22.6073 48.078 22.6946 48.2025C22.762 48.3434 22.8287 48.4843 22.896 48.6253C22.9029 48.6184 22.9091 48.6122 22.916 48.6053C23.0404 48.5173 23.0982 48.3771 23.0975 48.1619C23.0473 48.109 23.0397 48.043 22.9964 47.9804C22.9387 47.8958 22.8273 47.8484 22.7551 47.7783Z" fill="#00796B"/>
<path d="M67.1875 41.4375H43.8125L45.875 64.8125L55.5 67.5625L65.125 64.8125L67.1875 41.4375Z" fill="#E65100"/>
<path d="M55.5 43.5V65.4313L63.2 63.2313L64.9188 43.5H55.5Z" fill="#FF6D00"/>
<path d="M55.5 55.1875V52.4375H61.4125L60.9312 60.3438L55.5 62.1312V59.2437L58.3188 58.2812L58.525 55.1875H55.5V55.1875ZM61.6188 49.6875L61.825 46.9375H55.5V49.6875H61.6188Z" fill="white"/>
<path d="M55.4999 59.2437V62.1312L50.0687 60.3438L49.7937 56.5625H52.5437L52.6812 58.2812L55.4999 59.2437ZM52.1312 49.6875H55.4999V46.9375H49.2437L49.7249 55.1875H55.4999V52.4375H52.3374L52.1312 49.6875Z" fill="#EEEEEE"/>
<path d="M82.25 44.875C82.25 43.3563 83.5186 42.125 85.0833 42.125H104.917C106.481 42.125 107.75 43.3563 107.75 44.875V64.125C107.75 65.643 106.481 66.875 104.917 66.875H85.0833C83.5186 66.875 82.25 65.643 82.25 64.125V44.875Z" fill="#FF6D00"/>
<path d="M82.25 44.875V53.1023L85.0833 55.8523C85.0833 55.8523 92.9834 64.708 99.25 58.625C105.517 52.542 96.4301 45.5625 96.4301 45.5625L92.8849 42.125H85.0833C83.5186 42.125 82.25 43.3556 82.25 44.875Z" fill="#E64A19"/>
<path d="M96.4303 45.5625C104.526 50.8549 101.907 56.6911 101.907 56.6911C101.907 56.6911 104.209 59.1894 103.278 61.375C103.278 61.375 102.329 59.8446 100.737 59.8446C99.2027 59.8446 98.3003 61.375 95.212 61.375C88.3355 61.375 85.0835 55.8523 85.0835 55.8523C91.2793 59.7711 95.5095 56.9956 95.5095 56.9956C92.7179 55.4377 86.5002 47.625 86.5002 47.625C91.6703 51.8566 94.2918 53.125 94.2918 53.125C92.9587 52.0649 88.6252 46.9375 88.6252 46.9375C91.6172 49.8511 98.051 54.0724 98.051 54.0724C99.7396 49.5734 96.4303 45.5625 96.4303 45.5625Z" fill="white"/>
<path d="M134 40.7844C130.252 40.7844 126.658 42.2294 124.008 44.8016C121.357 47.3738 119.869 50.8624 119.869 54.5C119.869 58.1376 121.357 61.6262 124.008 64.1984C126.658 66.7706 130.252 68.2156 134 68.2156C137.748 68.2156 141.342 66.7706 143.992 64.1984C146.642 61.6262 148.131 58.1376 148.131 54.5C148.131 50.8624 146.642 47.3738 143.992 44.8016C141.342 42.2294 137.748 40.7844 134 40.7844Z" fill="white"/>
<path d="M122.667 54.5C122.667 58.856 125.274 62.6166 129.055 64.4L123.648 50.023C123.02 51.3918 122.667 52.9023 122.667 54.5ZM141.653 53.9459C141.653 52.5867 140.9 51.6427 140.47 50.9126C139.894 49.9989 139.354 49.2372 139.354 48.3331C139.354 47.3259 140.396 46.3806 141.508 46.3806C141.558 46.3806 141.603 46.3847 141.654 46.3861C139.639 44.589 136.952 43.5 134.001 43.5C130.184 43.5 126.809 45.3329 124.756 48.1399C124.917 48.1908 124.973 48.1668 125.188 48.1668C126.371 48.1668 128.209 48.0293 128.209 48.0293C128.818 47.9901 128.892 48.8625 128.279 48.934C128.279 48.934 127.667 49.0062 126.984 49.0385L131.185 61.2609L133.664 54.0414L131.821 49.0584C131.211 49.0268 130.631 48.9539 130.631 48.9539C130.021 48.9154 130.092 48.0086 130.701 48.0492C130.701 48.0492 132.576 48.1867 133.688 48.1867C134.874 48.1867 136.708 48.0492 136.708 48.0492C137.318 48.01 137.392 48.8824 136.782 48.9539C136.782 48.9539 136.165 49.0261 135.484 49.0584L139.657 61.1653L140.789 57.5037C141.366 56.0737 141.653 54.8912 141.653 53.9459ZM134.199 55.4597L130.799 65.0517C131.816 65.3446 132.889 65.5 134.001 65.5C135.319 65.5 136.586 65.2772 137.766 64.8764C137.738 64.8276 137.706 64.7781 137.683 64.7252L134.199 55.4597ZM143.947 49.2186C143.998 49.5693 144.024 49.9467 144.024 50.3496C144.024 51.4688 143.807 52.7221 143.16 54.2938L139.7 64.0116C143.07 62.1058 145.333 58.5576 145.333 54.5C145.333 52.5881 144.83 50.7903 143.947 49.2186Z" fill="#01579B"/>
<path d="M119.833 54.5C119.833 62.079 126.187 68.25 133.999 68.25C141.813 68.25 148.167 62.079 148.167 54.5C148.167 46.921 141.813 40.75 134 40.75C126.187 40.75 119.833 46.921 119.833 54.5ZM121.247 54.5C121.247 47.6773 126.966 42.1257 133.999 42.1257C141.033 42.1257 146.754 47.6773 146.754 54.5C146.754 61.3227 141.033 66.8757 134 66.8757C126.968 66.8757 121.247 61.3227 121.247 54.5Z" fill="#01579B"/>
<path d="M164.083 46.25L166.208 63.4375L160.528 57.9244C159.686 57.107 159.46 55.8647 159.964 54.8169L164.083 46.25Z" fill="#1565C0"/>
<path d="M176.351 42.3443C175.753 41.7634 174.942 41.4375 174.096 41.4375C173.568 41.4375 173.048 41.5647 172.583 41.8074L164.083 46.25V60.2358C164.083 60.9652 164.382 61.6644 164.914 62.1801L166.208 63.4375H181.792V60L186.75 52.4375L176.351 42.3443Z" fill="#42A5F5"/>
<path d="M164.083 46.25H179.201C179.953 46.25 180.673 46.5394 181.205 47.0557L186.75 52.4375V63.4375H181.792L164.083 46.25Z" fill="#1565C0"/>
<path d="M181.792 63.4375H166.208L170.458 67.5625H181.792V63.4375Z" fill="#85CBF8"/>
<g clip-path="url(#clip1_212_11)">
<path d="M206.3 52.8012C206.3 53.2116 206.344 53.5437 206.421 53.7878C206.509 54.0318 206.618 54.2979 206.772 54.5859C206.827 54.6746 206.849 54.7633 206.849 54.841C206.849 54.9517 206.783 55.0624 206.641 55.1737L205.949 55.6392C205.85 55.7059 205.752 55.7389 205.664 55.7389C205.554 55.7389 205.445 55.6832 205.335 55.5835C205.181 55.4171 205.049 55.2398 204.939 55.0624C204.829 54.874 204.72 54.6636 204.599 54.4086C203.743 55.4281 202.667 55.9382 201.372 55.9382C200.45 55.9382 199.714 55.6722 199.177 55.1401C198.639 54.6079 198.365 53.8984 198.365 53.0116C198.365 52.0697 198.694 51.3045 199.364 50.7284C200.033 50.1522 200.922 49.8635 202.052 49.8635C202.426 49.8635 202.81 49.8965 203.216 49.9522C203.621 50.0079 204.039 50.0966 204.478 50.1962V49.3871C204.478 48.5449 204.303 47.9571 203.962 47.6133C203.611 47.2696 203.018 47.1032 202.173 47.1032C201.789 47.1032 201.395 47.1472 200.988 47.2476C200.582 47.3473 200.187 47.4689 199.803 47.6243C199.628 47.702 199.496 47.746 199.419 47.7687C199.342 47.7907 199.287 47.8017 199.243 47.8017C199.089 47.8017 199.013 47.691 199.013 47.4579V46.9148C199.013 46.7374 199.035 46.6047 199.09 46.5271C199.145 46.4494 199.244 46.3717 199.397 46.294C199.782 46.0946 200.242 45.9283 200.781 45.7949C201.318 45.6505 201.889 45.5845 202.492 45.5845C203.799 45.5845 204.754 45.8836 205.368 46.4824C205.972 47.0812 206.279 47.9901 206.279 49.209V52.8005H206.3V52.8012ZM201.843 54.4856C202.206 54.4856 202.579 54.4189 202.974 54.2862C203.369 54.1535 203.72 53.9094 204.017 53.5767C204.192 53.3663 204.324 53.1332 204.39 52.8672C204.456 52.6011 204.5 52.2794 204.5 51.9026V51.4372C204.182 51.3595 203.841 51.2928 203.49 51.2488C203.139 51.2048 202.798 51.1821 202.458 51.1821C201.722 51.1821 201.185 51.3265 200.823 51.6256C200.46 51.9246 200.285 52.3461 200.285 52.9002C200.285 53.4213 200.417 53.8091 200.691 54.0751C200.955 54.3529 201.339 54.4856 201.843 54.4856ZM210.657 55.6832C210.46 55.6832 210.328 55.6502 210.24 55.5725C210.152 55.5058 210.076 55.3511 210.01 55.1401L207.43 46.5718C207.364 46.3504 207.331 46.206 207.331 46.1283C207.331 45.9509 207.419 45.8513 207.594 45.8513H208.67C208.879 45.8513 209.022 45.8843 209.099 45.9619C209.187 46.0286 209.252 46.1833 209.318 46.3944L211.162 53.7328L212.874 46.3944C212.929 46.173 212.995 46.0286 213.082 45.9619C213.17 45.8953 213.323 45.8513 213.521 45.8513H214.399C214.608 45.8513 214.751 45.8843 214.839 45.9619C214.927 46.0286 215.003 46.1833 215.047 46.3944L216.781 53.8214L218.68 46.3944C218.746 46.173 218.823 46.0286 218.899 45.9619C218.987 45.8953 219.129 45.8513 219.327 45.8513H220.348C220.524 45.8513 220.623 45.9399 220.623 46.1283C220.623 46.184 220.612 46.239 220.601 46.3057C220.59 46.3724 220.568 46.4611 220.524 46.5828L217.879 55.1511C217.813 55.3724 217.736 55.5168 217.648 55.5835C217.561 55.6502 217.418 55.6942 217.231 55.6942H216.287C216.079 55.6942 215.936 55.6612 215.848 55.5835C215.76 55.5058 215.684 55.3621 215.64 55.1401L213.939 47.9901L212.249 55.1291C212.194 55.3504 212.128 55.4948 212.04 55.5725C211.952 55.6502 211.799 55.6832 211.601 55.6832H210.657ZM224.761 55.9823C224.19 55.9823 223.619 55.9156 223.071 55.7829C222.522 55.6502 222.094 55.5058 221.808 55.3394C221.633 55.2398 221.512 55.1291 221.468 55.0294C221.424 54.9297 221.402 54.819 221.402 54.7193V54.1542C221.402 53.9211 221.49 53.8104 221.654 53.8104C221.72 53.8104 221.786 53.8214 221.852 53.8434C221.918 53.8654 222.016 53.9101 222.126 53.9541C222.499 54.1205 222.905 54.2532 223.333 54.3419C223.773 54.4306 224.2 54.4746 224.64 54.4746C225.331 54.4746 225.869 54.3529 226.242 54.1088C226.615 53.8647 226.813 53.51 226.813 53.0556C226.813 52.7455 226.714 52.4904 226.516 52.2794C226.319 52.069 225.946 51.8806 225.408 51.7032L223.817 51.2041C223.016 50.9491 222.423 50.5723 222.061 50.0732C221.698 49.5858 221.512 49.0426 221.512 48.4658C221.512 48.0004 221.611 47.5899 221.808 47.2352C222.006 46.8804 222.27 46.5704 222.598 46.3263C222.928 46.0713 223.301 45.8829 223.74 45.7502C224.179 45.6182 224.64 45.5625 225.123 45.5625C225.364 45.5625 225.617 45.5735 225.859 45.6065C226.111 45.6395 226.341 45.6842 226.572 45.7282C226.791 45.7839 227 45.8389 227.198 45.9056C227.395 45.9722 227.549 46.0382 227.659 46.1049C227.813 46.1936 227.922 46.2823 227.988 46.382C228.054 46.4707 228.087 46.5924 228.087 46.7477V47.2689C228.087 47.5019 227.999 47.6236 227.835 47.6236C227.747 47.6236 227.605 47.5796 227.418 47.4909C226.792 47.2029 226.09 47.0585 225.311 47.0585C224.685 47.0585 224.191 47.1582 223.851 47.3686C223.511 47.5789 223.335 47.9007 223.335 48.3551C223.335 48.6652 223.445 48.9313 223.665 49.1423C223.884 49.3527 224.29 49.5637 224.872 49.7521L226.431 50.2512C227.22 50.5063 227.792 50.8611 228.131 51.3155C228.471 51.7699 228.636 52.2911 228.636 52.8672C228.636 53.3436 228.537 53.7761 228.351 54.1528C228.153 54.5296 227.889 54.8623 227.55 55.1284C227.209 55.4054 226.803 55.6048 226.332 55.7492C225.836 55.9046 225.32 55.9823 224.761 55.9823Z" fill="#252F3E"/>
<path d="M226.835 61.3695C223.224 64.0632 217.978 65.4932 213.466 65.4932C207.145 65.4932 201.448 63.1323 197.146 59.208C196.805 58.898 197.113 58.4765 197.519 58.7206C202.173 61.4472 207.913 63.0993 213.851 63.0993C217.857 63.0993 222.258 62.2571 226.307 60.5273C226.912 60.2503 227.427 60.9261 226.835 61.3695ZM228.338 59.6405C227.877 59.0417 225.287 59.3524 224.113 59.4961C223.762 59.5401 223.707 59.23 224.025 58.997C226.088 57.534 229.48 57.9547 229.875 58.4428C230.27 58.942 229.765 62.3671 227.834 64.0075C227.537 64.2625 227.252 64.1292 227.383 63.7971C227.823 62.6998 228.8 60.2276 228.338 59.6405Z" fill="#FF9900"/>
</g>
<path d="M6.1875 29.5625H3.4375H0.6875L8.9375 17.1875L0.6875 4.8125H3.4375H6.1875L14.4375 17.1875L6.1875 29.5625Z" fill="#453A62"/>
<path d="M13.75 4.8125H11H8.25L16.5 17.1875L8.25 29.5625H11H13.75L19.36 21.1475L24.75 29.5625H27.5H30.25L13.75 4.8125Z" fill="#5E5086"/>
<path d="M23.6074 16.5H32.3125V12.375H20.8574L23.6074 16.5Z" fill="#8F4E8B"/>
<path d="M27.7324 22.6875H32.3125V18.5625H24.9824L27.7324 22.6875Z" fill="#8F4E8B"/>
<path d="M243.5 57.9375C243.5 58.6938 242.862 59.3125 242.083 59.3125C241.304 59.3125 240.667 58.6938 240.667 57.9375V51.75C240.667 50.9937 241.304 50.375 242.083 50.375C242.862 50.375 243.5 50.9937 243.5 51.75V57.9375ZM263.333 57.9375C263.333 58.6938 262.696 59.3125 261.917 59.3125C261.137 59.3125 260.5 58.6938 260.5 57.9375V51.75C260.5 50.9937 261.137 50.375 261.917 50.375C262.696 50.375 263.333 50.9937 263.333 51.75V57.9375ZM250.583 65.5C250.583 66.2563 249.946 66.875 249.167 66.875C248.387 66.875 247.75 66.2563 247.75 65.5V59.3125C247.75 58.5562 248.387 57.9375 249.167 57.9375C249.946 57.9375 250.583 58.5562 250.583 59.3125V65.5ZM256.25 65.5C256.25 66.2563 255.612 66.875 254.833 66.875C254.054 66.875 253.417 66.2563 253.417 65.5V59.3125C253.417 58.5562 254.054 57.9375 254.833 57.9375C255.612 57.9375 256.25 58.5562 256.25 59.3125V65.5Z" fill="#7CB342"/>
<path d="M244.917 50.375V60.6875C244.917 61.4438 245.554 62.0625 246.333 62.0625H257.667C258.446 62.0625 259.083 61.4438 259.083 60.6875V50.375H244.917ZM252 43.5C247.75 43.5 245.129 45.975 244.917 49H259.083C258.871 45.975 256.25 43.5 252 43.5ZM249.167 47.35C248.742 47.35 248.458 47.075 248.458 46.6625C248.458 46.25 248.742 45.975 249.167 45.975C249.592 45.975 249.875 46.25 249.875 46.6625C249.875 47.0063 249.592 47.35 249.167 47.35ZM254.833 47.35C254.408 47.35 254.125 47.075 254.125 46.6625C254.125 46.25 254.408 45.975 254.833 45.975C255.258 45.975 255.542 46.25 255.542 46.6625C255.542 47.0063 255.258 47.35 254.833 47.35Z" fill="#7CB342"/>
<path d="M255.046 45.2188C254.904 45.2188 254.763 45.15 254.621 45.0813C254.267 44.875 254.196 44.4625 254.408 44.1188L255.613 42.4C255.825 42.0563 256.25 41.9875 256.604 42.1938C256.958 42.4 257.029 42.8125 256.817 43.1563L255.613 44.875C255.542 45.0813 255.329 45.2188 255.046 45.2188ZM248.671 44.9438C248.458 44.9438 248.175 44.8063 248.104 44.6L247.183 43.1563C246.971 42.8125 247.042 42.4 247.396 42.1938C247.75 41.9875 248.175 42.0563 248.388 42.4L249.308 43.8438C249.521 44.1875 249.45 44.6 249.096 44.8063C248.954 44.875 248.813 44.9438 248.671 44.9438Z" fill="#7CB342"/>
<path d="M285.333 28.875H296.667C300.579 28.875 303.75 25.7971 303.75 22V11C303.75 7.20294 300.579 4.125 296.667 4.125H285.333C281.421 4.125 278.25 7.20294 278.25 11V22C278.25 25.7971 281.421 28.875 285.333 28.875Z" fill="#ECEFF1"/>
<path d="M283.054 12.3571C282.911 12.3571 282.774 12.4123 282.673 12.5106C282.572 12.6088 282.515 12.7421 282.515 12.881C282.515 13.0199 282.572 13.1532 282.673 13.2514C282.774 13.3497 282.911 13.4049 283.054 13.4049C283.198 13.4049 283.335 13.3497 283.436 13.2514C283.537 13.1532 283.594 13.0199 283.594 12.881C283.594 12.7421 283.537 12.6088 283.436 12.5106C283.335 12.4123 283.198 12.3571 283.054 12.3571V12.3571Z" fill="#FFC107"/>
<path d="M285.321 14.9944L286.343 14.575C286.825 13.7362 287.643 13.2502 288.704 13.2502C288.944 13.2502 289.17 13.2797 289.385 13.3279L290.357 12.9298C289.878 12.7009 289.329 12.5682 288.704 12.5682C287.011 12.5682 285.803 13.4709 285.321 14.9944ZM283.419 15.774V14.6953H282.693V16.0717L283.419 15.774Z" fill="#FF5722"/>
<path d="M283.419 17.6914V15.774L282.693 16.0717V17.9884L283.419 17.6914ZM285.859 16.6018C285.859 15.7981 286.033 15.1147 286.343 14.575L285.321 14.9944C285.169 15.4729 285.085 16.0091 285.085 16.6018C285.085 16.7399 285.105 16.8644 285.113 16.9964L285.865 16.6877C285.865 16.6581 285.859 16.632 285.859 16.6018ZM295.548 12.7188C295.351 12.7779 295.168 12.8528 295 12.9436L295.548 12.7188ZM290.357 12.9298L289.385 13.3279C290.112 13.4908 290.68 13.9212 291.05 14.5626L291.773 14.2656C291.442 13.6661 290.958 13.2179 290.357 12.9298Z" fill="#F44336"/>
<path d="M283.419 19.6082V17.6914L282.693 17.9884V19.9052L283.419 19.6082ZM295.548 12.7187L295 12.9435C294.304 13.3196 293.883 13.95 293.883 14.7173C293.883 14.9249 293.915 15.1099 293.966 15.2845L294.697 14.9847C294.673 14.894 294.657 14.7991 294.657 14.696C294.657 13.8524 295.448 13.2405 296.594 13.2405C297.158 13.2405 297.633 13.387 297.981 13.6386L298.723 13.334C298.231 12.8638 297.494 12.5689 296.616 12.5689C296.228 12.5682 295.87 12.6225 295.548 12.7187ZM285.865 16.6884L285.112 16.997C285.154 17.6564 285.296 18.2421 285.535 18.7405L286.246 18.449C286.009 17.9582 285.876 17.3662 285.865 16.6884ZM291.773 14.2663L291.05 14.5633C291.319 15.0322 291.477 15.6165 291.516 16.2889L292.267 15.9809C292.201 15.3292 292.039 14.7482 291.773 14.2663Z" fill="#E91E63"/>
<path d="M292.14 17.9492C292.243 17.5354 292.311 17.0919 292.311 16.6018C292.311 16.3845 292.288 16.1831 292.266 15.9802L291.515 16.2882C291.521 16.3934 291.536 16.4918 291.536 16.6018C291.536 17.2673 291.411 17.8454 291.195 18.3363L292.14 17.9492ZM286.247 18.4484L285.536 18.7399C285.825 19.3442 286.25 19.8179 286.795 20.141L287.686 19.7759C287.047 19.5436 286.557 19.0877 286.247 18.4484ZM283.419 19.6082L282.693 19.9052V20.4799H283.419V19.6082ZM294.697 14.9841L293.966 15.2838C294.14 15.8792 294.615 16.2951 295.475 16.5825L296.608 16.1177L296.368 16.0593C295.336 15.8091 294.829 15.4873 294.697 14.9841ZM298.593 14.6252H299.356C299.321 14.1226 299.088 13.6812 298.724 13.3334L297.981 13.6379C298.316 13.8799 298.533 14.2203 298.593 14.6252Z" fill="#9C27B0"/>
<path d="M292.14 17.9492L291.196 18.3363C290.75 19.351 289.885 19.9588 288.703 19.9588C288.329 19.9588 287.994 19.888 287.685 19.7752L286.794 20.1403C287.327 20.4558 287.961 20.6408 288.703 20.6408C290.504 20.6408 291.722 19.6219 292.14 17.9492ZM294.42 18.4655H293.656C293.675 18.7185 293.746 18.9502 293.843 19.1675L294.544 18.8801C294.484 18.7502 294.438 18.6133 294.42 18.4655ZM297.159 16.2532L296.607 16.1184L295.474 16.5832C295.64 16.6388 295.819 16.6904 296.014 16.7372L296.927 16.9627C297.432 17.0837 297.817 17.237 298.102 17.4226L298.955 17.0727C298.581 16.7186 297.997 16.4546 297.159 16.2532Z" fill="#3F51B5"/>
<path d="M294.544 18.8808L293.843 19.1682C294.11 19.7663 294.65 20.2208 295.378 20.4559L296.576 19.965C295.599 19.9423 294.836 19.5223 294.544 18.8808ZM299.439 18.7914C299.464 18.6588 299.484 18.5233 299.484 18.3803C299.484 17.8413 299.318 17.4151 298.956 17.0727L298.102 17.4226C298.513 17.6908 298.709 18.0297 298.709 18.4608C298.709 18.7309 298.616 18.9764 298.462 19.1916L299.439 18.7914Z" fill="#03A9F4"/>
<path d="M299.439 18.7914L298.463 19.1923C298.128 19.6611 297.475 19.9705 296.656 19.9705C296.629 19.9705 296.604 19.9664 296.577 19.9657L295.378 20.4566C295.743 20.5741 296.148 20.6415 296.59 20.6415C298.153 20.6408 299.228 19.9128 299.439 18.7914Z" fill="#009688"/>
<path d="M274.708 41.4375L278.958 44.1875V57.9375L274.708 55.1875V41.4375Z" fill="#29B6F6"/>
<path d="M307.292 51.75L303.042 54.5V63.4375L307.292 60.6875V51.75Z" fill="#0288D1"/>
<path d="M307.292 42.125L303.042 44.875V49.6875L307.292 46.9375V42.125Z" fill="#0288D1"/>
<path d="M298.792 41.4375L294.542 44.1875V57.9375L298.792 55.1875V41.4375Z" fill="#0288D1"/>
<path d="M274.708 46.25L286.75 53.8125V49L274.708 41.4375V46.25Z" fill="#29B6F6"/>
<path d="M298.792 46.25L286.75 53.8125V49L298.792 41.4375V46.25Z" fill="#0288D1"/>
<path d="M298.792 55.875L286.75 63.4375V58.625L298.792 51.0625V55.875Z" fill="#0288D1"/>
<path d="M307.292 61.375L295.25 68.9375V64.125L307.292 56.5625V61.375Z" fill="#0288D1"/>
<path d="M295.25 63.9634L286.75 58.625V63.4375L295.25 68.7759V63.9634Z" fill="#29B6F6"/>
<path fill-rule="evenodd" clip-rule="evenodd" d="M319.667 49V57.6941C318.714 57.8687 318.214 57.9375 317.455 57.9375C315.183 57.9354 314 56.9509 314 55.061C314 53.2398 315.254 52.058 317.199 52.058C317.501 52.058 317.73 52.0807 318.008 52.1501V49H319.667ZM318.008 53.587C317.79 53.5183 317.611 53.4949 317.381 53.4949C316.44 53.4949 315.896 54.0511 315.896 55.0266C315.896 55.9761 316.416 56.4999 317.369 56.4999C317.575 56.4999 317.742 56.4889 318.008 56.4539V53.587V53.587Z" fill="#004D40"/>
<path fill-rule="evenodd" clip-rule="evenodd" d="M322.5 51.7816V56.3315C322.5 57.7588 322.39 58.548 322.067 59.1393C321.765 59.7078 321.367 60.0667 320.547 60.4627L318.82 59.6728C319.641 59.3022 320.039 58.975 320.293 58.4751C320.559 57.9643 320.643 57.2693 320.643 55.7135V51.7803H322.5V51.7816Z" fill="#004D40"/>
<path d="M322.5 49H320.642V50.8652H322.5V49Z" fill="#004D40"/>
<path fill-rule="evenodd" clip-rule="evenodd" d="M323.728 52.3522C324.533 51.9727 325.303 51.8057 326.142 51.8057C327.078 51.8057 327.693 52.0552 327.965 52.5434C328.117 52.8163 328.167 53.1717 328.167 53.9328V57.6501C327.351 57.7677 326.321 57.8522 325.565 57.8522C324.038 57.8522 323.353 57.3174 323.353 56.13C323.353 54.8458 324.263 54.2525 326.499 54.0634V53.6612C326.499 53.3292 326.332 53.2089 325.873 53.2089C325.2 53.2089 324.442 53.4 323.731 53.7671L323.728 52.3522ZM326.581 55.261C325.375 55.3786 324.984 55.5697 324.984 56.0455C324.984 56.4016 325.209 56.5687 325.706 56.5687C325.978 56.5687 326.227 56.5453 326.581 56.4862V55.261Z" fill="#004D40"/>
<path fill-rule="evenodd" clip-rule="evenodd" d="M329.171 52.2264C330.248 51.937 331.134 51.805 332.033 51.805C332.967 51.805 333.643 52.0229 334.044 52.4444C334.421 52.8417 334.541 53.2776 334.541 54.2064V57.8522H332.718V54.2807C332.718 53.5671 332.481 53.3017 331.831 53.3017C331.583 53.3017 331.358 53.3257 330.991 53.4357V57.8529H329.171V52.2264V52.2264Z" fill="#004D40"/>
<path fill-rule="evenodd" clip-rule="evenodd" d="M335.375 58.6291C336.026 58.9632 336.678 59.1172 337.367 59.1172C338.586 59.1172 339.105 58.7921 339.105 57.6212V57.5855C338.744 57.7629 338.379 57.8371 337.898 57.8371C336.268 57.8371 335.25 56.7736 335.25 55.0892C335.25 52.9971 336.767 51.8153 339.482 51.8153C340.279 51.8153 341.017 51.8985 341.909 52.0786L341.272 53.4055C340.777 53.3106 341.232 53.3911 340.859 53.356V53.5478L340.883 54.3247L340.895 55.3291C340.907 55.5807 340.907 55.831 340.919 56.0826V56.5845C340.919 58.1623 340.784 58.7371 340.387 59.3482C339.807 60.2434 338.804 60.6868 337.379 60.6868C336.654 60.6868 336.026 60.5802 335.375 60.3286V58.6291V58.6291ZM339.069 53.2976H339.009H338.875C338.513 53.2859 338.09 53.3807 337.799 53.5609C337.354 53.8118 337.124 54.2669 337.124 54.9111C337.124 55.8303 337.584 56.3562 338.405 56.3562C338.658 56.3562 338.865 56.3088 339.104 56.238V56.1053V55.6034C339.104 55.3876 339.092 55.1483 339.092 54.8974L339.08 54.049L339.068 53.4399V53.2976H339.069Z" fill="#004D40"/>
<path fill-rule="evenodd" clip-rule="evenodd" d="M344.859 51.7816C346.809 51.7816 348 52.9229 348 54.7709C348 56.6656 346.759 57.8529 344.781 57.8529C342.829 57.8529 341.625 56.7124 341.625 54.8761C341.629 52.9696 342.87 51.7816 344.859 51.7816ZM344.819 56.392C345.568 56.392 346.01 55.8159 346.01 54.8149C346.01 53.8256 345.58 53.2377 344.832 53.2377C344.057 53.2377 343.615 53.8139 343.615 54.8149C343.615 55.8159 344.06 56.392 344.819 56.392Z" fill="#004D40"/>
<path d="M330.844 31.0482L318.812 23.9387V9.74872L330.844 2.63928L342.875 9.74872V23.9387L330.844 31.0482ZM320.188 23.155L330.844 29.4518L341.5 23.155V10.5325L330.844 4.23566L320.188 10.5325V23.155Z" fill="#FF4081"/>
<path d="M330.844 6.1875C332.173 6.1875 333.25 5.11019 333.25 3.78125C333.25 2.45231 332.173 1.375 330.844 1.375C329.515 1.375 328.438 2.45231 328.438 3.78125C328.438 5.11019 329.515 6.1875 330.844 6.1875Z" fill="#FF4081"/>
<path d="M330.844 32.3125C332.173 32.3125 333.25 31.2352 333.25 29.9062C333.25 28.5773 332.173 27.5 330.844 27.5C329.515 27.5 328.438 28.5773 328.438 29.9062C328.438 31.2352 329.515 32.3125 330.844 32.3125Z" fill="#FF4081"/>
<path d="M319.844 25.4375C321.173 25.4375 322.25 24.3602 322.25 23.0312C322.25 21.7023 321.173 20.625 319.844 20.625C318.515 20.625 317.438 21.7023 317.438 23.0312C317.438 24.3602 318.515 25.4375 319.844 25.4375Z" fill="#FF4081"/>
<path d="M341.844 25.4375C343.173 25.4375 344.25 24.3602 344.25 23.0312C344.25 21.7023 343.173 20.625 341.844 20.625C340.515 20.625 339.438 21.7023 339.438 23.0312C339.438 24.3602 340.515 25.4375 341.844 25.4375Z" fill="#FF4081"/>
<path d="M319.844 13.0625C321.173 13.0625 322.25 11.9852 322.25 10.6562C322.25 9.32731 321.173 8.25 319.844 8.25C318.515 8.25 317.438 9.32731 317.438 10.6562C317.438 11.9852 318.515 13.0625 319.844 13.0625Z" fill="#FF4081"/>
<path d="M341.844 13.0625C343.173 13.0625 344.25 11.9852 344.25 10.6562C344.25 9.32731 343.173 8.25 341.844 8.25C340.515 8.25 339.438 9.32731 339.438 10.6562C339.438 11.9852 340.515 13.0625 341.844 13.0625Z" fill="#FF4081"/>
<path d="M343.37 24.0625H318.317L330.844 2.04736L343.37 24.0625ZM320.682 22.6875H341.005L330.844 4.82761L320.682 22.6875Z" fill="#FF4081"/>
<defs>
<clipPath id="clip0_212_11">
<rect width="34" height="33" fill="white" transform="translate(78)"/>
</clipPath>
<clipPath id="clip1_212_11">
<rect width="33" height="33" fill="white" transform="translate(197 38)"/>
</clipPath>
</defs>
</svg>
