<svg width="21" height="21" viewBox="0 0 21 21" fill="none" xmlns="http://www.w3.org/2000/svg">
<g opacity="0.4">
<mask id="mask0_212_222" style="mask-type:alpha" maskUnits="userSpaceOnUse" x="5" y="4" width="11" height="15">
<path d="M10.3333 15.3333C10.687 15.3333 11.0261 15.1928 11.2761 14.9428C11.5262 14.6927 11.6667 14.3536 11.6667 14C11.6667 13.26 11.0667 12.6666 10.3333 12.6666C9.97971 12.6666 9.64057 12.8071 9.39052 13.0572C9.14048 13.3072 9 13.6463 9 14C9 14.3536 9.14048 14.6927 9.39052 14.9428C9.64057 15.1928 9.97971 15.3333 10.3333 15.3333ZM14.3333 9.33329C14.687 9.33329 15.0261 9.47377 15.2761 9.72382C15.5262 9.97387 15.6667 10.313 15.6667 10.6666V17.3333C15.6667 17.6869 15.5262 18.0261 15.2761 18.2761C15.0261 18.5262 14.687 18.6666 14.3333 18.6666H6.33333C5.97971 18.6666 5.64057 18.5262 5.39052 18.2761C5.14048 18.0261 5 17.6869 5 17.3333V10.6666C5 9.92663 5.6 9.33329 6.33333 9.33329H7V7.99996C7 7.1159 7.35119 6.26806 7.97631 5.64294C8.60143 5.01782 9.44928 4.66663 10.3333 4.66663C10.7711 4.66663 11.2045 4.75285 11.6089 4.92036C12.0134 5.08788 12.3808 5.33341 12.6904 5.64294C12.9999 5.95247 13.2454 6.31993 13.4129 6.72435C13.5804 7.12877 13.6667 7.56222 13.6667 7.99996V9.33329H14.3333ZM10.3333 5.99996C9.8029 5.99996 9.29419 6.21067 8.91912 6.58575C8.54405 6.96082 8.33333 7.46953 8.33333 7.99996V9.33329H12.3333V7.99996C12.3333 7.46953 12.1226 6.96082 11.7475 6.58575C11.3725 6.21067 10.8638 5.99996 10.3333 5.99996Z" fill="#666060"/>
</mask>
<g mask="url(#mask0_212_222)">
<rect x="3" y="4" width="14" height="14" fill="#5F5F5F"/>
</g>
</g>
</svg>
