<svg width="64" height="64" viewBox="0 0 64 64" fill="none" xmlns="http://www.w3.org/2000/svg">
<path d="M31.5406 33.1973C30.2307 31.052 29.2805 29.2733 27.964 25.924C25.738 20.2667 41.5025 15.1547 35.1106 5.332C37.8813 12.1173 25.1658 16.312 23.9845 21.9627C22.9044 27.16 31.534 33.1973 31.5406 33.1973Z" fill="#F44336"/>
<path d="M31.8399 23.0267C31.5879 26.3813 34.7654 28.1693 34.8573 30.62C34.9308 32.6147 32.9581 34.2773 32.9581 34.2773C32.9581 34.2773 36.5386 33.5627 37.6555 30.52C38.8959 27.1413 35.2484 24.828 35.6238 22.1227C35.9742 19.5387 43.5395 14.732 43.5395 14.732C43.5395 14.732 32.4082 15.4813 31.8399 23.0267Z" fill="#F44336"/>
<path d="M42.6102 33.4067C44.9124 32.8813 46.8536 34.3707 46.8536 36.0867C46.8536 39.9547 41.576 43.6107 41.576 43.6107C41.576 43.6107 49.7463 42.6213 49.7463 36.2707C49.7463 32.0707 45.734 31.0213 42.6102 33.4067ZM38.7318 36.5267C38.7318 36.5267 41.2794 34.6827 41.9579 33.9907C35.7065 35.3387 21.433 35.52 21.433 34.3493C21.433 33.2707 26.036 32.1653 26.036 32.1653C26.036 32.1653 15.8339 32.016 15.8339 35.0733C15.8339 38.26 29.1886 38.488 38.7318 36.5267Z" fill="#1565C0"/>
<path d="M37.1647 39.428C31.2466 41.4267 20.3463 40.788 23.5751 38.104C22.0027 38.104 19.6717 39.388 19.6717 40.6227C19.6717 43.0987 31.4606 45.0107 40.1861 41.3853L37.1647 39.428Z" fill="#1565C0"/>
<path d="M25.0253 43.652C22.8781 43.652 21.4882 45.0573 21.4882 46.0813C21.4882 49.2693 34.2982 49.5906 39.3736 46.3546L36.1475 44.1786C32.3557 45.872 22.8308 46.1053 25.0253 43.652Z" fill="#1565C0"/>
<path d="M48.1188 48.8427C48.1188 47.5947 46.7341 47.0067 46.238 46.7253C49.1623 53.8893 16.9469 53.3333 16.9469 49.104C16.9469 48.1427 19.3186 47.2013 21.5105 47.6467L19.6468 46.528C15.2788 45.832 12.3125 47.7827 12.3125 49.356C12.3125 56.6933 48.1188 56.34 48.1188 48.8427Z" fill="#1565C0"/>
<path d="M51.6875 51.472C46.2459 56.932 32.4476 58.9213 18.5718 55.548C32.4476 61.552 51.6219 58.1707 51.6875 51.472Z" fill="#1565C0"/>
</svg>
