<svg width="66" height="64" viewBox="0 0 66 64" fill="none" xmlns="http://www.w3.org/2000/svg">
<path d="M8.25 56V8H57.75V56H8.25Z" fill="#FFD600"/>
<path d="M40.6148 43.9293C41.5663 45.428 42.6003 46.864 44.7906 46.864C46.6304 46.864 47.5956 45.9773 47.5956 44.7507C47.5956 43.2827 46.5974 42.7613 44.5734 41.9067L43.4638 41.448C40.2614 40.1307 38.1315 38.48 38.1315 34.9933C38.1315 31.78 40.6684 29.3347 44.6325 29.3347C47.4554 29.3347 49.4835 30.2827 50.9465 32.7653L47.4898 34.908C46.7294 33.5907 45.9071 33.072 44.6325 33.072C43.3318 33.072 42.5081 33.868 42.5081 34.908C42.5081 36.1933 43.3331 36.7133 45.2375 37.5093L46.3471 37.968C50.1215 39.5267 52.25 41.1187 52.25 44.6973C52.25 48.5533 49.1095 50.6667 44.8938 50.6667C40.7701 50.6667 38.4285 48.66 37.125 46.176L40.6148 43.9293ZM24.684 44.0387C25.3798 45.2467 26.4371 46.176 27.9579 46.176C29.4126 46.176 30.25 45.6187 30.25 43.452V29.3333H34.8329V44.1347C34.8329 48.624 32.1475 50.6667 28.226 50.6667C24.6826 50.6667 22.1251 48.3387 21.0829 46.176L24.684 44.0387Z" fill="#000001"/>
</svg>
