<svg width="70" height="70" viewBox="0 0 70 70" fill="none" xmlns="http://www.w3.org/2000/svg">
<path d="M35 8.75L26.2354 18.0104L17.4563 27.2563L8.75 36.4583V8.75H35Z" fill="#0D91D6"/>
<path d="M35 8.75H34.9417L26.2062 17.9812L17.4417 27.2417L8.75 36.4146V36.4583V36.5896V61.25L21.4229 48.5771L30.4354 39.5646L39.4625 30.5375L48.4896 21.5104L61.25 8.75H35Z" fill="#F88909"/>
<path d="M21.4229 48.5771L8.75 61.25V36.5896L21.4229 48.5771Z" fill="#C757BC"/>
<path d="M30.4354 39.5646L21.4229 48.5771L8.75 36.5896V36.4583L17.4562 27.2563L30.4354 39.5646Z" fill="#D3638F"/>
<path d="M39.4625 30.5375L30.4355 39.5646L17.4563 27.2563L26.2355 18.0104L39.4625 30.5375Z" fill="#E07063"/>
<path d="M48.4895 21.5104L39.4624 30.5375L26.2354 18.0104L34.9999 8.75L48.4895 21.5104Z" fill="#EC7D36"/>
<path d="M61.25 8.75L48.4896 21.5104L35 8.75H61.25Z" fill="#F88909"/>
<path d="M16.7854 27.9271L11.6521 33.3667L8.75 30.625V20.3292L16.7854 27.9271Z" fill="#0095D5"/>
<path d="M21.9187 22.4875L16.7854 27.9271L8.75 20.3292V10.0188L21.9187 22.4875Z" fill="#2B88DA"/>
<path d="M27.0667 17.0625L21.9187 22.4875L8.75 10.0187V8.75H18.2729L27.0667 17.0625Z" fill="#557BDE"/>
<path d="M32.2 11.6229L27.0667 17.0625L18.2729 8.75H35L32.2 11.6229Z" fill="#806EE3"/>
<path d="M33.5417 36.4583L8.75 61.25H13.6354H25.55H58.3333L33.5417 36.4583Z" fill="#0095D5"/>
<path d="M37.4499 61.25H25.5499L17.1499 52.8646L23.0999 46.9146L37.4499 61.25Z" fill="#2B88DA"/>
<path d="M49.3793 61.25H37.4501L23.1001 46.9146L29.0501 40.9646L49.3793 61.25Z" fill="#557BDE"/>
<path d="M61.25 61.25H49.3792L29.05 40.9646L35 35L61.25 61.25Z" fill="#806EE3"/>
</svg>
