<svg width="66" height="64" viewBox="0 0 66 64" fill="none" xmlns="http://www.w3.org/2000/svg">
<g clip-path="url(#clip0_463_189)">
<path d="M57.375 18.6667L54.6666 53.3333L19.4583 56L57.375 18.6667Z" fill="#9B1010"/>
<path d="M38.4167 37.3333L54.6667 53.3333L57.375 18.6667L38.4167 37.3333Z" fill="#B71C1C"/>
<path d="M21.831 21.0033C18.9866 23.8041 16.4589 26.8619 14.3922 30.0021C12.3256 33.1423 10.7605 36.3035 9.78632 39.3051C8.81212 42.3067 8.4479 45.0899 8.71445 47.4959C8.98101 49.9019 9.87312 51.8836 11.3398 53.3277C12.8066 54.7718 14.8192 55.6501 17.2628 55.9125C19.7064 56.1748 22.5331 55.8161 25.5816 54.8568C28.6301 53.8975 31.8405 52.3564 35.0298 50.3214C38.219 48.2865 41.3245 45.7975 44.1689 42.9967C47.0134 40.196 49.5411 37.1382 51.6077 33.9979C53.6744 30.8577 55.2395 27.6965 56.2137 24.6949C57.1879 21.6933 57.5521 18.9101 57.2855 16.5041C57.019 14.0981 56.1269 12.1165 54.6601 10.6723C53.1934 9.22824 51.1808 8.34993 48.7372 8.08756C46.2936 7.82519 43.4669 8.1839 40.4184 9.14321C37.3699 10.1025 34.1594 11.6437 30.9702 13.6786C27.781 15.7136 24.6755 18.2025 21.831 21.0033Z" fill="#C62828"/>
<path d="M14.0417 22.6667L23.5208 13.3333L34.3542 8L42.4792 13.3333L38.4167 25.3333L26.2292 36L14.0417 40L8.625 32L14.0417 22.6667Z" fill="#E53935"/>
<path d="M42.4792 13.3333L34.3542 8H49.25L42.4792 13.3333ZM57.375 20L42.4792 13.3333L38.4167 25.3333L57.375 20ZM26.2292 36L44.1516 42.98L38.4167 25.3333L26.2292 36ZM14.0417 40L19.4583 56L26.2292 36L14.0417 40ZM8.625 32V46.6667L14.0417 40L8.625 32Z" fill="#FF5252"/>
</g>
<defs>
<clipPath id="clip0_463_189">
<rect width="65" height="64" fill="white" transform="translate(0.5)"/>
</clipPath>
</defs>
</svg>
