<svg width="58" height="58" viewBox="0 0 58 58" fill="none" xmlns="http://www.w3.org/2000/svg">
<g filter="url(#filter0_d_212_168)">
<path fill-rule="evenodd" clip-rule="evenodd" d="M27.8575 3.4229C28.5647 3.02603 29.4356 3.02603 30.1418 3.4229C33.6366 5.38436 44.1533 11.2885 47.6491 13.25C48.3564 13.6458 48.7918 14.3792 48.7918 15.1729C48.7918 19.0958 48.7918 30.9031 48.7918 34.826C48.7918 35.6198 48.3564 36.3531 47.6491 36.75C44.1543 38.7114 33.6377 44.6156 30.1418 46.5771C29.4345 46.9739 28.5637 46.9739 27.8575 46.5771C24.3627 44.6156 13.846 38.7114 10.3502 36.75C9.64391 36.3531 9.2085 35.6208 9.2085 34.8271C9.2085 30.9041 9.2085 19.0969 9.2085 15.1739C9.2085 14.3802 9.64391 13.6469 10.3512 13.25C13.845 11.2885 24.3637 5.38436 27.8575 3.4229Z" fill="#00549D"/>
<path fill-rule="evenodd" clip-rule="evenodd" d="M9.52516 35.8375C9.24808 35.4667 9.2085 35.1146 9.2085 34.6407C9.2085 30.7407 9.2085 19.0011 9.2085 15.1C9.2085 14.3105 9.64287 13.5813 10.3481 13.1875C13.8304 11.2375 24.3116 5.36776 27.7939 3.41672C28.4991 3.02192 29.4543 3.03026 30.1595 3.42505C33.6418 5.37505 44.0877 11.1948 47.57 13.1448C47.8512 13.3032 48.0658 13.4938 48.2575 13.7448L9.52516 35.8375Z" fill="#0086D4"/>
<path fill-rule="evenodd" clip-rule="evenodd" d="M28.9998 10.4166C37.0488 10.4166 43.5832 16.951 43.5832 25C43.5832 33.0489 37.0488 39.5833 28.9998 39.5833C20.9509 39.5833 14.4165 33.0489 14.4165 25C14.4165 16.951 20.9509 10.4166 28.9998 10.4166ZM28.9998 17.7083C33.0238 17.7083 36.2915 20.975 36.2915 25C36.2915 29.0239 33.0238 32.2916 28.9998 32.2916C24.9759 32.2916 21.7082 29.0239 21.7082 25C21.7082 20.975 24.9748 17.7083 28.9998 17.7083Z" fill="white"/>
<path fill-rule="evenodd" clip-rule="evenodd" d="M48.2553 13.7552C48.7928 14.2584 48.7824 15.0167 48.7824 15.6136C48.7824 19.5667 48.7491 30.8105 48.7918 34.7636C48.796 35.1761 48.6595 35.6105 48.4553 35.9375L28.5762 25L48.2553 13.7552Z" fill="#0075C0"/>
<path fill-rule="evenodd" clip-rule="evenodd" d="M36.2915 21.875H38.3748V28.125H36.2915V21.875ZM43.5832 21.875H45.6665V28.125H43.5832V21.875Z" fill="white"/>
<path fill-rule="evenodd" clip-rule="evenodd" d="M34.2085 23.9584H40.4585V26.0417H34.2085V23.9584ZM41.5002 23.9584H47.7502V26.0417H41.5002V23.9584Z" fill="white"/>
</g>
<defs>
<filter id="filter0_d_212_168" x="0" y="0" width="58" height="58" filterUnits="userSpaceOnUse" color-interpolation-filters="sRGB">
<feFlood flood-opacity="0" result="BackgroundImageFix"/>
<feColorMatrix in="SourceAlpha" type="matrix" values="0 0 0 0 0 0 0 0 0 0 0 0 0 0 0 0 0 0 127 0" result="hardAlpha"/>
<feOffset dy="4"/>
<feGaussianBlur stdDeviation="2"/>
<feComposite in2="hardAlpha" operator="out"/>
<feColorMatrix type="matrix" values="0 0 0 0 0 0 0 0 0 0 0 0 0 0 0 0 0 0 0.25 0"/>
<feBlend mode="normal" in2="BackgroundImageFix" result="effect1_dropShadow_212_168"/>
<feBlend mode="normal" in="SourceGraphic" in2="effect1_dropShadow_212_168" result="shape"/>
</filter>
</defs>
</svg>
