<svg width="50" height="45" viewBox="0 0 50 45" fill="none" xmlns="http://www.w3.org/2000/svg">
<path d="M42.7082 5.20837H7.2915L10.4165 40.625L24.9998 44.7917L39.5832 40.625L42.7082 5.20837Z" fill="#E65100"/>
<path d="M25 8.33337V41.5625L36.6667 38.2292L39.2708 8.33337H25Z" fill="#FF6D00"/>
<path d="M25 26.0416V21.875H33.9583L33.2292 33.8541L25 36.5625V32.1875L29.2708 30.7291L29.5833 26.0416H25ZM34.2708 17.7083L34.5833 13.5416H25V17.7083H34.2708Z" fill="white"/>
<path d="M25.0002 32.1875V36.5625L16.771 33.8541L16.3543 28.125H20.521L20.7293 30.7291L25.0002 32.1875ZM19.896 17.7083H25.0002V13.5416H15.521L16.2502 26.0416H25.0002V21.875H20.2085L19.896 17.7083Z" fill="#EEEEEE"/>
</svg>
