<svg width="50" height="50" viewBox="0 0 50 50" fill="none" xmlns="http://www.w3.org/2000/svg">
<path d="M24.5201 26.1136C23.1522 24.1183 22.1599 22.464 20.7851 19.3489C18.4606 14.0873 34.923 9.33281 28.2481 0.197144C31.1415 6.50791 17.863 10.4092 16.6294 15.6647C15.5014 20.4985 24.5132 26.1136 24.5201 26.1136Z" fill="#F44336"/>
<path d="M24.8327 16.6542C24.5696 19.7743 27.8878 21.4372 27.9838 23.7165C28.0605 25.5716 26.0005 27.118 26.0005 27.118C26.0005 27.118 29.7395 26.4533 30.9059 23.6235C32.2011 20.4811 28.3922 18.3296 28.7842 15.8135C29.1502 13.4102 37.0504 8.9397 37.0504 8.9397C37.0504 8.9397 25.4262 9.63662 24.8327 16.6542Z" fill="#F44336"/>
<path d="M36.0801 26.3083C38.4841 25.8197 40.5113 27.2049 40.5113 28.8009C40.5113 32.3984 35 35.7987 35 35.7987C35 35.7987 43.5321 34.8785 43.5321 28.972C43.5321 25.0658 39.3421 24.0898 36.0801 26.3083ZM32.0299 29.2101C32.0299 29.2101 34.6903 27.4951 35.3989 26.8515C28.8706 28.1052 13.9652 28.2739 13.9652 27.1851C13.9652 26.1818 18.7719 25.1538 18.7719 25.1538C18.7719 25.1538 8.11816 25.0149 8.11816 27.8584C8.11816 30.8222 22.0642 31.0343 32.0299 29.2101Z" fill="#1565C0"/>
<path d="M30.3935 31.9085C24.2134 33.7674 12.8305 33.1734 16.2022 30.6771C14.5602 30.6771 12.126 31.8713 12.126 33.0196C12.126 35.3225 24.4368 37.1007 33.5487 33.729L30.3935 31.9085Z" fill="#1565C0"/>
<path d="M17.7168 35.837C15.4744 35.837 14.0229 37.1441 14.0229 38.0965C14.0229 41.0615 27.4001 41.3604 32.7003 38.3507L29.3313 36.3269C25.3716 37.9018 15.4251 38.1188 17.7168 35.837Z" fill="#1565C0"/>
<path d="M41.8326 40.6648C41.8326 39.5041 40.3866 38.9572 39.8686 38.6955C42.9223 45.3585 9.28056 44.8414 9.28056 40.9078C9.28056 40.0137 11.7573 39.1382 14.0462 39.5524L12.0999 38.512C7.53851 37.8647 4.44092 39.6789 4.44092 41.1422C4.44092 47.9664 41.8326 47.6377 41.8326 40.6648Z" fill="#1565C0"/>
<path d="M45.5595 43.1101C39.8769 48.1882 25.4677 50.0384 10.9775 46.901C25.4677 52.4851 45.491 49.3403 45.5595 43.1101Z" fill="#1565C0"/>
</svg>
