<svg width="38" height="38" viewBox="0 0 38 38" fill="none" xmlns="http://www.w3.org/2000/svg">
<g clip-path="url(#clip0_212_197)">
<path d="M0.25 37.75V0.25H37.75V37.75H0.25Z" fill="#FFD600"/>
<path d="M24.7686 28.3198C25.4894 29.4906 26.2727 30.6125 27.9321 30.6125C29.3259 30.6125 30.0571 29.9198 30.0571 28.9614C30.0571 27.8145 29.3008 27.4073 27.7675 26.7395L26.9269 26.3812C24.5008 25.352 22.8873 24.0625 22.8873 21.3385C22.8873 18.8281 24.8092 16.9177 27.8123 16.9177C29.9508 16.9177 31.4873 17.6583 32.5956 19.5979L29.9769 21.2718C29.4008 20.2427 28.7779 19.8375 27.8123 19.8375C26.8269 19.8375 26.2029 20.4593 26.2029 21.2718C26.2029 22.276 26.8279 22.6823 28.2706 23.3041L29.1113 23.6625C31.9706 24.8802 33.5831 26.1239 33.5831 28.9198C33.5831 31.9323 31.204 33.5833 28.0102 33.5833C24.8863 33.5833 23.1123 32.0156 22.1248 30.075L24.7686 28.3198ZM12.6998 28.4052C13.2269 29.3489 14.0279 30.075 15.18 30.075C16.2821 30.075 16.9165 29.6395 16.9165 27.9468V16.9166H20.3883V28.4802C20.3883 31.9875 18.354 33.5833 15.3831 33.5833C12.6988 33.5833 10.7613 31.7645 9.97168 30.075L12.6998 28.4052Z" fill="#000001"/>
</g>
<defs>
<clipPath id="clip0_212_197">
<rect width="38" height="38" fill="white"/>
</clipPath>
</defs>
</svg>
