<svg width="50" height="50" viewBox="0 0 50 50" fill="none" xmlns="http://www.w3.org/2000/svg">
<path d="M25 6.25L18.7396 12.8646L12.4688 19.4688L6.25 26.0417V6.25H25Z" fill="#0D91D6"/>
<path d="M25 6.25H24.9583L18.7187 12.8437L12.4583 19.4583L6.25 26.0104V26.0417V26.1354V43.75L15.3021 34.6979L21.7396 28.2604L28.1875 21.8125L34.6354 15.3646L43.75 6.25H25Z" fill="#F88909"/>
<path d="M15.3021 34.6979L6.25 43.75V26.1354L15.3021 34.6979Z" fill="#C757BC"/>
<path d="M21.7396 28.2604L15.3021 34.6979L6.25 26.1354V26.0417L12.4687 19.4688L21.7396 28.2604Z" fill="#D3638F"/>
<path d="M28.1875 21.8125L21.7396 28.2605L12.4688 19.4688L18.7396 12.8646L28.1875 21.8125Z" fill="#E07063"/>
<path d="M34.6356 15.3646L28.1877 21.8125L18.7397 12.8646L25.0002 6.25L34.6356 15.3646Z" fill="#EC7D36"/>
<path d="M43.75 6.25L34.6354 15.3646L25 6.25H43.75Z" fill="#F88909"/>
<path d="M11.9896 19.948L8.32292 23.8334L6.25 21.875V14.5209L11.9896 19.948Z" fill="#0095D5"/>
<path d="M15.6562 16.0625L11.9896 19.9479L6.25 14.5208V7.15625L15.6562 16.0625Z" fill="#2B88DA"/>
<path d="M19.3333 12.1875L15.6562 16.0625L6.25 7.15625V6.25H13.0521L19.3333 12.1875Z" fill="#557BDE"/>
<path d="M23.0002 8.30208L19.3335 12.1875L13.0522 6.25H25.0002L23.0002 8.30208Z" fill="#806EE3"/>
<path d="M23.9583 26.0416L6.25 43.75H9.73958H18.25H41.6667L23.9583 26.0416Z" fill="#0095D5"/>
<path d="M26.75 43.75H18.25L12.25 37.7604L16.5 33.5104L26.75 43.75Z" fill="#2B88DA"/>
<path d="M35.2708 43.75H26.75L16.5 33.5104L20.75 29.2604L35.2708 43.75Z" fill="#557BDE"/>
<path d="M43.75 43.75H35.2708L20.75 29.2604L25 25L43.75 43.75Z" fill="#806EE3"/>
</svg>
