<svg width="50" height="50" viewBox="0 0 50 50" fill="none" xmlns="http://www.w3.org/2000/svg">
<path d="M1.0415 5.20837L7.2915 9.37504V30.2084L1.0415 26.0417V5.20837Z" fill="#29B6F6"/>
<path d="M48.9585 20.8334L42.7085 25V38.5417L48.9585 34.375V20.8334Z" fill="#0288D1"/>
<path d="M48.9585 6.25L42.7085 10.4167V17.7083L48.9585 13.5417V6.25Z" fill="#0288D1"/>
<path d="M36.4585 5.20837L30.2085 9.37504V30.2084L36.4585 26.0417V5.20837Z" fill="#0288D1"/>
<path d="M1.0415 12.5L18.7498 23.9584V16.6667L1.0415 5.20837V12.5Z" fill="#29B6F6"/>
<path d="M36.4583 12.5L18.75 23.9584V16.6667L36.4583 5.20837V12.5Z" fill="#0288D1"/>
<path d="M36.4583 27.0833L18.75 38.5416V31.25L36.4583 19.7916V27.0833Z" fill="#0288D1"/>
<path d="M48.9583 35.4167L31.25 46.875V39.5833L48.9583 28.125V35.4167Z" fill="#0288D1"/>
<path d="M31.25 39.3385L18.75 31.25V38.5417L31.25 46.6302V39.3385Z" fill="#29B6F6"/>
</svg>
