<svg width="45" height="45" viewBox="0 0 45 45" fill="none" xmlns="http://www.w3.org/2000/svg">
<g clip-path="url(#clip0_212_192)">
<path d="M22.6373 0.234339C20.7562 0.240198 19.4522 0.400745 17.876 0.664417C13.2212 1.44957 12.3732 3.0984 12.3732 6.13707V10.7812H23.2603V13.125H11.9595H6.69736C3.50865 13.125 0.717928 14.5804 -0.166346 18.0691C-1.16554 22.0734 -1.2103 24.5812 -0.166346 28.7625C0.625993 31.8808 2.37156 34.2187 5.56148 34.2187H9.95502V28.2375C9.95502 24.7617 13.2042 21.3281 16.9276 21.3281H25.6808C28.7328 21.3281 31.7292 19.1461 31.7292 16.1988V6.13707C31.7292 3.27887 29.6014 1.14137 26.6268 0.662073C26.7006 0.655042 24.5026 0.227307 22.6373 0.234339ZM16.6082 4.92184C17.6014 4.92184 18.4228 5.7152 18.4228 6.68199C18.4228 7.65817 17.6014 8.43746 16.6082 8.43746C15.5958 8.43746 14.7937 7.65934 14.7937 6.68199C14.7937 5.71871 15.5958 4.92184 16.6082 4.92184Z" fill="#0277BD"/>
<path d="M21.4655 44.7656C23.3465 44.7598 24.6506 44.5992 26.2268 44.3355C30.8816 43.5504 31.7296 41.9016 31.7296 38.8629V34.2188H20.8425V31.875H32.1445H37.4066C40.5953 31.875 43.386 30.4195 44.2703 26.9309C45.2695 22.9266 45.3143 20.4187 44.2703 16.2375C43.4768 13.1191 41.7312 10.7812 38.5413 10.7812H34.1477V16.7625C34.1477 20.2383 30.8985 23.6719 27.1751 23.6719H18.4219C15.3699 23.6719 12.3735 25.8539 12.3735 28.8012V38.8629C12.3735 41.7211 14.5014 43.8586 17.476 44.3379C17.4022 44.3449 19.6001 44.7727 21.4655 44.7656ZM27.4957 40.0781C26.5026 40.0781 25.6812 39.2848 25.6812 38.318C25.6812 37.3418 26.5026 36.5625 27.4957 36.5625C28.5082 36.5625 29.3102 37.3406 29.3102 38.318C29.3102 39.2813 28.507 40.0781 27.4957 40.0781Z" fill="#FFC107"/>
</g>
<defs>
<clipPath id="clip0_212_192">
<rect width="45" height="45" fill="white"/>
</clipPath>
</defs>
</svg>
