<svg width="50" height="41" viewBox="0 0 50 41" fill="none" xmlns="http://www.w3.org/2000/svg">
<g clip-path="url(#clip0_212_184)">
<path d="M43.7502 12.2618L41.6668 39.3452L14.5835 41.4285L43.7502 12.2618Z" fill="#9B1010"/>
<path d="M29.1665 26.8452L41.6665 39.3452L43.7498 12.2618L29.1665 26.8452Z" fill="#B71C1C"/>
<path d="M16.4087 14.0874C14.2207 16.2755 12.2763 18.6644 10.6866 21.1177C9.09685 23.571 7.89293 26.0407 7.14355 28.3857C6.39416 30.7307 6.11399 32.9051 6.31904 34.7848C6.52408 36.6645 7.21032 38.2126 8.33857 39.3408C9.46682 40.469 11.015 41.1552 12.8947 41.3602C14.7744 41.5652 16.9488 41.2849 19.2938 40.5355C21.6387 39.786 24.1083 38.582 26.5616 36.9922C29.0148 35.4024 31.4037 33.4579 33.5917 31.2698C35.7798 29.0817 37.7241 26.6928 39.3139 24.2395C40.9036 21.7862 42.1075 19.3165 42.8569 16.9715C43.6063 14.6265 43.8864 12.4521 43.6814 10.5724C43.4764 8.69272 42.7901 7.14458 41.6619 6.01636C40.5336 4.88815 38.9854 4.20197 37.1058 3.99699C35.2261 3.79202 33.0517 4.07226 30.7067 4.82172C28.3617 5.57119 25.8921 6.7752 23.4388 8.36501C20.9856 9.95482 18.5968 11.8993 16.4087 14.0874Z" fill="#C62828"/>
<path d="M10.4167 15.3869L17.7083 8.09526L26.0417 3.92859L32.2917 8.09526L29.1667 17.4703L19.7917 25.8036L10.4167 28.9286L6.25 22.6786L10.4167 15.3869Z" fill="#E53935"/>
<path d="M32.2917 8.09526L26.0417 3.92859H37.5L32.2917 8.09526ZM43.75 13.3036L32.2917 8.09526L29.1667 17.4703L43.75 13.3036ZM19.7917 25.8036L33.5781 31.2567L29.1667 17.4703L19.7917 25.8036ZM10.4167 28.9286L14.5833 41.4286L19.7917 25.8036L10.4167 28.9286ZM6.25 22.6786V34.1369L10.4167 28.9286L6.25 22.6786Z" fill="#FF5252"/>
</g>
<defs>
<clipPath id="clip0_212_184">
<rect width="50" height="41" fill="white"/>
</clipPath>
</defs>
</svg>
